<svg xmlns="http://www.w3.org/2000/svg" width="100" height="100" viewBox="0 0 80 80">
  <title>47_certified</title>
  <path d="M40,42a8,8,0,1,0-8-8A8,8,0,0,0,40,42Zm0-15a7,7,0,1,1-7,7A7.008,7.008,0,0,1,40,27Z" style="fill: #000000;"></path>
  <path d="M52,34a12,12,0,1,0-20,8.926V57.5a.5.5,0,0,0,.865.342L40,50.231l7.135,7.611A.5.5,0,0,0,47.5,58a.513.513,0,0,0,.184-.035A.5.5,0,0,0,48,57.5V42.926A11.954,11.954,0,0,0,52,34ZM29,34A11,11,0,1,1,40,45,11.013,11.013,0,0,1,29,34ZM47,56.235l-6.635-7.077a.517.517,0,0,0-.73,0L33,56.235v-12.5a11.941,11.941,0,0,0,14,0Z" style="fill: #000000;"></path>
</svg>
