<svg xmlns="http://www.w3.org/2000/svg" width="100" height="100" viewBox="0 0 80 80">
  <title>61_resp_ressources</title>
  <path d="M37,58c-1.243,0-13.534-3.994-14-4.271A1.891,1.891,0,0,1,22,52V46.5a2.434,2.434,0,0,1,1.868-2.464C24.941,43.925,33.989,43,34.5,43c.1,0,.419,0,9.021,3.034a3,3,0,1,1-2.047,5.64l-6.143-2.2a.5.5,0,0,1,.338-.942l6.144,2.2a2,2,0,1,0,1.371-3.757c-3.138-1.107-8.291-2.9-8.744-2.98-.328.008-6.424.619-10.427,1.028A1.462,1.462,0,0,0,23,46.5V52a.9.9,0,0,0,.5.868c.786.4,12.61,4.112,13.5,4.132.786,0,10.466-3.044,11.258-3.438.345-.224,5.09-4.12,8.19-6.68a2,2,0,0,0-.035-2.8,2.019,2.019,0,0,0-2.86.03l-5.625,4.7a3.5,3.5,0,0,1-1.161.524.5.5,0,1,1-.27-.963,2.714,2.714,0,0,0,.809-.344l5.6-4.688a3,3,0,0,1,4.209,4.272c-1.35,1.118-7.935,6.552-8.364,6.808C48.345,54.676,38.142,58,37,58Z" style="fill: #000000;"></path>
  <path d="M42.984,25.921a.51.51,0,0,0-.019-.1c0-.006,0-.014-.005-.02v0c-.007-.016-.02-.025-.028-.04s-.01-.015-.015-.023a.577.577,0,0,0-.052-.077c-.006-.006-.01-.014-.017-.02a.459.459,0,0,0-.051-.035l-.018-.012a.475.475,0,0,0-.055-.043l-7-3.5c-.011-.005-.022-.005-.033-.009a.7.7,0,0,0-.188-.039.48.48,0,0,0-.1.013.492.492,0,0,0-.091.025c-.012,0-.025,0-.037.01L28,25.691V35.33l7.487,3.209,4.189-1.571a.5.5,0,0,0-.352-.936l-3.811,1.429L29,34.67V26.759l6,2.571V34.5a.5.5,0,0,0,1,0V29.33l6-2.571V32.5a.5.5,0,0,0,1,0V26h0A.426.426,0,0,0,42.984,25.921Z" style="fill: #000000;"></path>
  <path d="M51.406,38.205l-1.015-.179c-.03-.077-.061-.154-.095-.229l.6-.83a.719.719,0,0,0-.075-.927l-.843-.844a.71.71,0,0,0-.921-.081l-.84.589c-.08-.036-.16-.07-.241-.1l-.179-1.01A.717.717,0,0,0,47.088,34h-1.2a.715.715,0,0,0-.707.6l-.167,1c-.081.03-.161.063-.24.1l-.834-.584a.72.72,0,0,0-.919.081l-.847.848a.714.714,0,0,0-.074.922l.586.82c-.036.079-.07.161-.1.244l-1,.176a.717.717,0,0,0-.593.707v1.2a.715.715,0,0,0,.6.707l.993.166c.031.082.065.164.1.243l-.581.832a.715.715,0,0,0,.081.919l.846.845a.713.713,0,0,0,.923.076l.826-.589c.076.034.154.066.233.1l.163.995a.713.713,0,0,0,.708.6h1.2a.717.717,0,0,0,.707-.595l.177-1.008c.08-.03.158-.062.236-.1l.825.594a.716.716,0,0,0,.927-.076l.848-.846a.719.719,0,0,0,.077-.918l-.592-.842c.034-.076.065-.153.1-.231l1.01-.166a.718.718,0,0,0,.6-.707v-1.2A.717.717,0,0,0,51.406,38.205ZM51,39.866l-1.378.227-.09.3a3.175,3.175,0,0,1-.259.623l-.148.272.806,1.146-.508.506-1.134-.814-.277.153a3.033,3.033,0,0,1-.623.261l-.3.088L46.851,44h-.718l-.224-1.368-.3-.089a3.21,3.21,0,0,1-.627-.258l-.275-.147-1.127.8-.509-.507.794-1.137-.15-.273a3.259,3.259,0,0,1-.262-.629l-.089-.3L42,39.867v-.719l1.36-.24.088-.3a3.228,3.228,0,0,1,.263-.631l.152-.276-.8-1.128.507-.508,1.136.8.273-.147a3.149,3.149,0,0,1,.629-.261l.3-.088L46.133,35h.719l.242,1.371.3.089a3.121,3.121,0,0,1,.626.263l.273.151,1.147-.8.506.508-.815,1.134.149.275a3.217,3.217,0,0,1,.258.624l.088.3L51,39.148Z" style="fill: #000000;"></path>
  <path d="M46.5,37.5a2,2,0,1,0,2,2A2,2,0,0,0,46.5,37.5Zm0,3a1,1,0,1,1,1-1A1,1,0,0,1,46.5,40.5Z" style="fill: #000000;"></path>
</svg>
