<svg xmlns="http://www.w3.org/2000/svg" width="100" height="100" viewBox="0 0 80 80">
  <defs>
    <style>
      .cls-1 {
        fill: #000000;
      }
    </style>
  </defs>
  <title>72_customer-portal_solitaire_stroke_EOSgrey</title>
  <g id="Icons">
    <path class="cls-1" d="M54.5,50.5H25V29H39.275a.5.5,0,1,1,0,1H26V49.5H53.5V40.216a.5.5,0,0,1,1,0Z"></path>
    <path class="cls-1" d="M59.5,53h-39a.5.5,0,0,1,0-1h39a.5.5,0,0,1,0,1Z"></path>
    <path class="cls-1" d="M46,31a5,5,0,1,1,5-5A5.006,5.006,0,0,1,46,31Zm0-9a4,4,0,1,0,4,4A4,4,0,0,0,46,22Z"></path>
    <path class="cls-1" d="M55.139,38.5H37.5V38a9,9,0,0,1,3.969-7.5.5.5,0,1,1,.556.83A7.991,7.991,0,0,0,38.516,37.5H54.124a7.908,7.908,0,0,0-5.479-7.118.5.5,0,1,1,.3-.953A8.921,8.921,0,0,1,55.139,38Z"></path>
  </g>
</svg>
