<svg xmlns="http://www.w3.org/2000/svg" width="100" height="100" viewBox="0 0 80 80">
  <title>60_resp_people</title>
  <path d="M52.912,43.349l-5.6,4.688a2.714,2.714,0,0,1-.809.344.5.5,0,1,0,.27.963,3.5,3.5,0,0,0,1.161-.524l5.625-4.7a2.019,2.019,0,0,1,2.86-.03,2,2,0,0,1,.035,2.8c-3.1,2.56-7.845,6.456-8.19,6.68C47.467,53.956,37.787,57,37,57c-.888-.02-12.712-3.732-13.5-4.132A.9.9,0,0,1,23,52V46.5a1.462,1.462,0,0,1,1.013-1.476c4-.409,10.1-1.02,10.427-1.028.453.083,5.606,1.873,8.744,2.98a2,2,0,1,1-1.371,3.757l-6.144-2.2a.5.5,0,0,0-.338.942l6.143,2.2a3,3,0,1,0,2.047-5.64C34.919,43,34.6,43,34.5,43c-.511,0-9.559.925-10.632,1.036A2.434,2.434,0,0,0,22,46.5V52a1.891,1.891,0,0,0,1,1.729C23.466,54.006,35.757,58,37,58c1.142,0,11.345-3.324,11.757-3.571.429-.256,7.014-5.69,8.364-6.808a3,3,0,0,0-4.209-4.272Z" style="fill: #000000;"></path>
  <path d="M43.25,31.5A3.25,3.25,0,1,0,40,28.25,3.25,3.25,0,0,0,43.25,31.5Zm0-5.5A2.25,2.25,0,1,1,41,28.25,2.252,2.252,0,0,1,43.25,26Z" style="fill: #000000;"></path>
  <path d="M34.25,28.5A3.25,3.25,0,1,0,31,25.25,3.25,3.25,0,0,0,34.25,28.5Zm0-5.5A2.25,2.25,0,1,1,32,25.25,2.252,2.252,0,0,1,34.25,23Z" style="fill: #000000;"></path>
  <path d="M38,40.591A1.41,1.41,0,0,0,39.409,42h8.182A1.41,1.41,0,0,0,49,40.591V36.955a5.53,5.53,0,0,0-3.53-5.131l-.231-.089-.21.13a3.409,3.409,0,0,1-3.35.1l-.219-.118-.226.1A5.512,5.512,0,0,0,38,36.955Zm1-3.636a4.51,4.51,0,0,1,2.437-4,4.413,4.413,0,0,0,3.889-.113A4.528,4.528,0,0,1,48,36.955v3.636a.41.41,0,0,1-.409.409H39.409A.41.41,0,0,1,39,40.591Z" style="fill: #000000;"></path>
  <path d="M30.409,39H37V38H30.409A.41.41,0,0,1,30,37.591V33.955a4.51,4.51,0,0,1,2.437-4,4.413,4.413,0,0,0,3.889-.113,4.538,4.538,0,0,1,2.464,2.773,6.685,6.685,0,0,1,.831-.652,5.539,5.539,0,0,0-3.151-3.143l-.231-.089-.21.13a3.409,3.409,0,0,1-3.35.1l-.219-.118-.226.1A5.512,5.512,0,0,0,29,33.955v3.636A1.41,1.41,0,0,0,30.409,39Z" style="fill: #000000;"></path>
  <path d="M52.75,28.5a3.25,3.25,0,1,0-3.25-3.25A3.25,3.25,0,0,0,52.75,28.5Zm0-5.5a2.25,2.25,0,1,1-2.25,2.25A2.252,2.252,0,0,1,52.75,23Z" style="fill: #000000;"></path>
  <path d="M54.766,28.946l-.226-.1-.219.118a3.409,3.409,0,0,1-3.35-.1l-.21-.13-.231.089a5.539,5.539,0,0,0-3.151,3.143,6.685,6.685,0,0,1,.831.652,4.538,4.538,0,0,1,2.464-2.773,4.413,4.413,0,0,0,3.889.113,4.51,4.51,0,0,1,2.437,4v3.636a.41.41,0,0,1-.409.409H50v1h6.591A1.41,1.41,0,0,0,58,37.591V33.955A5.512,5.512,0,0,0,54.766,28.946Z" style="fill: #000000;"></path>
</svg>
