<svg width="118" height="118" viewBox="0 0 118 118" fill="none" xmlns="http://www.w3.org/2000/svg">
<path d="M60.2 100.92L19.35 78.13L60.2 55.34L101.05 78.13L60.2 100.92V100.92Z" fill="#C1D9FF"/>
<path d="M101.05 85.97L60.2 108.75V100.92L101.05 78.13V85.97Z" fill="#82B2FD"/>
<path d="M60.2 108.75L19.35 85.97V78.13L60.2 100.92V108.75V108.75Z" fill="#1D76F6"/>
<path d="M76.525 77.115L82.095 75.675L80.685 72.675L74.635 73.065C73.885 72.205 72.925 71.405 71.735 70.675L74.345 67.575L69.915 65.795L65.815 68.265C64.205 67.865 62.505 67.605 60.795 67.495L59.385 64.235L54.015 64.505L53.645 67.845C51.965 68.145 50.345 68.575 48.845 69.155L44.225 67.225L40.415 69.435L43.825 72.105C42.845 72.985 42.115 73.935 41.635 74.905L35.935 75.135L35.485 78.245L41.155 79.035C41.385 80.025 41.875 81.015 42.615 81.945L38.425 84.285L41.535 86.835L46.885 85.305C48.185 85.985 49.625 86.525 51.135 86.945L50.515 90.375L55.725 91.165L58.185 87.935C59.845 87.965 61.505 87.865 63.125 87.625L66.535 90.545L71.415 89.225L69.675 85.775C70.255 85.515 70.815 85.235 71.345 84.925C71.985 84.555 72.575 84.165 73.085 83.755L79.005 84.725L81.265 81.905L76.105 79.915C76.465 78.985 76.605 78.035 76.505 77.085V77.105L76.525 77.115ZM68.715 83.435C63.215 86.605 54.315 86.605 48.825 83.435C43.325 80.265 43.325 75.125 48.825 71.955C54.325 68.785 63.225 68.785 68.715 71.955C74.215 75.125 74.215 80.265 68.715 83.435Z" fill="#84B4FB"/>
<path d="M69.0549 82.935C63.5549 86.105 54.6549 86.105 49.1649 82.935C43.6649 79.765 43.6649 74.625 49.1649 71.455C54.6649 68.285 63.5649 68.285 69.0549 71.455C74.5549 74.625 74.5549 79.765 69.0549 82.935ZM76.8549 76.615L82.4249 75.175L81.0149 72.175L74.9649 72.565C74.2149 71.705 73.2549 70.905 72.0649 70.175L74.6749 67.075L70.2449 65.295L66.1449 67.765C64.5349 67.365 62.8349 67.105 61.1249 66.995L59.7149 63.735L54.3449 64.005L53.9749 67.345C52.2949 67.645 50.6749 68.075 49.1749 68.655L44.5549 66.725L40.7449 68.935L44.1549 71.605C43.1749 72.485 42.4449 73.435 41.9649 74.405L36.2649 74.635L35.8149 77.745L41.4849 78.535C41.7149 79.525 42.2049 80.515 42.9449 81.445L38.7549 83.785L41.8649 86.335L47.2149 84.805C48.5149 85.485 49.9549 86.025 51.4649 86.445L50.8449 89.875L56.0549 90.665L58.5149 87.435C60.1749 87.465 61.8349 87.365 63.4549 87.125L66.8649 90.045L71.7449 88.725L70.0049 85.275C70.5849 85.015 71.1449 84.735 71.6749 84.425C72.3149 84.055 72.9049 83.665 73.4149 83.255L79.3349 84.225L81.5949 81.405L76.4349 79.415C76.7949 78.485 76.9349 77.535 76.8349 76.585V76.605L76.8549 76.615Z" fill="#84B4FB"/>
<path d="M69.105 82.335C63.605 85.505 54.705 85.505 49.215 82.335C43.715 79.165 43.715 74.025 49.215 70.855C54.715 67.685 63.615 67.685 69.105 70.855C74.605 74.025 74.605 79.165 69.105 82.335ZM76.905 76.015L82.475 74.575L81.065 71.575L75.015 71.965C74.265 71.105 73.305 70.305 72.115 69.575L74.725 66.475L70.295 64.695L66.195 67.165C64.585 66.765 62.885 66.505 61.175 66.395L59.765 63.135L54.395 63.405L54.025 66.745C52.345 67.045 50.725 67.475 49.225 68.055L44.605 66.125L40.795 68.335L44.205 71.005C43.225 71.885 42.495 72.835 42.015 73.805L36.315 74.035L35.865 77.145L41.535 77.935C41.765 78.925 42.255 79.915 42.995 80.845L38.805 83.185L41.915 85.735L47.265 84.205C48.565 84.885 50.005 85.425 51.515 85.845L50.895 89.275L56.105 90.065L58.565 86.835C60.225 86.865 61.885 86.765 63.505 86.525L66.915 89.445L71.795 88.125L70.055 84.675C70.635 84.415 71.195 84.135 71.725 83.825C72.365 83.455 72.955 83.065 73.465 82.655L79.385 83.625L81.645 80.805L76.485 78.815C76.845 77.885 76.985 76.935 76.885 75.985V76.005L76.905 76.015Z" fill="#7BAEFB"/>
<path d="M69.1449 81.725C63.6449 84.895 54.7449 84.895 49.2549 81.725C43.7549 78.555 43.7549 73.415 49.2549 70.245C54.7549 67.075 63.6549 67.075 69.1449 70.245C74.6449 73.415 74.6449 78.555 69.1449 81.725ZM76.9449 75.405L82.5149 73.965L81.1049 70.965L75.0549 71.355C74.3049 70.495 73.3449 69.695 72.1549 68.965L74.7649 65.865L70.3349 64.085L66.2349 66.555C64.6249 66.155 62.9249 65.895 61.2149 65.785L59.8049 62.525L54.4349 62.795L54.0649 66.135C52.3849 66.435 50.7649 66.865 49.2649 67.445L44.6449 65.515L40.8349 67.725L44.2449 70.395C43.2649 71.275 42.5349 72.225 42.0549 73.195L36.3549 73.425L35.9049 76.535L41.5749 77.325C41.8049 78.315 42.2949 79.305 43.0349 80.235L38.8449 82.575L41.9549 85.125L47.3049 83.595C48.6049 84.275 50.0449 84.815 51.5549 85.235L50.9349 88.665L56.1449 89.455L58.6049 86.225C60.2649 86.255 61.9249 86.155 63.5449 85.915L66.9549 88.835L71.8349 87.515L70.0949 84.065C70.6749 83.805 71.2349 83.525 71.7649 83.215C72.4049 82.845 72.9949 82.455 73.5049 82.045L79.4249 83.015L81.6849 80.195L76.5249 78.205C76.8849 77.275 77.0249 76.325 76.9249 75.375V75.395L76.9449 75.405Z" fill="#71A9FA"/>
<path d="M69.195 81.125C63.695 84.295 54.795 84.295 49.305 81.125C43.805 77.955 43.805 72.815 49.305 69.645C54.805 66.475 63.705 66.475 69.195 69.645C74.695 72.815 74.695 77.955 69.195 81.125ZM76.995 74.805L82.565 73.365L81.155 70.365L75.105 70.755C74.355 69.895 73.395 69.095 72.205 68.365L74.815 65.265L70.385 63.4851L66.285 65.9551C64.675 65.5551 62.975 65.295 61.265 65.185L59.855 61.925L54.485 62.195L54.115 65.5351C52.435 65.8351 50.815 66.2651 49.315 66.8451L44.695 64.9151L40.885 67.125L44.295 69.795C43.315 70.675 42.585 71.6251 42.105 72.5951L36.405 72.825L35.955 75.935L41.625 76.725C41.855 77.715 42.345 78.7051 43.085 79.6351L38.895 81.975L42.005 84.5251L47.355 82.9951C48.655 83.6751 50.095 84.2151 51.605 84.6351L50.985 88.0651L56.195 88.8551L58.655 85.625C60.315 85.655 61.975 85.5551 63.595 85.3151L67.005 88.2351L71.885 86.9151L70.145 83.465C70.725 83.205 71.285 82.925 71.815 82.615C72.455 82.245 73.045 81.855 73.555 81.445L79.475 82.4151L81.735 79.5951L76.575 77.6051C76.935 76.6751 77.075 75.7251 76.975 74.7751V74.795L76.995 74.805Z" fill="#68A3FA"/>
<path d="M69.235 80.515C63.735 83.685 54.835 83.685 49.345 80.515C43.845 77.345 43.845 72.205 49.345 69.035C54.845 65.865 63.745 65.865 69.235 69.035C74.735 72.205 74.735 77.345 69.235 80.515ZM77.035 74.195L82.605 72.755L81.195 69.755L75.145 70.145C74.395 69.285 73.435 68.485 72.245 67.755L74.855 64.655L70.425 62.875L66.325 65.345C64.715 64.945 63.015 64.685 61.305 64.575L59.895 61.315L54.525 61.585L54.155 64.925C52.475 65.225 50.855 65.655 49.355 66.235L44.735 64.305L40.925 66.515L44.335 69.185C43.355 70.065 42.625 71.015 42.145 71.985L36.445 72.215L35.995 75.325L41.665 76.115C41.895 77.105 42.385 78.095 43.125 79.025L38.935 81.365L42.045 83.915L47.395 82.385C48.695 83.065 50.135 83.605 51.645 84.025L51.025 87.455L56.235 88.245L58.695 85.015C60.355 85.045 62.015 84.945 63.635 84.705L67.045 87.625L71.925 86.305L70.185 82.855C70.765 82.595 71.325 82.315 71.855 82.005C72.495 81.635 73.085 81.245 73.595 80.835L79.515 81.805L81.775 78.985L76.615 76.995C76.975 76.065 77.115 75.115 77.015 74.165V74.185L77.035 74.195Z" fill="#5F9DF9"/>
<path d="M69.2849 79.915C63.7849 83.085 54.8849 83.085 49.3949 79.915C43.8949 76.745 43.8949 71.605 49.3949 68.435C54.8949 65.265 63.7949 65.265 69.2849 68.435C74.7849 71.605 74.7849 76.745 69.2849 79.915ZM77.0849 73.595L82.6549 72.155L81.2449 69.155L75.1949 69.545C74.4449 68.685 73.4849 67.885 72.2949 67.155L74.9049 64.055L70.4749 62.275L66.3749 64.745C64.7649 64.345 63.0649 64.085 61.3549 63.975L59.9449 60.715L54.5749 60.985L54.2049 64.325C52.5249 64.625 50.9049 65.055 49.4049 65.635L44.7849 63.705L40.9749 65.915L44.3849 68.585C43.4049 69.465 42.6749 70.415 42.1949 71.385L36.4949 71.615L36.0449 74.725L41.7149 75.515C41.9449 76.505 42.4349 77.495 43.1749 78.425L38.9849 80.765L42.0949 83.315L47.4449 81.785C48.7449 82.465 50.1849 83.005 51.6949 83.425L51.0749 86.855L56.2849 87.645L58.7449 84.415C60.4049 84.445 62.0649 84.345 63.6849 84.105L67.0949 87.025L71.9749 85.705L70.2349 82.255C70.8149 81.995 71.3749 81.715 71.9049 81.405C72.5449 81.035 73.1349 80.645 73.6449 80.235L79.5649 81.205L81.8249 78.385L76.6649 76.395C77.0249 75.465 77.1649 74.515 77.0649 73.565V73.585L77.0849 73.595Z" fill="#5598F9"/>
<path d="M69.325 79.305C63.825 82.475 54.925 82.475 49.435 79.305C43.935 76.135 43.935 70.995 49.435 67.825C54.935 64.655 63.835 64.655 69.325 67.825C74.825 70.995 74.825 76.135 69.325 79.305ZM77.125 72.985L82.695 71.545L81.285 68.545L75.235 68.935C74.485 68.075 73.525 67.275 72.335 66.545L74.945 63.445L70.515 61.665L66.415 64.135C64.805 63.735 63.105 63.475 61.395 63.365L59.985 60.105L54.615 60.375L54.245 63.715C52.565 64.015 50.945 64.445 49.445 65.025L44.825 63.095L41.015 65.305L44.425 67.975C43.445 68.855 42.715 69.805 42.235 70.775L36.535 71.005L36.085 74.115L41.755 74.905C41.985 75.895 42.475 76.885 43.215 77.815L39.025 80.155L42.135 82.705L47.485 81.175C48.785 81.855 50.225 82.395 51.735 82.815L51.115 86.245L56.325 87.035L58.785 83.805C60.445 83.835 62.105 83.735 63.725 83.495L67.135 86.415L72.015 85.095L70.275 81.645C70.855 81.385 71.415 81.105 71.945 80.795C72.585 80.425 73.175 80.035 73.685 79.625L79.605 80.595L81.865 77.775L76.705 75.785C77.065 74.855 77.205 73.905 77.105 72.955V72.975L77.125 72.985Z" fill="#4C92F8"/>
<path d="M69.365 78.705C63.865 81.875 54.965 81.875 49.475 78.705C43.975 75.535 43.975 70.395 49.475 67.225C54.975 64.055 63.875 64.055 69.365 67.225C74.865 70.395 74.865 75.535 69.365 78.705ZM77.165 72.385L82.735 70.945L81.325 67.945L75.275 68.335C74.525 67.475 73.565 66.675 72.375 65.945L74.985 62.845L70.555 61.065L66.455 63.535C64.845 63.135 63.145 62.875 61.435 62.765L60.025 59.505L54.655 59.775L54.285 63.115C52.605 63.415 50.985 63.845 49.485 64.425L44.865 62.495L41.055 64.705L44.465 67.375C43.485 68.255 42.755 69.205 42.275 70.175L36.575 70.405L36.125 73.515L41.795 74.305C42.025 75.295 42.515 76.285 43.255 77.215L39.065 79.555L42.175 82.105L47.525 80.575C48.825 81.255 50.265 81.795 51.775 82.215L51.155 85.645L56.365 86.435L58.825 83.205C60.485 83.235 62.145 83.135 63.765 82.895L67.175 85.815L72.055 84.495L70.315 81.045C70.895 80.785 71.455 80.505 71.985 80.195C72.625 79.825 73.215 79.435 73.725 79.025L79.645 79.995L81.905 77.175L76.745 75.185C77.105 74.255 77.245 73.305 77.145 72.355V72.375L77.165 72.385Z" fill="#428DF8"/>
<path d="M69.4149 78.095C63.9149 81.265 55.0149 81.265 49.5249 78.095C44.0249 74.925 44.0249 69.785 49.5249 66.615C55.0249 63.445 63.9249 63.445 69.4149 66.615C74.9149 69.785 74.9149 74.925 69.4149 78.095ZM77.2149 71.775L82.7849 70.335L81.3749 67.335L75.3249 67.725C74.5749 66.865 73.6149 66.065 72.4249 65.335L75.0349 62.235L70.6049 60.455L66.5049 62.925C64.8949 62.525 63.1949 62.265 61.4849 62.155L60.0749 58.895L54.7049 59.165L54.3349 62.505C52.6549 62.805 51.0349 63.235 49.5349 63.815L44.9149 61.885L41.1049 64.095L44.5149 66.765C43.5349 67.645 42.8049 68.595 42.3249 69.565L36.6249 69.795L36.1749 72.905L41.8449 73.695C42.0749 74.685 42.5649 75.675 43.3049 76.605L39.1149 78.945L42.2249 81.495L47.5749 79.965C48.8749 80.645 50.3149 81.185 51.8249 81.605L51.2049 85.035L56.4149 85.825L58.8749 82.595C60.5349 82.625 62.1949 82.525 63.8149 82.285L67.2249 85.205L72.1049 83.885L70.3649 80.435C70.9449 80.175 71.5049 79.895 72.0349 79.585C72.6749 79.215 73.2649 78.825 73.7749 78.415L79.6949 79.385L81.9549 76.565L76.7949 74.575C77.1549 73.645 77.2949 72.695 77.1949 71.745V71.765L77.2149 71.775Z" fill="#3987F7"/>
<path d="M69.455 77.495C63.955 80.665 55.055 80.665 49.565 77.495C44.065 74.325 44.065 69.185 49.565 66.015C55.065 62.845 63.965 62.845 69.455 66.015C74.955 69.185 74.955 74.325 69.455 77.495ZM77.255 71.175L82.825 69.735L81.415 66.735L75.365 67.125C74.615 66.265 73.655 65.465 72.465 64.735L75.075 61.635L70.645 59.855L66.545 62.325C64.935 61.925 63.235 61.665 61.525 61.555L60.115 58.295L54.745 58.565L54.375 61.905C52.695 62.205 51.075 62.635 49.575 63.215L44.955 61.285L41.145 63.495L44.555 66.165C43.575 67.045 42.845 67.995 42.365 68.965L36.665 69.195L36.215 72.305L41.885 73.095C42.115 74.085 42.605 75.075 43.345 76.005L39.155 78.345L42.265 80.895L47.615 79.365C48.915 80.045 50.355 80.585 51.865 81.005L51.245 84.435L56.455 85.225L58.915 81.995C60.575 82.025 62.235 81.925 63.855 81.685L67.265 84.605L72.145 83.285L70.405 79.835C70.985 79.575 71.545 79.295 72.075 78.985C72.715 78.615 73.305 78.225 73.815 77.815L79.735 78.785L81.995 75.965L76.835 73.975C77.195 73.045 77.335 72.095 77.235 71.145V71.165L77.255 71.175Z" fill="#3081F7"/>
<path d="M69.5049 76.885C64.0049 80.055 55.1049 80.055 49.6149 76.885C44.1149 73.715 44.1149 68.575 49.6149 65.405C55.1149 62.235 64.0149 62.235 69.5049 65.405C75.0049 68.575 75.0049 73.715 69.5049 76.885ZM77.3049 70.565L82.8749 69.125L81.4649 66.125L75.4149 66.515C74.6649 65.655 73.7049 64.855 72.5149 64.125L75.1249 61.025L70.6949 59.245L66.5949 61.715C64.9849 61.315 63.2849 61.055 61.5749 60.945L60.1649 57.685L54.7949 57.955L54.4249 61.295C52.7449 61.595 51.1249 62.025 49.6249 62.605L45.0049 60.675L41.1949 62.885L44.6049 65.555C43.6249 66.435 42.8949 67.385 42.4149 68.355L36.7149 68.585L36.2649 71.695L41.9349 72.485C42.1649 73.475 42.6549 74.465 43.3949 75.395L39.2049 77.735L42.3149 80.285L47.6649 78.755C48.9649 79.435 50.4049 79.975 51.9149 80.395L51.2949 83.825L56.5049 84.615L58.9649 81.385C60.6249 81.415 62.2849 81.315 63.9049 81.075L67.3149 83.995L72.1949 82.675L70.4549 79.225C71.0349 78.965 71.5949 78.685 72.1249 78.375C72.7649 78.005 73.3549 77.615 73.8649 77.205L79.7849 78.175L82.0449 75.355L76.8849 73.365C77.2449 72.435 77.3849 71.485 77.2849 70.535V70.555L77.3049 70.565Z" fill="#267CF6"/>
<path d="M69.5449 76.285C64.0449 79.455 55.1449 79.455 49.6549 76.285C44.1549 73.115 44.1549 67.975 49.6549 64.805C55.1549 61.635 64.0549 61.635 69.5449 64.805C75.0449 67.975 75.0449 73.115 69.5449 76.285ZM77.3449 69.965L82.9149 68.525L81.5049 65.525L75.4549 65.915C74.7049 65.055 73.7449 64.255 72.5549 63.525L75.1649 60.425L70.7349 58.645L66.6349 61.115C65.0249 60.715 63.3249 60.455 61.6149 60.345L60.2049 57.085L54.8349 57.355L54.4649 60.695C52.7849 60.995 51.1649 61.425 49.6649 62.005L45.0449 60.075L41.2349 62.285L44.6449 64.955C43.6649 65.835 42.9349 66.785 42.4549 67.755L36.7549 67.985L36.3049 71.095L41.9749 71.885C42.2049 72.875 42.6949 73.865 43.4349 74.795L39.2449 77.135L42.3549 79.685L47.7049 78.155C49.0049 78.835 50.4449 79.375 51.9549 79.795L51.3349 83.225L56.5449 84.015L59.0049 80.785C60.6649 80.815 62.3249 80.715 63.9449 80.475L67.3549 83.395L72.2349 82.075L70.4949 78.625C71.0749 78.365 71.6349 78.085 72.1649 77.775C72.8049 77.405 73.3949 77.015 73.9049 76.605L79.8249 77.575L82.0849 74.755L76.9249 72.765C77.2849 71.835 77.4249 70.885 77.3249 69.935V69.955L77.3449 69.965Z" fill="#1D76F6"/>
<path opacity="0.8" d="M77.0949 70.235L82.6649 68.795L81.2549 65.795L75.2049 66.185C74.4549 65.325 73.4949 64.525 72.3049 63.795L74.9149 60.695L70.4849 58.915L66.3849 61.385C64.7749 60.985 63.0749 60.725 61.3649 60.615L59.9549 57.355L54.5849 57.625L54.2149 60.965C52.5349 61.265 50.9149 61.695 49.4149 62.275L44.7949 60.345L40.9849 62.555L44.3949 65.225C43.4149 66.105 42.6849 67.055 42.2049 68.025L36.5049 68.255L36.0549 71.365L41.7249 72.155C41.9549 73.145 42.4449 74.135 43.1849 75.065L38.9949 77.405L42.1049 79.955L47.4549 78.425C48.7549 79.105 50.1949 79.645 51.7049 80.065L51.0849 83.495L56.2949 84.285L58.7549 81.045C60.4149 81.075 62.0749 80.975 63.6949 80.735L67.1049 83.655L71.9849 82.335L70.2449 78.885C70.8249 78.625 71.3849 78.345 71.9149 78.035C72.5549 77.665 73.1449 77.275 73.6549 76.865L79.5749 77.835L81.8349 75.015L76.6749 73.025C77.0349 72.095 77.1749 71.145 77.0749 70.195V70.215L77.0949 70.235ZM69.2849 76.555C63.7849 79.725 54.8849 79.725 49.3949 76.555C43.8949 73.385 43.8949 68.245 49.3949 65.075C54.8949 61.905 63.7949 61.905 69.2849 65.075C74.7849 68.245 74.7849 73.385 69.2849 76.555Z" fill="#1255E2"/>
<path d="M41.8199 55.515H44.7599C45.2399 55.515 45.5399 56.075 45.2999 56.525L43.9499 59.355L42.5199 62.015C42.2799 62.465 41.4399 62.425 41.1999 61.985L39.7899 59.285L38.3699 56.305C38.1299 55.855 38.3699 55.515 38.8499 55.515H41.8199V55.515Z" fill="#204360"/>
<path d="M41.9799 62.205C41.8599 62.185 41.6999 62.255 41.4399 62.195C41.1799 62.135 40.7999 61.325 40.7999 60.945C40.7999 60.565 41.5299 60.535 41.6399 60.765C41.7499 60.985 41.9499 62.005 41.9899 62.205H41.9799Z" fill="#072B48"/>
<path d="M44.17 58.425L39.81 58.455C39.73 58.445 38.73 57.425 38.4 56.575C37.21 53.445 33.94 46.025 33.94 46.025C33.34 43.425 35.31 43.015 36.19 43.015H48.25C49.1 43.015 50.36 43.935 49.42 45.975C49.42 45.975 46.42 53.365 45.31 56.525C45.01 57.385 44.24 58.385 44.18 58.435L44.17 58.425Z" fill="#204360"/>
<path d="M42.22 27.775L27.33 19.185L42.22 10.585L57.11 19.185L42.22 27.775Z" fill="#E6E9EC"/>
<path d="M57.11 45.425L42.22 54.015V27.775L57.11 19.185V45.425Z" fill="#8193A2"/>
<path d="M42.22 54.015L27.33 45.425V19.185L42.22 27.775V54.015Z" fill="#466176"/>
<path d="M42.11 24.785L31.71 18.785L42.11 12.775L52.51 18.785L42.11 24.785Z" fill="#8395A4"/>
<path d="M42.09 12.775L42.05 24.775L31.71 18.785L42.09 12.775V12.775Z" fill="#204360"/>
<path d="M40.9199 24.115C41.3399 22.155 41.8699 19.965 43.0299 18.105C43.4799 17.395 44.0399 16.695 44.8199 15.875C45.5599 15.095 46.4399 14.215 47.5599 13.615C48.3399 13.195 49.2199 12.905 50.4299 12.675C51.3899 12.485 52.3899 12.365 53.4699 12.295C55.6299 12.185 57.7999 12.405 59.8899 12.615C60.7899 12.705 61.6799 12.795 62.5799 12.855C66.2399 13.125 68.9899 12.755 71.2299 11.705C71.4799 11.585 71.7799 11.705 71.8999 11.945C72.0199 12.185 71.8999 12.495 71.6599 12.615C68.4999 14.085 64.9299 14.025 62.5099 13.855C61.5999 13.785 60.6999 13.695 59.7899 13.605C57.7299 13.395 55.5999 13.195 53.5199 13.285C52.4799 13.345 51.5299 13.465 50.6099 13.645C49.5099 13.855 48.7099 14.115 48.0299 14.485C47.1399 14.965 46.3899 15.655 45.5399 16.555C44.8099 17.325 44.2799 17.985 43.8699 18.635C42.7999 20.345 42.4199 22.875 42.0199 24.745C41.7599 24.635 41.2799 24.385 40.9199 24.115V24.115Z" fill="#1255E2"/>
<path d="M40.5599 23.895C41.1999 21.995 41.8899 19.925 43.2499 18.225C43.8899 17.415 44.6799 16.715 45.2899 16.205C46.1599 15.465 47.1299 14.725 48.2699 14.265C49.2799 13.865 50.3299 13.735 51.2199 13.655C52.1899 13.575 53.1999 13.565 54.2899 13.635C56.4199 13.775 58.5199 14.225 60.5599 14.665C61.4699 14.865 62.3699 15.055 63.2799 15.225C65.7699 15.685 69.0099 16.085 71.9999 15.085C72.2599 14.995 72.5399 15.135 72.6299 15.395C72.7199 15.655 72.5799 15.935 72.3199 16.025C69.1099 17.105 65.7099 16.685 63.0999 16.205C62.1799 16.035 61.2699 15.835 60.3499 15.645C58.3499 15.215 56.2799 14.765 54.2299 14.635C53.1799 14.575 52.2299 14.585 51.2999 14.655C50.4799 14.725 49.5199 14.845 48.6399 15.195C47.6399 15.595 46.7499 16.285 45.9399 16.965C45.3599 17.445 44.8299 18.285 44.2999 19.105C43.1899 20.775 42.1199 22.495 41.4799 24.405C41.2299 24.305 40.8199 24.045 40.5699 23.895H40.5599Z" fill="#1255E2"/>
<path d="M39.61 52.805L41.8 61.445L40.99 61.625L35.59 50.275L39.61 52.805Z" fill="#072B48"/>
</svg>
