<svg width="118" height="118" viewBox="0 0 118 118" fill="none" xmlns="http://www.w3.org/2000/svg">
<path d="M71.8295 91.7179L10.3539 56.2644L46.4464 35.2716L107.922 70.7251L71.8295 91.7179Z" fill="#98C0F9"/>
<path d="M107.922 80.4169L71.8709 100.871L71.6934 91.5345L107.774 70.873L107.922 80.4169Z" fill="#84B4FB"/>
<path d="M71.8709 100.966L10.3539 65.9503L10.2178 56.0811L71.6934 91.5345L71.8709 100.966Z" fill="#267AF2"/>
<path d="M34.5901 59.5819H29.1821V64.2739H34.5901V59.5819Z" fill="#629FF6"/>
<path d="M31.9038 61.99C33.3711 61.99 34.5605 60.8827 34.5605 59.5168C34.5605 58.1509 33.3711 57.0436 31.9038 57.0436C30.4366 57.0436 29.2472 58.1509 29.2472 59.5168C29.2472 60.8827 30.4366 61.99 31.9038 61.99Z" fill="#629FF6"/>
<path d="M31.8388 65.1259C33.306 65.1259 34.4954 64.657 34.4954 64.0786C34.4954 63.5003 33.306 63.0314 31.8388 63.0314C30.3715 63.0314 29.1821 63.5003 29.1821 64.0786C29.1821 64.657 30.3715 65.1259 31.8388 65.1259Z" fill="#629FF6"/>
<path d="M43.1748 64.2166H37.7668V68.9086H43.1748V64.2166Z" fill="#629FF6"/>
<path d="M40.4827 66.6247C41.9499 66.6247 43.1393 65.5174 43.1393 64.1514C43.1393 62.7855 41.9499 61.6782 40.4827 61.6782C39.0155 61.6782 37.826 62.7855 37.826 64.1514C37.826 65.5174 39.0155 66.6247 40.4827 66.6247Z" fill="#629FF6"/>
<path d="M40.4176 69.7606C41.8849 69.7606 43.0743 69.2917 43.0743 68.7133C43.0743 68.1349 41.8849 67.666 40.4176 67.666C38.9504 67.666 37.761 68.1349 37.761 68.7133C37.761 69.2917 38.9504 69.7606 40.4176 69.7606Z" fill="#629FF6"/>
<path d="M79.8235 54.335H74.4155V59.027H79.8235V54.335Z" fill="#629FF6"/>
<path d="M77.1372 56.7431C78.6045 56.7431 79.7939 55.6358 79.7939 54.2699C79.7939 52.9039 78.6045 51.7966 77.1372 51.7966C75.67 51.7966 74.4806 52.9039 74.4806 54.2699C74.4806 55.6358 75.67 56.7431 77.1372 56.7431Z" fill="#629FF6"/>
<path d="M77.0722 59.879C78.5394 59.879 79.7288 59.4101 79.7288 58.8317C79.7288 58.2533 78.5394 57.7844 77.0722 57.7844C75.6049 57.7844 74.4155 58.2533 74.4155 58.8317C74.4155 59.4101 75.6049 59.879 77.0722 59.879Z" fill="#629FF6"/>
<path d="M70.8618 58.8018H65.4539V63.4938H70.8618V58.8018Z" fill="#629FF6"/>
<path d="M68.1697 61.2099C69.6369 61.2099 70.8264 60.1026 70.8264 58.7367C70.8264 57.3707 69.6369 56.2634 68.1697 56.2634C66.7025 56.2634 65.5131 57.3707 65.5131 58.7367C65.5131 60.1026 66.7025 61.2099 68.1697 61.2099Z" fill="#629FF6"/>
<path d="M68.1046 64.3458C69.5719 64.3458 70.7613 63.8769 70.7613 63.2985C70.7613 62.7201 69.5719 62.2512 68.1046 62.2512C66.6374 62.2512 65.448 62.7201 65.448 63.2985C65.448 63.8769 66.6374 64.3458 68.1046 64.3458Z" fill="#629FF6"/>
<path d="M99.668 67.7963H94.26V72.4883H99.668V67.7963Z" fill="#629FF6"/>
<path d="M96.9817 70.2044C98.4489 70.2044 99.6384 69.0971 99.6384 67.7312C99.6384 66.3652 98.4489 65.2579 96.9817 65.2579C95.5145 65.2579 94.3251 66.3652 94.3251 67.7312C94.3251 69.0971 95.5145 70.2044 96.9817 70.2044Z" fill="#629FF6"/>
<path d="M96.9167 73.3403C98.3839 73.3403 99.5733 72.8714 99.5733 72.293C99.5733 71.7146 98.3839 71.2457 96.9167 71.2457C95.4494 71.2457 94.26 71.7146 94.26 72.293C94.26 72.8714 95.4494 73.3403 96.9167 73.3403Z" fill="#629FF6"/>
<path d="M70.5336 49.9335H65.1256V54.6255H70.5336V49.9335Z" fill="#267AF2"/>
<path d="M67.8473 52.3416C69.3145 52.3416 70.504 51.2343 70.504 49.8684C70.504 48.5024 69.3145 47.3951 67.8473 47.3951C66.3801 47.3951 65.1907 48.5024 65.1907 49.8684C65.1907 51.2343 66.3801 52.3416 67.8473 52.3416Z" fill="#267AF2"/>
<path d="M67.7823 55.4775C69.2495 55.4775 70.4389 55.0086 70.4389 54.4302C70.4389 53.8518 69.2495 53.3829 67.7823 53.3829C66.315 53.3829 65.1256 53.8518 65.1256 54.4302C65.1256 55.0086 66.315 55.4775 67.7823 55.4775Z" fill="#267AF2"/>
<path d="M60.4396 43.1764L60.2739 46.3655L58.8065 45.0934L60.4396 43.1764Z" fill="#466176"/>
<path d="M65.3565 48.1879L62.0016 49.0695L61.9661 50.0162L61.8064 50.8623L65.0606 52.3237L65.3565 48.1879Z" fill="#466176"/>
<path d="M59.6527 53.3356L59.4929 57.4714L63.1258 58.1696L63.3388 54.0219L59.6527 53.3356Z" fill="#607789"/>
<path d="M53.4991 55.9093L53.2388 59.915L50.0792 60.0451L50.31 55.9389L51.9371 56.0691L53.4991 55.9093Z" fill="#466176"/>
<path d="M43.3696 54.3473L43.0797 58.4831L39.6893 59.4239L39.9201 55.2881L43.3696 54.3473Z" fill="#607789"/>
<path d="M39.7899 50.5369V52.7143L39.7248 54.2172L35.8789 53.9864L36.2398 49.9512L39.7899 50.5369Z" fill="#607789"/>
<path d="M39.3343 44.3774L39.0089 48.0577L40.1154 48.318L39.9497 47.7323L41.707 45.7797L39.3343 44.3774Z" fill="#466176"/>
<path d="M55.712 57.637L55.4221 61.7374L53.2388 59.915L53.4991 55.9093L55.712 57.637Z" fill="#607789"/>
<path d="M39.7899 50.4067L41.417 52.1285L39.6893 53.0397L39.7899 50.4067Z" fill="#466176"/>
<path d="M43.4702 54.2172L44.5766 54.7674L46.1387 55.1579L45.5884 59.5245L42.8193 58.4832L43.2749 54.1166L43.4702 54.2172Z" fill="#466176"/>
<path d="M37.9971 53.5663L39.9201 55.1579L39.6893 59.4239L37.7013 57.8323L37.9971 53.5663Z" fill="#204360"/>
<path d="M57.6053 54.4774L59.6526 53.2053L59.623 57.5068L58.416 58.2524L57.6053 54.4774Z" fill="#466176"/>
<path d="M64.8002 52.1285L63.3388 54.0219L63.0725 58.1873L64.6405 56.365L64.8002 52.1285Z" fill="#204360"/>
<path d="M39.3343 44.3775L41.7128 42.9456L44.547 44.1822L46.0144 43.6911L47.4817 43.3953L47.8426 41.1824L51.1324 41.0522L52.0436 43.1054C52.0436 43.1054 53.0731 43.2119 53.4104 43.271C53.8482 43.348 55.2327 43.632 55.2327 43.632L57.7415 42.0699L60.475 43.1764L58.9781 45.1289C58.9781 45.1289 59.7768 45.6969 60.0194 45.9099C60.2029 46.0697 60.7058 46.5963 60.7058 46.5963L64.4511 46.3655L65.3623 48.1879L61.9779 49.1642L61.9128 50.0458L61.8122 50.8919L64.8061 52.1285L63.4393 53.9864L59.6585 53.2704C59.6585 53.2704 59.0372 53.803 58.8124 53.9568C58.558 54.1225 57.7355 54.513 57.7355 54.513L58.6467 56.5661L55.5996 57.5897L53.4518 56.0277C53.4518 56.0277 52.2743 56.0691 51.8424 56.075C51.4815 56.0809 50.4105 55.9448 50.4105 55.9448L48.9136 57.9625L45.6594 57.4063L46.1149 55.2881C46.1149 55.2881 44.9553 55.0396 44.5825 54.8976C44.2807 54.7851 43.4406 54.3118 43.4406 54.3118L39.9556 55.2585L38.0326 53.6314L41.062 52.164C41.062 52.164 40.2928 51.5546 40.1153 51.2824C39.997 51.099 39.8195 50.4659 39.8195 50.4659L36.2339 49.9097L36.4291 47.8921L40.0147 47.7264C40.0147 47.7264 40.6005 46.9099 40.8312 46.62C41.0324 46.3655 41.7779 45.7384 41.7779 45.7384L39.3343 44.3716V44.3775Z" fill="#8D9DAB"/>
<path d="M51.0733 49.2707C54.7831 49.2707 57.9072 50.1996 58.8775 51.4658C59.2503 50.9037 59.4574 50.3002 59.4574 49.6671C59.4574 46.8862 55.5582 44.626 50.7479 44.626C45.9375 44.626 42.0383 46.8803 42.0383 49.6671C42.0383 50.4954 42.3874 51.2765 43.0028 51.9628C43.4524 50.4481 46.896 49.2707 51.0733 49.2707V49.2707Z" fill="#607789"/>
<path d="M58.8835 51.4658C57.6291 53.3592 54.4577 54.7023 50.7479 54.7023C47.3694 54.7023 44.4465 53.59 43.0028 51.9628C43.4407 50.4422 46.8901 49.2648 51.0733 49.2648C54.795 49.2648 57.925 50.1937 58.8835 51.4658V51.4658Z" fill="#E63817"/>
<path d="M58.8835 51.4658C57.6291 53.3592 54.4577 54.7023 50.7479 54.7023C47.3694 54.7023 44.4465 53.59 43.0028 51.9628C43.4407 50.4422 46.8901 49.2648 51.0733 49.2648C54.795 49.2648 57.925 50.1937 58.8835 51.4658V51.4658Z" fill="#98C0F9"/>
<path d="M55.712 57.637L58.5817 56.5897L58.3864 60.7966L55.4221 61.7373L55.712 57.637Z" fill="#204360"/>
<path d="M45.6179 57.4062L48.8426 57.9624L48.5822 62.0332L45.2925 61.6723L45.6179 57.4062Z" fill="#204360"/>
<path d="M50.4047 55.939L48.8426 58.1223L48.5823 62.0333L50.2094 60.0452L50.4047 55.939Z" fill="#8395A4"/>
<path d="M34.3125 26.5938L42.7812 34.1875L92.0944 30.473L81.2844 25L34.3125 26.5938Z" fill="#C3DAFB"/>
<path d="M9.92188 46.8863C10.5076 46.8863 33.4708 33.0114 33.4708 33.0114L27.3173 50.7913L16.5664 52.9391L9.92188 46.8863Z" fill="#86B5F8"/>
<path d="M34.3464 26.562L42.9435 34.2835C42.9435 34.2835 41.772 37.798 38.3521 43.5669C34.5831 49.9216 27.8024 57.5365 24.0867 59.1991C22.3472 59.9801 18.2941 60.1399 16.4659 59.5896C14.892 59.1163 10.407 55.9744 10.407 55.9744L10.1112 46.8862C10.1112 46.8862 13.7264 51.028 18.5131 50.0103C28.187 47.9572 29.9325 39.8512 31.5064 36.236C32.4531 34.0645 34.2458 26.5502 34.3405 26.562H34.3464Z" fill="#267AF2"/>
<path d="M92.0293 30.5381C92.0293 30.5381 90.4318 38.0702 88.5798 39.9162C86.5267 41.9693 86.8876 43.4663 80.243 47.472C78.3319 48.6257 78.8703 48.4482 76.2314 49.8209C76.0598 49.9097 75.8883 49.9984 75.7108 50.0931C75.5096 50.1937 75.3025 50.2943 75.0954 50.4008C74.983 50.46 74.8706 50.5132 74.7581 50.5724C74.7404 50.5783 74.7226 50.5842 74.7049 50.596C73.5807 51.1581 72.4861 51.6315 71.4566 52.022C71.4447 52.022 71.4388 52.0338 71.427 52.0338C71.1785 52.1285 70.93 52.2173 70.6874 52.306C66.2024 53.8976 62.9778 54.016 62.9778 54.016L56.4279 54.8384L36.435 57.353L33.7015 57.6962L24.8499 58.8086H24.844L17.2468 59.7612C18.655 59.5423 27.7196 57.7968 35.7191 47.3714C37.6302 44.8804 41.8726 37.017 42.6536 34.1828L42.8252 34.171H42.8962L81.9766 31.2777L82.379 31.2481L92.0293 30.5381V30.5381Z" fill="#4B91F5"/>
<path d="M53.4163 60.8263H48.0083V65.5183H53.4163V60.8263Z" fill="#629FF6"/>
<path d="M50.73 63.2344C52.1972 63.2344 53.3867 62.1271 53.3867 60.7612C53.3867 59.3953 52.1972 58.288 50.73 58.288C49.2628 58.288 48.0734 59.3953 48.0734 60.7612C48.0734 62.1271 49.2628 63.2344 50.73 63.2344Z" fill="#629FF6"/>
<path d="M50.6649 66.3703C52.1322 66.3703 53.3216 65.9014 53.3216 65.323C53.3216 64.7446 52.1322 64.2758 50.6649 64.2758C49.1977 64.2758 48.0083 64.7446 48.0083 65.323C48.0083 65.9014 49.1977 66.3703 50.6649 66.3703Z" fill="#629FF6"/>
<path d="M63.7507 57.7511H58.3428V62.4431H63.7507V57.7511Z" fill="#629FF6"/>
<path d="M61.0645 60.1592C62.5317 60.1592 63.7211 59.0519 63.7211 57.686C63.7211 56.3201 62.5317 55.2128 61.0645 55.2128C59.5973 55.2128 58.4078 56.3201 58.4078 57.686C58.4078 59.0519 59.5973 60.1592 61.0645 60.1592Z" fill="#629FF6"/>
<path d="M60.9994 63.2951C62.4666 63.2951 63.6561 62.8262 63.6561 62.2478C63.6561 61.6694 62.4666 61.2006 60.9994 61.2006C59.5322 61.2006 58.3428 61.6694 58.3428 62.2478C58.3428 62.8262 59.5322 63.2951 60.9994 63.2951Z" fill="#629FF6"/>
<path d="M90.1834 60.2137H84.7754V64.9058H90.1834V60.2137Z" fill="#629FF6"/>
<path d="M87.4971 62.6219C88.9643 62.6219 90.1537 61.5146 90.1537 60.1486C90.1537 58.7827 88.9643 57.6754 87.4971 57.6754C86.0299 57.6754 84.8405 58.7827 84.8405 60.1486C84.8405 61.5146 86.0299 62.6219 87.4971 62.6219Z" fill="#629FF6"/>
<path d="M87.432 65.7578C88.8993 65.7578 90.0887 65.2889 90.0887 64.7105C90.0887 64.1321 88.8993 63.6632 87.432 63.6632C85.9648 63.6632 84.7754 64.1321 84.7754 64.7105C84.7754 65.2889 85.9648 65.7578 87.432 65.7578Z" fill="#629FF6"/>
<path d="M84.1982 60.8496L84.0044 64.587L82.2949 63.099L84.1982 60.8496Z" fill="#466176"/>
<path d="M89.8248 66.6875L85.9005 67.7118L85.8659 68.8192L85.7188 71.9375L89.4856 71.5253L89.8248 66.6875Z" fill="#466176"/>
<path d="M83.2535 72.5525L83.0597 77.3903L87.2885 78.0755L87.5584 73.3484L83.2535 72.5525Z" fill="#607789"/>
<path d="M76.0486 75.5563L75.7441 80.2488L72.0482 80.401L72.3181 75.5978L74.2214 75.7501L76.0486 75.5563Z" fill="#466176"/>
<path d="M64.1996 73.7291L63.8604 78.567L59.8947 79.6743L60.1646 74.8365L64.1996 73.7291Z" fill="#607789"/>
<path d="M60.0123 69.2719V71.8257L59.9362 73.5768L55.4375 73.3138L55.8597 68.5867L60.0123 69.2719Z" fill="#607789"/>
<path d="M59.4061 62.1562L59.2811 66.3125L60.3928 66.6834L61.1874 66.3438L62.3124 63.7812L59.4061 62.1562Z" fill="#466176"/>
<path d="M78.6438 77.5772L78.2978 82.3805L75.7439 80.2488L76.0484 75.5563L78.6438 77.5772Z" fill="#607789"/>
<path d="M60.0123 69.1198L61.9156 71.1407L59.8947 72.2066L60.0123 69.1198Z" fill="#466176"/>
<path d="M64.3172 73.5768L65.6115 74.2274L67.4386 74.6842L66.795 79.785L63.5559 78.5669L64.0888 73.4661L64.3172 73.5768Z" fill="#466176"/>
<path d="M57.875 73.0625L60.1875 75L59.926 79.6743L57.6074 77.8056L57.875 73.0625Z" fill="#204360"/>
<path d="M80.8517 73.8814L83.2533 72.4003L83.2118 77.425L81.8068 78.304L80.8517 73.8814Z" fill="#466176"/>
<path d="M89.2992 71.2656L87.5897 73.4735L87.2852 78.3528L89.1123 76.2211L89.2992 71.2656Z" fill="#204360"/>
<path d="M59.448 62.2302L62.2303 60.5553L65.5455 62.0018L67.2619 61.4274L68.9784 61.0813L69.4006 58.4928L73.2487 58.3406L74.3145 60.7422C74.3145 60.7422 75.5188 60.8668 75.9133 60.936C76.4255 61.026 78.045 61.3582 78.045 61.3582L80.9796 59.531L84.1771 60.8252L82.4261 63.1092C82.4261 63.1092 83.3604 63.7736 83.6442 64.0228C83.8587 64.2097 84.447 64.8256 84.447 64.8256L88.8281 64.5557L89.8939 66.6874L85.9351 67.8294L85.8589 68.8606L85.7413 69.8504L89.2433 71.2969L87.6446 73.4701L83.222 72.6326C83.222 72.6326 82.4953 73.2555 82.2323 73.4355C81.9347 73.6293 80.9726 74.0861 80.9726 74.0861L82.0385 76.4877L78.7233 77.6712L76.0933 75.6502C76.0933 75.6502 74.5845 75.9063 74.0723 75.9202C73.6501 75.9271 72.3974 75.7679 72.3974 75.7679L70.6464 78.128L66.8398 77.4774L67.3727 74.9997C67.3727 74.9997 66.0161 74.709 65.5801 74.5429C65.2271 74.4114 64.2443 73.8577 64.2443 73.8577L60.1678 74.965L57.9185 73.0617L61.4621 71.3453C61.4621 71.3453 60.5623 70.6324 60.3547 70.3141C60.2163 70.0995 60.0086 69.359 60.0086 69.359L55.8145 68.7084L56.0429 66.3483L60.237 66.1545C60.237 66.1545 60.9222 65.1994 61.1921 64.8602C61.4275 64.5626 62.2995 63.829 62.2995 63.829L59.4411 62.2302H59.448Z" fill="#8D9DAB"/>
<path d="M73.2108 67.7907C77.5504 67.7907 81.2047 68.8773 82.3398 70.3585C82.7758 69.7009 83.018 68.995 83.018 68.2544C83.018 65.0015 78.457 62.3577 72.8302 62.3577C67.2033 62.3577 62.6423 64.9946 62.6423 68.2544C62.6423 69.2234 63.0507 70.137 63.7705 70.9398C64.2965 69.168 68.3246 67.7907 73.2108 67.7907V67.7907Z" fill="#607789"/>
<path d="M82.3467 70.3654C80.8795 72.5802 77.1698 74.1513 72.8302 74.1513C68.8783 74.1513 65.4593 72.8501 63.7705 70.9468C64.2827 69.1681 68.3177 67.7908 73.2109 67.7908C77.5643 67.7908 81.2255 68.8774 82.3467 70.3654Z" fill="#E63817"/>
<path d="M82.3467 70.3654C80.8795 72.5802 77.1698 74.1513 72.8302 74.1513C68.8783 74.1513 65.4593 72.8501 63.7705 70.9468C64.2827 69.1681 68.3177 67.7908 73.2109 67.7908C77.5643 67.7908 81.2255 68.8774 82.3467 70.3654Z" fill="#98C0F9"/>
<path d="M78.644 77.5772L81.9938 76.3591L81.7654 81.2731L78.298 82.3805L78.644 77.5772Z" fill="#204360"/>
<path d="M66.8296 77.3142L70.6016 77.9579L70.2971 82.7196L66.449 82.3043L66.8296 77.3142Z" fill="#204360"/>
<path d="M72.4287 75.5978L70.6015 78.1517L70.297 82.7196L72.2003 80.401L72.4287 75.5978Z" fill="#8395A4"/>
<path d="M61.2029 49.2589L61.8241 49.1287L62.4454 48.9985L61.8241 49.1287L61.2029 49.2589Z" fill="#E63817"/>
<path d="M67.1996 38.545C68.7412 37.5652 69.5576 36.089 69.0229 35.2478C68.4883 34.4067 66.8052 34.5191 65.2635 35.499C63.7219 36.4789 62.9056 37.9551 63.4402 38.7962C63.9748 39.6374 65.658 39.5249 67.1996 38.545Z" fill="#267AF2"/>
<path d="M68.5161 34.8989C68.8296 35.532 67.2617 36.9757 66.3268 37.5201C65.6701 37.9046 63.759 38.9756 63.2679 38.3957C62.7353 37.7686 64.4335 36.0704 65.0725 35.5557C65.676 35.0705 68.1729 34.2066 68.5161 34.8989Z" fill="#0E6CF3"/>
<path d="M84.0762 37.4654C85.6178 36.4856 86.4342 35.0094 85.8995 34.1682C85.3649 33.3271 83.6818 33.4396 82.1401 34.4194C80.5985 35.3993 79.7822 36.8755 80.3168 37.7166C80.8514 38.5578 82.5346 38.4453 84.0762 37.4654Z" fill="#267AF2"/>
<path d="M85.3847 33.816C85.6983 34.4491 84.1304 35.8928 83.1955 36.4372C82.5387 36.8218 80.6276 37.8927 80.1365 37.3129C79.604 36.6857 81.3021 34.9876 81.9411 34.4728C82.5447 33.9876 85.0415 33.1238 85.3847 33.816V33.816Z" fill="#0E6CF3"/>
<path d="M80.4894 45.7117C82.031 44.7318 82.8474 43.2556 82.3127 42.4145C81.7781 41.5733 80.095 41.6858 78.5533 42.6656C77.0117 43.6455 76.1954 45.1217 76.73 45.9628C77.2646 46.804 78.9478 46.6915 80.4894 45.7117Z" fill="#267AF2"/>
<path d="M81.7991 42.0641C82.1127 42.6972 80.5448 44.1409 79.6099 44.6852C78.9532 45.0698 77.042 46.1407 76.5509 45.5609C76.0184 44.9337 77.7166 43.2356 78.3556 42.7208C78.9591 42.2357 81.456 41.3718 81.7991 42.0641V42.0641Z" fill="#0E6CF3"/>
<path d="M75.7109 50.0933C75.5097 50.1939 75.3026 50.2944 75.0955 50.4009C74.9831 50.4601 74.8707 50.5134 74.7583 50.5725C74.7405 50.5785 74.7228 50.5844 74.705 50.5962C73.5808 51.1583 72.4862 51.6316 71.4567 52.0222C71.4449 52.0222 71.439 52.034 71.4271 52.034C71.1786 52.1287 70.9301 52.2174 70.6875 52.3062C70.5337 52.2174 70.4094 52.0991 70.3207 51.9571C70.2497 51.8446 70.2023 51.7204 70.1787 51.5902C70.084 51.1228 70.2793 50.5489 70.6875 49.9868C70.7171 49.9454 70.7467 49.9099 70.7822 49.8684C70.9124 49.6968 71.0662 49.5312 71.2378 49.3655C71.2615 49.3418 71.291 49.3123 71.3147 49.2945C71.5573 49.0697 71.8295 48.8567 72.1371 48.6614C73.2968 47.9218 74.5335 47.6792 75.3026 47.9573C75.5571 48.0461 75.7641 48.1999 75.8943 48.407C76.1783 48.8507 76.0837 49.4661 75.7109 50.0933V50.0933Z" fill="#267AF2"/>
<path d="M75.3854 48.0578C75.699 48.6909 74.1311 50.1346 73.1962 50.679C72.5395 51.0636 70.6283 52.1345 70.1372 51.5547C69.6047 50.9275 71.3029 49.2294 71.9419 48.7146C72.5454 48.2294 75.0423 47.3656 75.3854 48.0578V48.0578Z" fill="#0E6CF3"/>
<path d="M50.2689 40.2399C51.8106 39.26 52.6269 37.7838 52.0923 36.9427C51.5576 36.1015 49.8745 36.214 48.3329 37.1938C46.7912 38.1737 45.9749 39.6499 46.5095 40.491C47.0442 41.3322 48.7273 41.2197 50.2689 40.2399Z" fill="#267AF2"/>
<path d="M51.5761 36.591C51.8897 37.2241 50.3218 38.6678 49.3869 39.2122C48.7301 39.5968 46.819 40.6677 46.3279 40.0879C45.7954 39.4607 47.4935 37.7626 48.1325 37.2478C48.7361 36.7626 51.2329 35.8988 51.5761 36.591Z" fill="#0E6CF3"/>
<path d="M44.2745 48.5797C45.8162 47.5999 46.6325 46.1236 46.0979 45.2825C45.5633 44.4414 43.8801 44.5538 42.3385 45.5337C40.7969 46.5135 39.9805 47.9897 40.5151 48.8309C41.0498 49.672 42.7329 49.5596 44.2745 48.5797Z" fill="#267AF2"/>
<path d="M45.5825 44.9278C45.8961 45.5609 44.3281 47.0046 43.3932 47.549C42.7365 47.9336 40.8254 49.0045 40.3343 48.4247C39.8018 47.7975 41.4999 46.0994 42.1389 45.5846C42.7424 45.0994 45.2393 44.2356 45.5825 44.9278V44.9278Z" fill="#0E6CF3"/>
<path d="M36.9793 57.0472C38.5209 56.0674 39.3372 54.5912 38.8026 53.75C38.268 52.9089 36.5848 53.0213 35.0432 54.0012C33.5016 54.9811 32.6852 56.4573 33.2199 57.2984C33.7545 58.1396 35.4376 58.0271 36.9793 57.0472Z" fill="#267AF2"/>
<path d="M38.2871 53.4007C38.6006 54.0338 37.0327 55.4775 36.0978 56.0219C35.4411 56.4065 33.5299 57.4774 33.0389 56.8976C32.5063 56.2704 34.2045 54.5723 34.8435 54.0575C35.447 53.5723 37.9439 52.7085 38.2871 53.4007V53.4007Z" fill="#0E6CF3"/>
<path d="M76.9239 45.9396L73.2732 46.2059L73.427 45.626L73.4152 45.1349L77.4268 43.4309L76.9239 45.9396Z" fill="#267AF2"/>
<path d="M71.4626 44.1114L72.1135 41.5731L76.3618 40.3306L75.7997 42.792L71.4626 44.1114Z" fill="#267AF2"/>
<path d="M64.9601 43.999L65.4748 41.5613L61.8952 42.2476L61.3271 44.7564L63.2087 44.2771L64.9601 43.999Z" fill="#0E6CF3"/>
<path d="M53.085 47.4307L53.5879 44.922L49.9136 45.1528L49.3337 47.6792L53.085 47.4307Z" fill="#267AF2"/>
<path d="M48.2214 50.679L48.6652 49.3181L48.8959 48.401L44.4642 49.4719L44.05 51.9097L48.2214 50.679Z" fill="#267AF2"/>
<path d="M46.4523 54.6314L46.8309 52.4126L48.1445 51.9866L47.8427 52.3889L49.4521 53.1818L46.4523 54.6314Z" fill="#267AF2"/>
<path d="M67.8356 42.3836L68.3327 39.8986L65.4748 41.5612L64.9601 43.9989L67.8356 42.3836Z" fill="#267AF2"/>
<path d="M48.1978 50.7618L50.4047 49.2885L48.6178 49.1406L48.1978 50.7618Z" fill="#267AF2"/>
<path d="M53.1679 47.4899L54.5465 46.8746L56.4103 46.2533L56.6588 43.6617L53.2921 44.9871L52.9253 47.5964L53.1679 47.4899Z" fill="#0E6CF3"/>
<path d="M46.7954 49.2235L49.3101 47.762L49.9136 45.1527L47.322 46.6319L46.7954 49.2235Z" fill="#0E6CF3"/>
<path d="M69.3503 43.8983L71.439 44.1942L72.2732 41.5198L71.0485 41.3423L69.3503 43.8983Z" fill="#267AF2"/>
<path d="M77.0894 43.6144L75.7996 42.792L76.3498 40.2537L77.7639 41.0169L77.0894 43.6144Z" fill="#0E6CF3"/>
<path d="M46.4523 54.6315L48.8722 54.951L52.3572 53.4895L53.9311 53.4363L55.5464 53.2647L55.505 54.5605L59.2326 53.8445L60.6881 52.3417C60.6881 52.3417 61.8833 52.0281 62.2797 51.9098C62.7945 51.7559 64.4334 51.2412 64.4334 51.2412L66.9777 51.608L70.3266 50.2531L69.013 49.3951C69.013 49.3951 70.0366 48.8449 70.3621 48.6555C70.6047 48.5135 71.2792 48.0638 71.2792 48.0638L75.5097 47.2946L76.9179 45.9338L73.2495 46.1468L73.356 45.6143L73.4151 45.1113L77.0836 43.6144L75.9002 42.786L71.4448 44.1469C71.4448 44.1469 70.8472 43.9635 70.6165 43.928C70.3621 43.8866 69.5041 43.8452 69.5041 43.8452L70.9597 42.3423L67.9303 42.4015L65.0133 44.0227C65.0133 44.0227 63.5873 44.2002 63.0903 44.3007C62.6821 44.3836 61.4277 44.7268 61.4277 44.7268L60.126 43.8274L56.2978 44.9634L56.3866 46.1764C56.3866 46.1764 55.008 46.6142 54.5583 46.7917C54.1914 46.9337 53.1383 47.4367 53.1383 47.4367L49.3515 47.6911L46.8309 49.1762L49.9905 49.3537C49.9905 49.3537 48.9906 49.9217 48.7362 50.1288C48.5646 50.2708 48.2391 50.7086 48.2391 50.7086L44.0382 51.9216L43.8489 53.1345L47.9019 52.3653C47.9019 52.3653 48.4048 52.7322 48.606 52.8564C48.7835 52.9689 49.5053 53.1759 49.5053 53.1759L46.4404 54.6197L46.4523 54.6315Z" fill="#4B91F5"/>
<path d="M70.5396 45.7977C69.1729 46.8213 65.4216 48.1585 61.1852 49.0578C56.4103 50.0696 52.7242 50.1702 52.5171 49.3359C51.6769 49.9158 51.1207 50.4838 50.9491 51.0045C50.387 52.744 54.3809 53.2055 59.8717 52.034C65.3624 50.8624 70.2734 48.5135 70.8355 46.7739C70.9657 46.3775 70.8473 46.0521 70.5337 45.7917L70.5396 45.7977Z" fill="#86B5F8"/>
<path d="M70.5455 45.7977C69.4983 44.922 66.1493 44.851 61.9188 45.7504C58.0611 46.5728 54.5051 47.9751 52.5229 49.336C52.7123 50.1761 56.4103 50.0756 61.1851 49.0638C65.4334 48.1585 69.1906 46.8213 70.5455 45.7977V45.7977Z" fill="#E63817"/>
<path d="M70.5455 45.7977C69.4983 44.922 66.1493 44.851 61.9188 45.7504C58.0611 46.5728 54.5051 47.9751 52.5229 49.336C52.7123 50.1761 56.4103 50.0756 61.1851 49.0638C65.4334 48.1585 69.1906 46.8213 70.5455 45.7977V45.7977Z" fill="#98C0F9"/>
<path d="M68.8001 50.8979C68.8001 50.8979 71.2082 46.7207 71.1076 46.1172C71.0248 45.632 70.013 45.3835 69.5456 45.2237C68.4451 44.8569 66.0488 44.9871 64.895 45.1468C63.8122 45.2947 61.6585 45.6912 60.5994 45.9633C59.6113 46.2178 57.641 46.7917 56.6943 47.1704C55.6411 47.5905 53.5407 48.4898 52.594 49.1111C52.1384 49.4128 51.0438 50.1583 50.7598 50.6258C50.6178 50.8565 50.3515 51.3417 50.4462 51.5961C50.7006 52.2766 54.3513 53.9274 54.3513 53.9274L68.8119 50.8979H68.8001Z" fill="#267AF2"/>
<path d="M62.0976 53.996C66.0717 53.0661 69.0157 51.1258 68.6732 49.6621C68.3307 48.1985 64.8314 47.7658 60.8573 48.6958C56.8833 49.6257 53.9393 51.566 54.2817 53.0297C54.6242 54.4933 58.1235 54.926 62.0976 53.996Z" fill="#0E6CF3"/>
<path d="M67.8356 42.3837L70.8946 42.3422L71.5277 39.7684L68.3326 39.8986L67.8356 42.3837Z" fill="#0E6CF3"/>
<path d="M56.2682 44.9752L60.0609 43.851L60.5875 41.3718L56.7652 42.3954L56.2682 44.9752Z" fill="#0E6CF3"/>
<path d="M61.4336 44.7326L60.0964 43.7504L60.5875 41.3718L62.0431 42.2179L61.4336 44.7326Z" fill="#267AF2"/>
<path d="M70.297 50.2648L70.7585 48.3123L68.8237 49.4601L70.297 50.2648Z" fill="#267AF2"/>
<path d="M76.4814 82.3845H71.0735V87.0765H76.4814V82.3845Z" fill="#629FF6"/>
<path d="M73.7952 84.7926C75.2624 84.7926 76.4518 83.6853 76.4518 82.3194C76.4518 80.9535 75.2624 79.8462 73.7952 79.8462C72.328 79.8462 71.1385 80.9535 71.1385 82.3194C71.1385 83.6853 72.328 84.7926 73.7952 84.7926Z" fill="#629FF6"/>
<path d="M73.7301 87.9285C75.1974 87.9285 76.3868 87.4597 76.3868 86.8813C76.3868 86.3029 75.1974 85.834 73.7301 85.834C72.2629 85.834 71.0735 86.3029 71.0735 86.8813C71.0735 87.4597 72.2629 87.9285 73.7301 87.9285Z" fill="#629FF6"/>
<path d="M87.8142 75.9873H82.4062V80.6793H87.8142V75.9873Z" fill="#629FF6"/>
<path d="M85.1221 78.3954C86.5893 78.3954 87.7787 77.2881 87.7787 75.9222C87.7787 74.5563 86.5893 73.449 85.1221 73.449C83.6549 73.449 82.4655 74.5563 82.4655 75.9222C82.4655 77.2881 83.6549 78.3954 85.1221 78.3954Z" fill="#629FF6"/>
<path d="M85.057 81.5313C86.5243 81.5313 87.7137 81.0624 87.7137 80.484C87.7137 79.9056 86.5243 79.4368 85.057 79.4368C83.5898 79.4368 82.4004 79.9056 82.4004 80.484C82.4004 81.0624 83.5898 81.5313 85.057 81.5313Z" fill="#629FF6"/>
<path d="M53.2017 70.2915H47.7937V74.9835H53.2017V70.2915Z" fill="#629FF6"/>
<path d="M50.5154 72.6996C51.9826 72.6996 53.1721 71.5923 53.1721 70.2264C53.1721 68.8605 51.9826 67.7532 50.5154 67.7532C49.0482 67.7532 47.8588 68.8605 47.8588 70.2264C47.8588 71.5923 49.0482 72.6996 50.5154 72.6996Z" fill="#629FF6"/>
<path d="M50.4503 75.8355C51.9176 75.8355 53.107 75.3666 53.107 74.7882C53.107 74.2098 51.9176 73.741 50.4503 73.741C48.9831 73.741 47.7937 74.2098 47.7937 74.7882C47.7937 75.3666 48.9831 75.8355 50.4503 75.8355Z" fill="#629FF6"/>
<path d="M65.843 78.3756H60.4351V83.0676H65.843V78.3756Z" fill="#629FF6"/>
<path d="M63.1509 80.7837C64.6181 80.7837 65.8075 79.6764 65.8075 78.3105C65.8075 76.9446 64.6181 75.8373 63.1509 75.8373C61.6837 75.8373 60.4943 76.9446 60.4943 78.3105C60.4943 79.6764 61.6837 80.7837 63.1509 80.7837Z" fill="#629FF6"/>
<path d="M63.0858 83.9256C64.5531 83.9256 65.7425 83.4567 65.7425 82.8783C65.7425 82.2999 64.5531 81.8311 63.0858 81.8311C61.6186 81.8311 60.4292 82.2999 60.4292 82.8783C60.4292 83.4567 61.6186 83.9256 63.0858 83.9256Z" fill="#629FF6"/>
</svg>
