<?xml version="1.0" encoding="UTF-8"?><svg id="fused_depositon_modeling" xmlns="http://www.w3.org/2000/svg" viewBox="0 0 118 118"><defs><style>.cls-1{fill:none;}.cls-2{fill:#e5e8eb;}.cls-3{fill:#c1d9fc;}.cls-4{fill:#c0c9d0;}.cls-5{fill:#214460;}.cls-6{fill:#476175;}.cls-7{fill:#267af1;}.cls-8{fill:#83b3f9;}.cls-9{fill:#8394a2;}</style></defs><path class="cls-3" d="M63.17,69.42l-10.28,5.93-19.46-11.3,21.31-12.29,31.28,18.18-11.25,6.11-11.6-6.63Z"/><path class="cls-8" d="M86.1,94.35l-21.19,12.24-.02-15.68,9.88-6.57v-8.27l11.33-6.18v24.46Z"/><path class="cls-7" d="M64.89,106.51l-31.46-17.99v-24.47l19.6,11.38-.14,8.89,12,6.59v15.6Z"/><path class="cls-8" d="M52.89,84.32l10.26-5.85v-9.02s-10.23,5.9-10.23,5.9l-.03,8.97Z"/><path class="cls-3" d="M63.14,78.49l11.63,5.87-9.88,6.55-11.97-6.59,10.22-5.83Z"/><path class="cls-7" d="M63.15,69.38l11.64,6.67-.04,8.29-11.59-5.86v-9.1Z"/><path class="cls-5" d="M59.56,31.66l-.03,9.21,5.44-9.3-5.41,.09Z"/><path class="cls-6" d="M67.76,47.38c.23,0,.42-.22,.42-.5s-.19-.5-.42-.5-.42,.22-.42,.5,.19,.5,.42,.5Z"/><path class="cls-6" d="M51.44,43.67c0,.27-.15,.5-.28,.5s-.34-.24-.34-.51,.2-.48,.33-.48,.29,.22,.29,.49h0Z"/><path class="cls-4" d="M63.9,35.84c6.19,0,11.2-1.76,11.2-3.94s-5.01-3.94-11.2-3.94-11.2,1.76-11.2,3.94,5.01,3.94,11.2,3.94h0Z"/><path class="cls-4" d="M75.09,24.71h-22.38v6.96h22.38v-6.96Z"/><path class="cls-9" d="M63.43,36.3c-2.01,3.97-9.07,11.31-3.93,16.29,.65-1.51,8.35-12.58,7.32-15.1,0-.9-.59-1.13-.59-1.13l-2.8-.05h0Z"/><path class="cls-5" d="M66.53,40.45s-6.53,10.59-8.57,15.2c-.47,1.07-.24,11.5-.24,11.5,8.63-13.33,9.28-10.01,8.81-26.7Z"/><path class="cls-9" d="M65.42,55.44c.86-.05,1.41,3.17,1.31,3.82,.77,4.55-5.73,10.65-7.25,14.76-1.25-.91-2.63-4.75-1.74-6.81,.48-1.07,7.68-11.77,7.68-11.77h0Z"/><path class="cls-9" d="M64.87,76.94c1.78,.84,1.81,4.19,1.73,5.96,0,0-.3,.85-2.86,.94-.63,.02-2.53-.3-2.53-.3,.29-.27,3.42-5.89,3.68-6.6h-.02Z"/><path class="cls-5" d="M66.59,62.24v10.53c0,1.34-2.01,4.73-2.86,6.36-2.58,5.23-1.78,5.03-4.48,4.63-.44-.06-1.13-.36-1.6-.77,0,0-.05-4.79,.23-6.21,1.51-3.94,7.16-11.81,8.61-14.77l.1,.23h0Z"/><path class="cls-4" d="M77.66,38.09h-29.01v12.31h29.01v-12.31h0Z"/><path class="cls-9" d="M63.15,44.29c8.04,0,14.55-2.55,14.55-5.69s-6.51-5.69-14.55-5.69-14.55,2.55-14.55,5.69,6.51,5.69,14.55,5.69h0Z"/><path class="cls-4" d="M63.15,55.84c8.01,0,14.5-2.49,14.5-5.56s-6.49-5.56-14.5-5.56-14.5,2.49-14.5,5.56,6.49,5.56,14.5,5.56Z"/><path class="cls-6" d="M67.11,52.17v-1c8.41,0,14.05-2.68,14.05-5.19,0-1.11-1.67-2.56-3.51-3.03l-.06-1.01c2.11,.85,4.57,2.3,4.57,4.04,0,3.47-6.61,6.19-15.05,6.19h0Z"/><path class="cls-6" d="M50.51,47.97c-3.07-.99-4.87-2.44-4.87-3.84,0-1,1.35-2.1,3-2.97v-.85c-2.24,.88-3.98,2.42-3.98,3.82,0,2.01,2.28,3.76,5.85,4.85"/><path class="cls-6" d="M63.24,40.63c6.19,0,11.2-1.76,11.2-3.94s-5.01-3.94-11.2-3.94-11.2,1.76-11.2,3.94,5.01,3.94,11.2,3.94Z"/><path class="cls-6" d="M74.43,29.5h-22.38v6.96h22.38v-6.96Z"/><path class="cls-4" d="M63.09,35.9c7.98,0,14.45-2.65,14.45-5.92s-6.46-5.92-14.45-5.92-14.45,2.65-14.45,5.92,6.46,5.92,14.45,5.92h0Z"/><path class="cls-4" d="M77.52,16.99h-28.88v13.4h28.88v-13.4Z"/><path class="cls-2" d="M63.08,23.01c7.98,0,14.44-2.65,14.44-5.92s-6.46-5.92-14.44-5.92-14.44,2.65-14.44,5.92,6.46,5.92,14.44,5.92Z"/><rect class="cls-1" x="33.77" y="10.82" width="52" height="96"/></svg>