<?xml version="1.0" encoding="UTF-8"?>
<svg xmlns="http://www.w3.org/2000/svg" xmlns:xlink="http://www.w3.org/1999/xlink" width="125px" height="125px" viewBox="0 0 125 125" version="1.1">
<g id="surface1">
<path style=" stroke:none;fill-rule:nonzero;fill:rgb(81.960784%,82.745098%,83.137255%);fill-opacity:1;" d="M 102.695312 100.882812 L 22.304688 100.882812 C 22.21875 100.882812 22.148438 100.789062 22.148438 100.675781 C 22.148438 100.558594 22.21875 100.464844 22.304688 100.464844 L 102.695312 100.464844 C 102.78125 100.464844 102.851562 100.558594 102.851562 100.675781 C 102.851562 100.789062 102.78125 100.882812 102.695312 100.882812 Z M 102.695312 100.882812 "/>
<path style=" stroke:none;fill-rule:nonzero;fill:rgb(100%,100%,100%);fill-opacity:1;" d="M 78.019531 64.339844 L 95.964844 64.339844 L 95.964844 105.425781 L 78.019531 105.425781 Z M 78.019531 64.339844 "/>
<path style=" stroke:none;fill-rule:nonzero;fill:rgb(13.72549%,12.156863%,12.54902%);fill-opacity:1;" d="M 95.964844 105.632812 L 78.019531 105.632812 C 77.933594 105.632812 77.863281 105.539062 77.863281 105.425781 L 77.863281 64.339844 C 77.863281 64.226562 77.933594 64.132812 78.019531 64.132812 L 95.964844 64.132812 C 96.050781 64.132812 96.121094 64.226562 96.121094 64.339844 L 96.121094 105.417969 C 96.125 105.472656 96.109375 105.527344 96.078125 105.570312 C 96.050781 105.609375 96.007812 105.632812 95.964844 105.632812 Z M 78.175781 105.214844 L 95.808594 105.214844 L 95.808594 64.550781 L 78.175781 64.550781 Z M 78.175781 105.214844 "/>
<path style=" stroke:none;fill-rule:nonzero;fill:rgb(100%,100%,100%);fill-opacity:1;" d="M 28.574219 64.339844 L 46.523438 64.339844 L 46.523438 105.425781 L 28.574219 105.425781 Z M 28.574219 64.339844 "/>
<path style=" stroke:none;fill-rule:nonzero;fill:rgb(13.72549%,12.156863%,12.54902%);fill-opacity:1;" d="M 46.523438 105.632812 L 28.574219 105.632812 C 28.488281 105.632812 28.417969 105.539062 28.417969 105.425781 L 28.417969 64.339844 C 28.417969 64.226562 28.488281 64.132812 28.574219 64.132812 L 46.523438 64.132812 C 46.609375 64.132812 46.679688 64.226562 46.679688 64.339844 L 46.679688 105.417969 C 46.679688 105.472656 46.664062 105.527344 46.632812 105.570312 C 46.605469 105.609375 46.5625 105.632812 46.523438 105.632812 Z M 28.730469 105.214844 L 46.367188 105.214844 L 46.367188 64.550781 L 28.730469 64.550781 Z M 28.730469 105.214844 "/>
<path style=" stroke:none;fill-rule:nonzero;fill:rgb(13.72549%,12.156863%,12.54902%);fill-opacity:1;" d="M 81.359375 52.429688 L 84.914062 61.941406 L 75.304688 61.941406 Z M 81.359375 52.429688 "/>
<path style=" stroke:none;fill-rule:nonzero;fill:rgb(13.72549%,12.156863%,12.54902%);fill-opacity:1;" d="M 84.914062 62.148438 L 75.3125 62.148438 C 75.25 62.148438 75.195312 62.101562 75.167969 62.027344 C 75.144531 61.957031 75.152344 61.867188 75.195312 61.808594 L 81.25 52.296875 C 81.28125 52.242188 81.335938 52.214844 81.386719 52.226562 C 81.441406 52.234375 81.484375 52.273438 81.507812 52.335938 L 85.058594 61.851562 C 85.085938 61.910156 85.085938 61.988281 85.058594 62.050781 C 85.027344 62.117188 84.972656 62.15625 84.914062 62.148438 Z M 75.640625 61.734375 L 84.660156 61.734375 L 81.324219 52.808594 Z M 75.640625 61.734375 "/>
<path style=" stroke:none;fill-rule:nonzero;fill:rgb(13.72549%,12.156863%,12.54902%);fill-opacity:1;" d="M 54.070312 61.941406 L 76.945312 61.941406 L 85.246094 45.726562 L 63.648438 45.726562 Z M 54.070312 61.941406 "/>
<path style=" stroke:none;fill-rule:nonzero;fill:rgb(13.72549%,12.156863%,12.54902%);fill-opacity:1;" d="M 76.945312 62.148438 L 54.0625 62.148438 C 54.003906 62.148438 53.949219 62.105469 53.921875 62.03125 C 53.898438 61.960938 53.902344 61.875 53.941406 61.8125 L 63.523438 45.597656 C 63.550781 45.546875 63.597656 45.515625 63.644531 45.515625 L 85.242188 45.515625 C 85.296875 45.519531 85.351562 45.5625 85.378906 45.628906 C 85.410156 45.695312 85.410156 45.78125 85.378906 45.847656 L 77.078125 62.058594 C 77.050781 62.117188 77 62.152344 76.945312 62.148438 Z M 54.390625 61.734375 L 76.875 61.734375 L 84.960938 45.933594 L 63.726562 45.933594 Z M 54.390625 61.734375 "/>
<path style=" stroke:none;fill-rule:nonzero;fill:rgb(100%,100%,100%);fill-opacity:1;" d="M 64.335938 47.300781 L 57.5 59.113281 L 74.476562 59.113281 L 80.902344 47.300781 Z M 64.335938 47.300781 "/>
<path style=" stroke:none;fill-rule:nonzero;fill:rgb(13.72549%,12.156863%,12.54902%);fill-opacity:1;" d="M 74.476562 59.320312 L 57.5 59.320312 C 57.441406 59.320312 57.386719 59.277344 57.359375 59.203125 C 57.328125 59.136719 57.328125 59.050781 57.359375 58.984375 L 64.199219 47.171875 C 64.230469 47.121094 64.273438 47.089844 64.320312 47.089844 L 80.882812 47.089844 C 80.941406 47.089844 80.996094 47.132812 81.023438 47.203125 C 81.054688 47.269531 81.054688 47.355469 81.023438 47.421875 L 74.597656 59.234375 C 74.570312 59.285156 74.527344 59.316406 74.476562 59.320312 Z M 57.820312 58.902344 L 74.382812 58.902344 L 80.597656 47.5 L 64.414062 47.5 Z M 57.820312 58.902344 "/>
<path style=" stroke:none;fill-rule:nonzero;fill:rgb(81.960784%,82.745098%,83.137255%);fill-opacity:1;" d="M 69.199219 56.960938 C 69.132812 56.960938 69.074219 56.90625 69.054688 56.820312 C 68.230469 53.589844 67.085938 50.050781 66.671875 49.964844 C 66.175781 49.964844 62.988281 53.480469 60.15625 56.914062 C 60.09375 56.992188 59.992188 56.984375 59.933594 56.898438 C 59.875 56.816406 59.878906 56.683594 59.945312 56.605469 C 60.925781 55.417969 65.804688 49.554688 66.699219 49.554688 L 66.734375 49.554688 C 67.535156 49.714844 68.949219 55.054688 69.367188 56.6875 C 69.378906 56.738281 69.375 56.796875 69.359375 56.847656 C 69.339844 56.898438 69.304688 56.933594 69.265625 56.949219 C 69.246094 56.960938 69.222656 56.964844 69.199219 56.960938 Z M 69.199219 56.960938 "/>
<path style=" stroke:none;fill-rule:nonzero;fill:rgb(81.960784%,82.745098%,83.137255%);fill-opacity:1;" d="M 74.300781 57.394531 C 74.230469 57.394531 74.167969 57.332031 74.148438 57.242188 C 73.601562 54.636719 72.816406 51.859375 72.445312 51.710938 C 72.078125 51.566406 70.367188 53.628906 68.972656 55.613281 C 68.914062 55.695312 68.8125 55.699219 68.75 55.621094 C 68.6875 55.542969 68.683594 55.410156 68.742188 55.324219 C 69.457031 54.3125 71.832031 51.035156 72.539062 51.316406 C 73.242188 51.601562 74.257812 56.207031 74.449219 57.148438 C 74.472656 57.261719 74.425781 57.375 74.34375 57.410156 Z M 74.300781 57.394531 "/>
<path style=" stroke:none;fill-rule:nonzero;fill:rgb(65.490196%,66.27451%,67.45098%);fill-opacity:1;" d="M 79.320312 53.75 C 78.9375 53.75 78.632812 53.503906 78.632812 53.191406 C 78.632812 52.878906 78.945312 52.636719 79.320312 52.636719 C 79.695312 52.636719 80.007812 52.878906 80.007812 53.191406 C 80.007812 53.503906 79.707031 53.75 79.320312 53.75 Z M 79.320312 52.742188 C 78.992188 52.742188 78.695312 52.945312 78.695312 53.191406 C 78.695312 53.4375 78.976562 53.644531 79.320312 53.644531 C 79.667969 53.644531 79.929688 53.4375 79.929688 53.191406 C 79.929688 52.945312 79.652344 52.753906 79.320312 52.753906 Z M 79.320312 52.742188 "/>
<path style=" stroke:none;fill-rule:nonzero;fill:rgb(65.490196%,66.27451%,67.45098%);fill-opacity:1;" d="M 82.054688 49.023438 L 80.664062 49.023438 C 80.644531 49.023438 80.628906 49 80.628906 48.976562 C 80.628906 48.945312 80.644531 48.921875 80.664062 48.921875 L 82.054688 48.921875 C 82.0625 48.921875 82.074219 48.925781 82.082031 48.9375 C 82.089844 48.945312 82.089844 48.960938 82.089844 48.976562 C 82.089844 49.003906 82.074219 49.023438 82.054688 49.023438 Z M 82.054688 49.023438 "/>
<path style=" stroke:none;fill-rule:nonzero;fill:rgb(100%,100%,100%);fill-opacity:1;" d="M 76.945312 62.148438 C 76.914062 62.148438 76.878906 62.136719 76.851562 62.113281 C 76.785156 62.042969 76.769531 61.914062 76.820312 61.820312 L 81.25 53.710938 C 81.273438 53.667969 81.3125 53.636719 81.351562 53.628906 C 81.394531 53.621094 81.433594 53.632812 81.46875 53.667969 C 81.539062 53.734375 81.550781 53.863281 81.503906 53.957031 L 77.070312 62.082031 C 77.039062 62.128906 76.992188 62.152344 76.945312 62.148438 Z M 76.945312 62.148438 "/>
<path style=" stroke:none;fill-rule:nonzero;fill:rgb(81.960784%,82.745098%,83.137255%);fill-opacity:1;" d="M 69.199219 50.308594 C 68.820312 50.308594 68.511719 49.898438 68.511719 49.390625 C 68.511719 48.886719 68.820312 48.476562 69.199219 48.476562 C 69.578125 48.476562 69.886719 48.886719 69.886719 49.390625 C 69.886719 49.898438 69.578125 50.308594 69.199219 50.308594 Z M 69.199219 48.890625 C 68.992188 48.890625 68.824219 49.117188 68.824219 49.390625 C 68.824219 49.667969 68.992188 49.890625 69.199219 49.890625 C 69.40625 49.890625 69.574219 49.667969 69.574219 49.390625 C 69.574219 49.257812 69.535156 49.132812 69.464844 49.035156 C 69.394531 48.941406 69.300781 48.890625 69.199219 48.890625 Z M 69.199219 48.890625 "/>
<path style=" stroke:none;fill-rule:nonzero;fill:rgb(100%,100%,100%);fill-opacity:1;" d="M 26.191406 62.296875 L 96.726562 62.296875 L 96.726562 66.285156 L 26.191406 66.285156 Z M 26.191406 62.296875 "/>
<path style=" stroke:none;fill-rule:nonzero;fill:rgb(13.72549%,12.156863%,12.54902%);fill-opacity:1;" d="M 96.730469 66.492188 L 26.191406 66.492188 C 26.105469 66.492188 26.035156 66.398438 26.035156 66.285156 L 26.035156 62.296875 C 26.035156 62.183594 26.105469 62.089844 26.191406 62.085938 L 96.730469 62.085938 C 96.816406 62.089844 96.886719 62.183594 96.886719 62.296875 L 96.886719 66.285156 C 96.886719 66.398438 96.816406 66.492188 96.730469 66.492188 Z M 26.347656 66.074219 L 96.5625 66.074219 L 96.5625 62.5 L 26.347656 62.5 Z M 26.347656 66.074219 "/>
<path style=" stroke:none;fill-rule:nonzero;fill:rgb(100%,100%,100%);fill-opacity:1;" d="M 52.722656 83.867188 C 52.789062 84.164062 48.839844 103.054688 48.839844 103.054688 L 54.355469 104.238281 L 60.875 78.136719 Z M 52.722656 83.867188 "/>
<path style=" stroke:none;fill-rule:nonzero;fill:rgb(13.72549%,12.156863%,12.54902%);fill-opacity:1;" d="M 54.355469 104.445312 L 54.332031 104.445312 L 48.816406 103.261719 C 48.769531 103.253906 48.730469 103.21875 48.707031 103.171875 C 48.683594 103.117188 48.679688 103.058594 48.6875 103 C 50.226562 95.640625 52.523438 84.511719 52.566406 83.886719 C 52.5625 83.804688 52.59375 83.726562 52.648438 83.6875 L 60.804688 77.957031 C 60.859375 77.921875 60.929688 77.929688 60.976562 77.984375 C 61.023438 78.039062 61.042969 78.128906 61.023438 78.207031 L 54.503906 104.308594 C 54.480469 104.390625 54.421875 104.445312 54.355469 104.445312 Z M 49.042969 102.882812 L 54.257812 104.003906 L 60.613281 78.566406 L 52.863281 84.007812 C 52.691406 85.203125 51.40625 91.542969 49.039062 102.882812 Z M 49.042969 102.882812 "/>
<path style=" stroke:none;fill-rule:nonzero;fill:rgb(13.72549%,12.156863%,12.54902%);fill-opacity:1;" d="M 48.507812 102.238281 L 47.664062 105.761719 L 60.875 107.125 C 60.253906 105.460938 59.183594 104.171875 57.875 103.519531 C 56.503906 102.878906 55.023438 102.113281 55.023438 102.113281 L 54.355469 104.238281 Z M 48.507812 102.238281 "/>
<path style=" stroke:none;fill-rule:nonzero;fill:rgb(13.72549%,12.156863%,12.54902%);fill-opacity:1;" d="M 60.875 107.332031 L 47.664062 105.972656 C 47.617188 105.964844 47.574219 105.933594 47.546875 105.878906 C 47.519531 105.828125 47.511719 105.761719 47.527344 105.699219 L 48.367188 102.175781 C 48.394531 102.070312 48.476562 102.011719 48.554688 102.039062 L 54.273438 103.992188 L 54.898438 102.035156 C 54.914062 101.984375 54.945312 101.941406 54.984375 101.921875 C 55.019531 101.902344 55.0625 101.898438 55.101562 101.921875 C 55.117188 101.921875 56.589844 102.691406 57.945312 103.324219 C 59.296875 103.992188 60.402344 105.320312 61.039062 107.042969 C 61.0625 107.105469 61.0625 107.183594 61.039062 107.246094 C 61.003906 107.320312 60.9375 107.355469 60.875 107.332031 Z M 47.871094 105.574219 L 60.605469 106.890625 C 59.988281 105.429688 59.003906 104.308594 57.824219 103.714844 C 56.710938 103.195312 55.511719 102.585938 55.109375 102.382812 L 54.5 104.316406 C 54.46875 104.414062 54.390625 104.464844 54.316406 104.441406 L 48.609375 102.5 Z M 47.871094 105.574219 "/>
<path style=" stroke:none;fill-rule:nonzero;fill:rgb(13.72549%,12.156863%,12.54902%);fill-opacity:1;" d="M 39.234375 84.117188 L 38.296875 104.015625 C 38.296875 104.015625 35.128906 104.164062 34.335938 104.902344 C 33.539062 105.644531 32.894531 109.003906 32.894531 109.003906 L 33.882812 109.003906 C 33.882812 109.003906 34.457031 106.503906 35.085938 106.203125 C 35.71875 105.902344 39.304688 105.789062 39.304688 105.789062 C 39.304688 105.789062 41.039062 106.679688 41.316406 108.207031 C 41.535156 109.414062 41.472656 109.691406 41.472656 109.691406 L 42.566406 109.691406 C 42.5625 109.007812 42.488281 108.324219 42.347656 107.667969 C 42.128906 106.832031 41.304688 105.835938 41.304688 105.835938 C 41.304688 105.835938 43.117188 105.886719 43.71875 105.886719 C 44.320312 105.886719 44.949219 107.421875 44.949219 107.421875 L 46.128906 107.421875 C 46.128906 107.421875 44.898438 104.652344 44.101562 104.457031 C 43.304688 104.261719 41.257812 103.789062 41.257812 103.789062 L 40.703125 85.246094 Z M 39.234375 84.117188 "/>
<path style=" stroke:none;fill-rule:nonzero;fill:rgb(13.72549%,12.156863%,12.54902%);fill-opacity:1;" d="M 42.578125 109.902344 L 41.484375 109.902344 C 41.433594 109.902344 41.386719 109.871094 41.355469 109.820312 C 41.328125 109.765625 41.320312 109.695312 41.335938 109.632812 C 41.335938 109.167969 41.28125 108.707031 41.175781 108.261719 C 40.941406 106.957031 39.507812 106.121094 39.300781 106.003906 C 38.285156 106.035156 35.652344 106.160156 35.164062 106.421875 C 34.757812 106.621094 34.265625 108.164062 34.054688 109.082031 C 34.03125 109.171875 33.972656 109.230469 33.902344 109.234375 L 32.90625 109.234375 C 32.859375 109.230469 32.8125 109.199219 32.785156 109.148438 C 32.753906 109.097656 32.746094 109.03125 32.757812 108.972656 C 32.78125 108.832031 33.425781 105.527344 34.257812 104.753906 C 34.992188 104.070312 37.523438 103.875 38.164062 103.835938 L 39.082031 84.121094 C 39.085938 84.050781 39.117188 83.984375 39.164062 83.949219 C 39.210938 83.917969 39.265625 83.917969 39.3125 83.949219 L 40.792969 85.085938 C 40.839844 85.121094 40.871094 85.1875 40.871094 85.257812 L 41.425781 103.632812 C 41.882812 103.738281 43.46875 104.105469 44.144531 104.273438 C 44.980469 104.484375 46.148438 107.042969 46.273438 107.332031 C 46.304688 107.398438 46.304688 107.476562 46.273438 107.542969 C 46.246094 107.609375 46.195312 107.648438 46.136719 107.648438 L 44.960938 107.648438 C 44.902344 107.648438 44.851562 107.609375 44.820312 107.542969 C 44.597656 106.992188 44.097656 106.117188 43.726562 106.117188 C 43.304688 106.117188 42.273438 106.089844 41.703125 106.078125 C 42.042969 106.515625 42.316406 107.039062 42.503906 107.617188 C 42.652344 108.292969 42.730469 108.996094 42.730469 109.699219 C 42.730469 109.8125 42.660156 109.902344 42.578125 109.902344 Z M 41.640625 109.488281 L 42.414062 109.488281 C 42.402344 108.894531 42.332031 108.304688 42.207031 107.738281 C 42.003906 106.957031 41.214844 106.007812 41.207031 105.996094 C 41.160156 105.9375 41.144531 105.847656 41.164062 105.765625 C 41.191406 105.6875 41.25 105.636719 41.316406 105.632812 C 41.335938 105.632812 43.128906 105.683594 43.726562 105.683594 C 44.320312 105.683594 44.878906 106.828125 45.046875 107.214844 L 45.851562 107.214844 C 45.433594 106.335938 44.601562 104.796875 44.078125 104.667969 C 43.292969 104.472656 41.265625 104.003906 41.242188 104 C 41.167969 103.984375 41.113281 103.898438 41.109375 103.800781 L 40.5625 85.375 L 39.375 84.460938 L 38.464844 104.046875 C 38.460938 104.152344 38.394531 104.238281 38.316406 104.242188 C 37.445312 104.285156 35.054688 104.511719 34.4375 105.074219 C 33.875 105.601562 33.332031 107.738281 33.109375 108.796875 L 33.777344 108.796875 C 33.921875 108.207031 34.433594 106.296875 35.027344 106.007812 C 35.621094 105.722656 39.152344 105.589844 39.300781 105.589844 L 39.359375 105.589844 C 39.433594 105.628906 41.171875 106.539062 41.464844 108.152344 C 41.558594 108.589844 41.621094 109.035156 41.648438 109.488281 Z M 38.304688 104.015625 Z M 38.304688 104.015625 "/>
<path style=" stroke:none;fill-rule:nonzero;fill:rgb(100%,100%,100%);fill-opacity:1;" d="M 57.304688 71.425781 C 57.304688 71.425781 69.785156 72.3125 70.570312 74.683594 C 71.359375 77.054688 65.570312 103.125 65.570312 103.125 C 65.570312 103.125 71.679688 105.941406 70.679688 106.535156 C 69.679688 107.125 59.679688 105.941406 59.679688 105.941406 L 64.421875 81.773438 L 52.070312 80.667969 Z M 57.304688 71.425781 "/>
<path style=" stroke:none;fill-rule:nonzero;fill:rgb(13.72549%,12.156863%,12.54902%);fill-opacity:1;" d="M 69.109375 106.910156 C 66.179688 106.910156 60.480469 106.246094 59.679688 106.148438 C 59.632812 106.144531 59.589844 106.113281 59.5625 106.0625 C 59.535156 106.011719 59.527344 105.949219 59.539062 105.886719 L 64.226562 81.984375 L 52.066406 80.890625 C 52.007812 80.882812 51.960938 80.835938 51.933594 80.769531 C 51.910156 80.699219 51.917969 80.617188 51.953125 80.558594 L 57.1875 71.300781 C 57.214844 71.242188 57.265625 71.207031 57.320312 71.214844 C 57.351562 71.214844 60.480469 71.441406 63.667969 71.957031 C 70.195312 73.007812 70.59375 74.203125 70.726562 74.601562 C 71.496094 76.929688 66.351562 100.433594 65.78125 102.996094 C 67.441406 103.765625 70.941406 105.496094 70.964844 106.351562 C 70.96875 106.519531 70.886719 106.671875 70.761719 106.726562 C 70.222656 106.890625 69.664062 106.953125 69.109375 106.910156 Z M 59.886719 105.753906 C 62.789062 106.097656 69.855469 106.800781 70.628906 106.339844 C 70.421875 105.835938 67.851562 104.398438 65.523438 103.328125 C 65.441406 103.292969 65.398438 103.175781 65.425781 103.070312 C 67.023438 95.839844 71.050781 76.660156 70.425781 74.769531 C 69.800781 72.882812 60.882812 71.894531 57.375 71.640625 L 52.375 80.503906 L 64.4375 81.589844 C 64.484375 81.59375 64.527344 81.625 64.554688 81.675781 C 64.582031 81.726562 64.589844 81.789062 64.582031 81.851562 Z M 70.65625 106.320312 Z M 70.65625 106.320312 "/>
<path style=" stroke:none;fill-rule:nonzero;fill:rgb(100%,100%,100%);fill-opacity:1;" d="M 53.070312 56.609375 C 53.070312 56.609375 59.480469 67.273438 62.222656 66.980469 C 64.960938 66.683594 72.8125 53.535156 72.8125 53.535156 C 74.230469 51.273438 75.820312 48.410156 74.804688 45.296875 C 74.703125 44.996094 74.527344 44.675781 74.285156 44.699219 C 74.183594 44.722656 74.085938 44.773438 74 44.855469 L 73.125 45.570312 C 73.152344 45.25 72.847656 45.019531 72.613281 45.109375 C 72.382812 45.226562 72.195312 45.449219 72.074219 45.734375 C 71.164062 47.457031 70.578125 49.101562 70.628906 51.226562 L 61.453125 57.476562 L 57.8125 52.105469 "/>
<path style=" stroke:none;fill-rule:nonzero;fill:rgb(13.72549%,12.156863%,12.54902%);fill-opacity:1;" d="M 62.113281 67.191406 C 59.265625 67.191406 53.207031 57.191406 52.945312 56.738281 C 52.902344 56.648438 52.917969 56.527344 52.980469 56.460938 C 53.042969 56.390625 53.136719 56.402344 53.191406 56.480469 C 53.253906 56.582031 59.414062 66.777344 62.101562 66.777344 L 62.210938 66.777344 C 64.851562 66.496094 72.605469 53.542969 72.679688 53.410156 C 74.148438 51.082031 75.625 48.359375 74.652344 45.386719 C 74.617188 45.269531 74.484375 44.898438 74.289062 44.917969 C 74.210938 44.9375 74.140625 44.976562 74.074219 45.042969 L 73.195312 45.753906 C 73.144531 45.796875 73.078125 45.796875 73.027344 45.753906 C 72.976562 45.710938 72.949219 45.632812 72.957031 45.554688 C 72.960938 45.492188 72.9375 45.433594 72.898438 45.398438 C 72.828125 45.324219 72.734375 45.292969 72.644531 45.316406 C 72.453125 45.425781 72.292969 45.617188 72.191406 45.863281 C 71.421875 47.320312 70.71875 48.980469 70.773438 51.230469 C 70.773438 51.308594 70.742188 51.382812 70.6875 51.421875 L 61.511719 57.671875 C 61.449219 57.714844 61.371094 57.695312 61.324219 57.625 L 57.6875 52.246094 C 57.65625 52.207031 57.640625 52.152344 57.640625 52.097656 C 57.640625 52.042969 57.65625 51.988281 57.6875 51.949219 C 57.75 51.871094 57.847656 51.871094 57.910156 51.949219 L 61.464844 57.191406 L 70.449219 51.085938 C 70.421875 48.785156 71.140625 47.085938 71.925781 45.601562 C 72.066406 45.273438 72.285156 45.023438 72.550781 44.890625 C 72.742188 44.828125 72.945312 44.894531 73.097656 45.0625 C 73.140625 45.113281 73.175781 45.167969 73.203125 45.234375 L 73.902344 44.664062 C 74.007812 44.5625 74.132812 44.5 74.257812 44.480469 C 74.53125 44.449219 74.773438 44.714844 74.929688 45.199219 C 76.058594 48.660156 74.015625 51.910156 72.914062 53.652344 C 72.601562 54.1875 65.003906 66.875 62.226562 67.175781 Z M 62.113281 67.191406 "/>
<path style=" stroke:none;fill-rule:nonzero;fill:rgb(100%,100%,100%);fill-opacity:1;" d="M 32.078125 54.789062 C 32.078125 54.789062 28.773438 64.765625 30 65.832031 C 31.226562 66.898438 38.679688 65.832031 38.679688 65.832031 L 38.035156 52.917969 "/>
<path style=" stroke:none;fill-rule:nonzero;fill:rgb(13.72549%,12.156863%,12.54902%);fill-opacity:1;" d="M 32.835938 66.492188 C 31.5 66.492188 30.335938 66.367188 29.910156 65.992188 C 29.695312 65.808594 29.046875 65.246094 30.429688 59.839844 C 31.097656 57.238281 31.925781 54.730469 31.933594 54.703125 C 31.953125 54.628906 32 54.570312 32.0625 54.5625 C 32.121094 54.550781 32.179688 54.582031 32.210938 54.648438 C 32.246094 54.714844 32.25 54.800781 32.21875 54.871094 C 30.96875 58.667969 29.273438 64.945312 30.082031 65.640625 C 31.019531 66.476562 36.332031 65.925781 38.519531 65.640625 L 37.894531 52.929688 C 37.886719 52.8125 37.953125 52.714844 38.039062 52.707031 C 38.125 52.699219 38.199219 52.785156 38.207031 52.898438 L 38.851562 65.816406 C 38.859375 65.929688 38.796875 66.027344 38.710938 66.039062 C 38.492188 66.054688 35.34375 66.492188 32.835938 66.492188 Z M 32.835938 66.492188 "/>
<path style=" stroke:none;fill-rule:nonzero;fill:rgb(100%,100%,100%);fill-opacity:1;" d="M 34.769531 71.699219 C 34.769531 71.699219 33.152344 76.484375 34.875 79.5 C 36.597656 82.515625 60.5 82.878906 60.5 82.878906 L 62.214844 71.425781 L 52.214844 69.609375 L 51.632812 65.644531 Z M 34.769531 71.699219 "/>
<path style=" stroke:none;fill-rule:nonzero;fill:rgb(13.72549%,12.156863%,12.54902%);fill-opacity:1;" d="M 60.507812 83.085938 C 60.445312 83.085938 54.457031 82.992188 48.320312 82.527344 C 40.054688 81.902344 35.484375 80.925781 34.742188 79.613281 C 32.984375 76.539062 34.546875 71.804688 34.617188 71.605469 C 34.632812 71.546875 34.671875 71.503906 34.71875 71.488281 L 51.59375 65.433594 C 51.636719 65.417969 51.683594 65.425781 51.71875 65.457031 C 51.753906 65.488281 51.78125 65.535156 51.789062 65.589844 L 52.347656 69.414062 L 62.226562 71.203125 C 62.269531 71.210938 62.308594 71.242188 62.332031 71.292969 C 62.355469 71.335938 62.367188 71.394531 62.355469 71.449219 L 60.660156 82.917969 C 60.644531 83.015625 60.582031 83.085938 60.507812 83.085938 Z M 34.882812 71.875 C 34.679688 72.539062 33.480469 76.714844 35 79.375 C 36.320312 81.683594 52.101562 82.542969 60.378906 82.675781 L 62.039062 71.605469 L 52.210938 69.820312 C 52.148438 69.808594 52.09375 69.742188 52.082031 69.652344 L 51.535156 65.902344 Z M 34.882812 71.875 "/>
<path style=" stroke:none;fill-rule:nonzero;fill:rgb(100%,100%,100%);fill-opacity:1;" d="M 44.5625 31.402344 C 44.320312 31.210938 44.105469 30.953125 43.9375 30.644531 C 43.703125 30.199219 43.535156 29.695312 43.4375 29.167969 C 42.589844 25.082031 42.585938 19.855469 45.3125 17.058594 C 46.945312 15.394531 49.082031 14.890625 51.042969 15.703125 C 52.367188 16.277344 53.492188 18.707031 54.085938 20.289062 C 54.570312 21.566406 54.898438 22.957031 55.472656 24.167969 C 56.046875 25.375 56.960938 26.433594 58.039062 26.503906 C 57.175781 27.148438 56.140625 27.230469 55.226562 26.730469 C 55.65625 27.5 56.382812 27.859375 57.085938 27.660156 C 56.460938 28.320312 55.566406 28.296875 54.777344 28.074219 C 53.992188 27.855469 53.214844 27.519531 52.40625 27.660156 C 51.15625 27.847656 50.34375 29.070312 49.367188 29.957031 C 48.125 31.042969 45.980469 32.5 44.5625 31.402344 Z M 44.5625 31.402344 "/>
<path style=" stroke:none;fill-rule:nonzero;fill:rgb(13.72549%,12.156863%,12.54902%);fill-opacity:1;" d="M 45.742188 32.003906 C 45.304688 32.015625 44.871094 31.871094 44.492188 31.585938 C 44.222656 31.375 43.992188 31.089844 43.8125 30.753906 C 43.566406 30.28125 43.386719 29.75 43.289062 29.1875 C 42.875 27.1875 41.789062 20.378906 45.210938 16.863281 C 46.882812 15.152344 49.074219 14.632812 51.085938 15.476562 C 52.507812 16.085938 53.660156 18.664062 54.210938 20.140625 C 54.398438 20.640625 54.570312 21.164062 54.726562 21.667969 C 54.96875 22.476562 55.257812 23.257812 55.589844 24.007812 C 55.902344 24.652344 56.753906 26.164062 58.03125 26.246094 C 58.101562 26.25 58.160156 26.3125 58.175781 26.402344 C 58.191406 26.496094 58.164062 26.589844 58.101562 26.632812 C 57.40625 27.148438 56.597656 27.324219 55.820312 27.128906 C 56.183594 27.429688 56.625 27.527344 57.042969 27.402344 C 57.117188 27.378906 57.191406 27.425781 57.222656 27.515625 C 57.253906 27.601562 57.238281 27.710938 57.179688 27.769531 C 56.617188 28.359375 55.800781 28.515625 54.742188 28.246094 C 54.554688 28.199219 54.367188 28.140625 54.179688 28.082031 C 53.609375 27.863281 53.015625 27.773438 52.421875 27.816406 C 51.539062 27.949219 50.882812 28.648438 50.183594 29.355469 C 49.945312 29.601562 49.703125 29.851562 49.449219 30.082031 C 48.722656 30.757812 47.160156 32.003906 45.742188 32.003906 Z M 49.164062 15.507812 C 47.800781 15.507812 46.476562 16.105469 45.394531 17.207031 C 42.128906 20.570312 43.179688 27.152344 43.585938 29.097656 C 43.675781 29.605469 43.839844 30.089844 44.0625 30.519531 C 44.21875 30.804688 44.417969 31.046875 44.648438 31.226562 C 46.152344 32.390625 48.574219 30.390625 49.28125 29.753906 C 49.523438 29.535156 49.765625 29.285156 49.996094 29.042969 C 50.695312 28.316406 51.421875 27.566406 52.394531 27.421875 C 53.027344 27.367188 53.660156 27.460938 54.269531 27.695312 C 54.453125 27.75 54.636719 27.808594 54.820312 27.855469 C 55.34375 28.015625 55.882812 28.015625 56.402344 27.855469 C 55.886719 27.742188 55.425781 27.371094 55.113281 26.8125 C 55.070312 26.738281 55.070312 26.636719 55.113281 26.5625 C 55.15625 26.488281 55.230469 26.460938 55.292969 26.5 C 56 26.878906 56.785156 26.902344 57.5 26.5625 C 56.585938 26.175781 55.816406 25.347656 55.339844 24.242188 C 54.996094 23.476562 54.699219 22.671875 54.453125 21.839844 C 54.292969 21.347656 54.140625 20.828125 53.945312 20.339844 C 53.511719 19.195312 52.359375 16.472656 50.996094 15.882812 C 50.402344 15.632812 49.785156 15.503906 49.164062 15.507812 Z M 49.164062 15.507812 "/>
<path style=" stroke:none;fill-rule:nonzero;fill:rgb(100%,100%,100%);fill-opacity:1;" d="M 53.03125 28.4375 C 53.03125 28.4375 53.882812 31.996094 53.4375 32.5 C 52.992188 33.003906 52.0625 32.210938 52.0625 32.210938 "/>
<path style=" stroke:none;fill-rule:nonzero;fill:rgb(13.72549%,12.156863%,12.54902%);fill-opacity:1;" d="M 53.058594 32.878906 C 52.675781 32.835938 52.308594 32.667969 51.988281 32.386719 C 51.9375 32.347656 51.90625 32.277344 51.910156 32.199219 C 51.910156 32.125 51.945312 32.054688 51.996094 32.019531 C 52.046875 31.984375 52.109375 31.992188 52.15625 32.039062 C 52.375 32.222656 53.058594 32.675781 53.34375 32.339844 C 53.558594 32.097656 53.28125 30.160156 52.882812 28.503906 C 52.855469 28.394531 52.902344 28.277344 52.984375 28.242188 C 53.066406 28.207031 53.15625 28.265625 53.179688 28.375 C 53.386719 29.242188 54.027344 32.125 53.546875 32.660156 C 53.410156 32.808594 53.238281 32.890625 53.058594 32.878906 Z M 53.058594 32.878906 "/>
<path style=" stroke:none;fill-rule:nonzero;fill:rgb(100%,100%,100%);fill-opacity:1;" d="M 53.550781 24.359375 C 54.277344 25.742188 53.550781 27.816406 53.238281 29.230469 C 52.804688 31.21875 52.339844 33.191406 51.839844 35.148438 C 51.527344 36.398438 49.066406 35.496094 48.714844 34.957031 L 48.046875 40.085938 L 42.867188 37.699219 L 44.535156 31.480469 C 44.535156 31.480469 46.199219 32.121094 47.699219 29.910156 C 49.199219 27.695312 50.242188 22.054688 50.242188 22.054688 C 50.242188 22.054688 52.839844 23.003906 53.550781 24.359375 Z M 53.550781 24.359375 "/>
<path style=" stroke:none;fill-rule:nonzero;fill:rgb(13.72549%,12.156863%,12.54902%);fill-opacity:1;" d="M 48.042969 40.296875 L 47.992188 40.296875 L 42.8125 37.917969 C 42.773438 37.898438 42.738281 37.863281 42.722656 37.8125 C 42.707031 37.761719 42.707031 37.703125 42.722656 37.648438 L 44.375 31.410156 C 44.402344 31.304688 44.484375 31.25 44.5625 31.277344 C 44.628906 31.300781 46.160156 31.851562 47.570312 29.765625 C 48.984375 27.683594 50.070312 22.0625 50.070312 22.003906 C 50.082031 21.949219 50.105469 21.902344 50.144531 21.875 C 50.183594 21.855469 50.222656 21.855469 50.261719 21.875 C 50.371094 21.917969 52.925781 22.863281 53.660156 24.257812 C 54.308594 25.507812 53.890625 27.175781 53.550781 28.550781 C 53.484375 28.816406 53.421875 29.070312 53.367188 29.308594 C 52.9375 31.289062 52.46875 33.285156 51.96875 35.238281 C 51.84375 35.628906 51.566406 35.894531 51.25 35.933594 C 50.410156 36.058594 49.558594 35.847656 48.808594 35.324219 L 48.183594 40.125 C 48.175781 40.183594 48.148438 40.238281 48.109375 40.265625 C 48.089844 40.285156 48.066406 40.292969 48.042969 40.296875 Z M 43.066406 37.570312 L 47.921875 39.8125 L 48.546875 34.921875 C 48.558594 34.839844 48.601562 34.777344 48.660156 34.757812 C 48.71875 34.734375 48.777344 34.761719 48.820312 34.820312 C 49.042969 35.167969 50.398438 35.734375 51.191406 35.523438 C 51.460938 35.453125 51.621094 35.304688 51.679688 35.078125 C 52.175781 33.132812 52.648438 31.144531 53.074219 29.171875 C 53.128906 28.929688 53.195312 28.671875 53.257812 28.394531 C 53.570312 27.125 53.972656 25.542969 53.410156 24.476562 C 52.847656 23.410156 50.910156 22.542969 50.339844 22.316406 C 50.132812 23.378906 49.164062 28.039062 47.800781 30.046875 C 46.492188 31.976562 45.070312 31.828125 44.617188 31.710938 Z M 43.066406 37.570312 "/>
<path style=" stroke:none;fill-rule:nonzero;fill:rgb(100%,100%,100%);fill-opacity:1;" d="M 52.117188 33.648438 C 52.117188 33.648438 50.757812 34.167969 50.480469 32.335938 "/>
<path style=" stroke:none;fill-rule:nonzero;fill:rgb(13.72549%,12.156863%,12.54902%);fill-opacity:1;" d="M 51.703125 33.925781 C 51.433594 33.933594 51.171875 33.84375 50.9375 33.667969 C 50.601562 33.375 50.371094 32.90625 50.3125 32.378906 C 50.296875 32.265625 50.351562 32.15625 50.4375 32.132812 C 50.523438 32.109375 50.605469 32.183594 50.625 32.296875 C 50.667969 32.707031 50.835938 33.074219 51.09375 33.308594 C 51.394531 33.511719 51.738281 33.558594 52.066406 33.449219 C 52.152344 33.417969 52.242188 33.488281 52.265625 33.601562 C 52.289062 33.71875 52.234375 33.835938 52.148438 33.867188 C 52.003906 33.910156 51.851562 33.929688 51.703125 33.925781 Z M 51.703125 33.925781 "/>
<path style=" stroke:none;fill-rule:nonzero;fill:rgb(100%,100%,100%);fill-opacity:1;" d="M 49.898438 28.640625 C 49.960938 28.128906 49.914062 27.597656 49.769531 27.117188 C 49.691406 26.726562 49.574219 26.351562 49.417969 26.007812 C 49.253906 25.664062 48.984375 25.433594 48.679688 25.378906 C 48.410156 25.371094 48.148438 25.523438 47.964844 25.796875 C 47.78125 26.058594 47.648438 26.371094 47.570312 26.710938 C 47.203125 28.214844 47.460938 29.863281 48.25 31.042969 L 48.191406 30.890625 "/>
<path style=" stroke:none;fill-rule:nonzero;fill:rgb(13.72549%,12.156863%,12.54902%);fill-opacity:1;" d="M 48.25 31.25 C 48.207031 31.25 48.164062 31.226562 48.132812 31.183594 C 47.308594 29.941406 47.035156 28.207031 47.421875 26.628906 C 47.503906 26.257812 47.652344 25.917969 47.851562 25.632812 C 48.070312 25.324219 48.375 25.15625 48.695312 25.171875 C 49.046875 25.222656 49.359375 25.488281 49.546875 25.890625 C 49.710938 26.253906 49.839844 26.644531 49.917969 27.054688 C 50.074219 27.574219 50.121094 28.140625 50.050781 28.691406 C 50.027344 28.804688 49.941406 28.871094 49.855469 28.839844 C 49.773438 28.8125 49.726562 28.699219 49.746094 28.585938 C 49.800781 28.109375 49.753906 27.625 49.617188 27.179688 C 49.546875 26.808594 49.4375 26.453125 49.289062 26.128906 C 49.152344 25.832031 48.921875 25.632812 48.664062 25.585938 C 48.4375 25.582031 48.222656 25.703125 48.070312 25.925781 C 47.902344 26.164062 47.78125 26.449219 47.710938 26.757812 C 47.382812 28.097656 47.570312 29.566406 48.21875 30.683594 C 48.261719 30.699219 48.300781 30.738281 48.320312 30.792969 L 48.378906 30.941406 C 48.414062 31.035156 48.394531 31.148438 48.328125 31.207031 C 48.304688 31.230469 48.277344 31.246094 48.25 31.25 Z M 48.25 31.25 "/>
<path style=" stroke:none;fill-rule:nonzero;fill:rgb(13.72549%,12.156863%,12.54902%);fill-opacity:1;" d="M 53.035156 26 C 52.917969 25.964844 52.769531 26.257812 52.703125 26.65625 C 52.636719 27.054688 52.675781 27.402344 52.796875 27.4375 C 52.914062 27.472656 53.0625 27.179688 53.128906 26.785156 C 53.195312 26.386719 53.15625 26.035156 53.035156 26 Z M 53.035156 26 "/>
<path style=" stroke:none;fill-rule:nonzero;fill:rgb(13.72549%,12.156863%,12.54902%);fill-opacity:1;" d="M 48.710938 34.957031 C 48.035156 34.371094 47.382812 33.726562 46.765625 33.027344 C 46.765625 33.027344 46.453125 36.636719 48.304688 37.464844 Z M 48.710938 34.957031 "/>
<path style=" stroke:none;fill-rule:nonzero;fill:rgb(13.72549%,12.156863%,12.54902%);fill-opacity:1;" d="M 48.304688 37.675781 C 48.289062 37.679688 48.273438 37.679688 48.257812 37.675781 C 46.3125 36.804688 46.597656 33.171875 46.609375 33.015625 C 46.617188 32.941406 46.652344 32.875 46.707031 32.847656 C 46.761719 32.820312 46.820312 32.832031 46.867188 32.878906 C 47.480469 33.570312 48.125 34.210938 48.796875 34.796875 C 48.851562 34.84375 48.878906 34.929688 48.867188 35.011719 L 48.460938 37.511719 C 48.449219 37.570312 48.421875 37.621094 48.382812 37.648438 C 48.359375 37.667969 48.332031 37.675781 48.304688 37.675781 Z M 46.90625 33.453125 C 46.90625 34.347656 46.992188 36.476562 48.195312 37.183594 L 48.539062 35.054688 C 47.972656 34.558594 47.429688 34.023438 46.90625 33.453125 Z M 46.90625 33.453125 "/>
<path style=" stroke:none;fill-rule:nonzero;fill:rgb(14.901961%,47.843137%,94.901961%);fill-opacity:1;" d="M 33.800781 73.277344 C 33.800781 73.277344 34.082031 47.777344 36.949219 41.910156 C 39.820312 36.039062 47.261719 34.710938 50.8125 38.210938 C 54.363281 41.710938 52.652344 68.460938 52.652344 68.460938 C 52.652344 68.460938 41.335938 73.277344 33.800781 73.277344 Z M 33.800781 73.277344 "/>
<path style=" stroke:none;fill-rule:nonzero;fill:rgb(14.901961%,47.843137%,94.901961%);fill-opacity:1;" d="M 48.335938 36.710938 C 50.222656 37.734375 51.988281 39.125 53.570312 40.832031 C 56.027344 43.554688 61.210938 55.253906 61.210938 55.253906 L 54.375 60.773438 L 48.238281 50.683594 Z M 48.335938 36.710938 "/>
<path style=" stroke:none;fill-rule:nonzero;fill:rgb(14.901961%,47.843137%,94.901961%);fill-opacity:1;" d="M 39.90625 38.300781 C 39.90625 38.300781 36.328125 38.835938 34.433594 44.074219 C 33.410156 46.917969 30.785156 56.089844 30.785156 56.089844 L 38.679688 57.304688 Z M 39.90625 38.300781 "/>
<path style=" stroke:none;fill-rule:nonzero;fill:rgb(13.72549%,12.156863%,12.54902%);fill-opacity:1;" d="M 53.863281 60.136719 C 53.8125 60.136719 53.765625 60.105469 53.738281 60.050781 L 47.640625 48.980469 C 47.589844 48.886719 47.601562 48.757812 47.671875 48.6875 C 47.742188 48.621094 47.839844 48.640625 47.890625 48.734375 L 53.988281 59.804688 C 54.023438 59.867188 54.027344 59.953125 54.003906 60.023438 C 53.976562 60.09375 53.921875 60.136719 53.863281 60.136719 Z M 53.863281 60.136719 "/>
<path style=" stroke:none;fill-rule:nonzero;fill:rgb(13.72549%,12.156863%,12.54902%);fill-opacity:1;" d="M 72.0625 47.625 L 73.585938 41.3125 L 74.0625 41.496094 L 73.101562 47.722656 C 73.101562 47.722656 72.429688 48.585938 72.0625 47.625 Z M 72.0625 47.625 "/>
<path style=" stroke:none;fill-rule:nonzero;fill:rgb(13.72549%,12.156863%,12.54902%);fill-opacity:1;" d="M 72.53125 48.289062 L 72.425781 48.289062 C 72.199219 48.222656 72.011719 48.015625 71.921875 47.730469 C 71.90625 47.679688 71.90625 47.621094 71.921875 47.570312 L 73.4375 41.25 C 73.464844 41.144531 73.550781 41.085938 73.632812 41.113281 L 74.105469 41.296875 C 74.183594 41.324219 74.230469 41.429688 74.214844 41.539062 L 73.257812 47.789062 C 73.25 47.828125 73.234375 47.863281 73.210938 47.890625 C 73.027344 48.125 72.785156 48.265625 72.53125 48.289062 Z M 72.21875 47.601562 C 72.265625 47.734375 72.359375 47.832031 72.464844 47.867188 C 72.644531 47.867188 72.816406 47.777344 72.945312 47.613281 L 73.867188 41.640625 L 73.679688 41.570312 Z M 72.21875 47.601562 "/>
<path style=" stroke:none;fill-rule:nonzero;fill:rgb(14.901961%,47.843137%,94.901961%);fill-opacity:1;" d="M 43.226562 33.332031 C 40.414062 32.5 37.289062 33.082031 35.015625 35.417969 C 34.054688 36.355469 33.328125 37.664062 32.945312 39.167969 C 32.574219 40.699219 32.789062 42.378906 33.523438 43.660156 C 35.679688 47.113281 40.414062 47.097656 43.34375 45.964844 C 45.339844 45.199219 51.253906 41.457031 49.625 37.785156 C 48.453125 35.152344 45.335938 33.9375 43.226562 33.332031 Z M 43.226562 33.332031 "/>
<path style=" stroke:none;fill-rule:nonzero;fill:rgb(13.72549%,12.156863%,12.54902%);fill-opacity:1;" d="M 39.644531 46.277344 C 37.78125 46.207031 35.960938 45.507812 34.351562 44.25 C 34.316406 44.222656 34.292969 44.175781 34.28125 44.121094 C 34.273438 44.066406 34.28125 44.007812 34.304688 43.960938 C 34.351562 43.867188 34.445312 43.839844 34.519531 43.898438 C 34.554688 43.933594 38.421875 47.136719 42.082031 45.289062 C 43.835938 44.398438 44.894531 42.824219 45.902344 41.304688 C 47.019531 39.636719 48.070312 38.0625 49.890625 37.839844 C 49.933594 37.835938 49.972656 37.855469 50.003906 37.890625 C 50.035156 37.925781 50.054688 37.976562 50.058594 38.035156 C 50.0625 38.089844 50.050781 38.144531 50.023438 38.183594 C 50 38.226562 49.960938 38.253906 49.917969 38.257812 C 48.226562 38.460938 47.257812 39.925781 46.136719 41.589844 C 45.144531 43.078125 44.019531 44.761719 42.191406 45.6875 C 41.375 46.089844 40.511719 46.289062 39.644531 46.277344 Z M 39.644531 46.277344 "/>
<path style=" stroke:none;fill-rule:nonzero;fill:rgb(13.72549%,12.156863%,12.54902%);fill-opacity:1;" d="M 34.082031 64.167969 C 34.039062 64.164062 34 64.140625 33.972656 64.101562 C 33.945312 64.058594 33.929688 64.003906 33.929688 63.949219 C 34.160156 57.355469 35.179688 47.863281 35.179688 47.765625 C 35.195312 47.652344 35.273438 47.578125 35.359375 47.589844 C 35.445312 47.609375 35.5 47.710938 35.492188 47.824219 C 35.492188 47.921875 34.457031 57.410156 34.242188 63.964844 C 34.238281 64.082031 34.167969 64.167969 34.082031 64.167969 Z M 34.082031 64.167969 "/>
<path style=" stroke:none;fill-rule:nonzero;fill:rgb(13.72549%,12.156863%,12.54902%);fill-opacity:1;" d="M 58.046875 105.496094 L 64.6875 105.496094 C 64.6875 105.496094 65.410156 103.351562 66.964844 103.054688 C 66.964844 103.054688 73.023438 106.464844 72.132812 107.167969 C 71.242188 107.867188 57.578125 107.792969 57.578125 107.792969 Z M 58.046875 105.496094 "/>
<path style=" stroke:none;fill-rule:nonzero;fill:rgb(13.72549%,12.156863%,12.54902%);fill-opacity:1;" d="M 58.972656 108.003906 L 57.574219 108.003906 C 57.527344 108.003906 57.480469 107.976562 57.453125 107.925781 C 57.421875 107.875 57.410156 107.804688 57.425781 107.742188 L 57.894531 105.445312 C 57.914062 105.355469 57.976562 105.289062 58.046875 105.292969 L 64.589844 105.292969 C 64.773438 104.8125 65.527344 103.121094 66.945312 102.851562 C 66.96875 102.839844 67 102.839844 67.023438 102.851562 C 68.273438 103.550781 72.335938 105.917969 72.378906 106.949219 C 72.382812 107.109375 72.316406 107.257812 72.210938 107.332031 C 71.453125 107.941406 62.59375 108.003906 58.972656 108.003906 Z M 57.78125 107.585938 C 63.257812 107.609375 71.433594 107.476562 72.054688 106.988281 C 72.054688 106.472656 69.40625 104.660156 66.945312 103.265625 C 65.523438 103.574219 64.835938 105.5625 64.832031 105.582031 C 64.804688 105.65625 64.75 105.707031 64.6875 105.703125 L 58.164062 105.703125 Z M 57.78125 107.585938 "/>
<path style=" stroke:none;fill-rule:nonzero;fill:rgb(13.72549%,12.156863%,12.54902%);fill-opacity:1;" d="M 53.027344 85 C 57.257812 83.8125 60.089844 81.175781 58.429688 77.617188 C 56.765625 74.058594 44.824219 76.367188 42.492188 73.730469 C 40.15625 71.089844 40.992188 57.105469 38.429688 54.707031 C 35.867188 52.3125 24.882812 49.890625 23.652344 52.917969 C 22.425781 55.941406 23.652344 77.953125 27.230469 82.839844 C 30.808594 87.730469 48.902344 86.132812 53.027344 85 Z M 53.027344 85 "/>
<path style=" stroke:none;fill-rule:nonzero;fill:rgb(13.72549%,12.156863%,12.54902%);fill-opacity:1;" d="M 40.625 86.394531 L 39.917969 86.394531 C 35.167969 86.339844 29.089844 85.703125 27.105469 83.003906 C 23.570312 78.136719 22.1875 56.117188 23.515625 52.828125 C 23.742188 52.265625 24.265625 51.855469 25.078125 51.578125 C 28.476562 50.503906 36.328125 52.460938 38.515625 54.496094 C 39.894531 55.785156 40.320312 60.171875 40.738281 64.414062 C 41.117188 68.289062 41.507812 72.292969 42.597656 73.527344 C 43.632812 74.703125 46.820312 74.875 49.90625 75.042969 C 53.703125 75.246094 57.632812 75.457031 58.570312 77.464844 C 59.117188 78.632812 59.222656 79.757812 58.882812 80.800781 C 58.257812 82.726562 56.203125 84.269531 53.070312 85.148438 C 50.914062 85.785156 45.652344 86.394531 40.625 86.394531 Z M 27.453125 51.714844 C 26.675781 51.699219 25.902344 51.792969 25.140625 52.003906 C 24.429688 52.230469 23.972656 52.574219 23.789062 53.027344 C 22.578125 56.015625 23.898438 77.992188 27.34375 82.707031 C 30.847656 87.503906 48.847656 85.9375 52.992188 84.792969 C 55.984375 83.957031 58.023438 82.457031 58.585938 80.683594 C 58.882812 79.765625 58.785156 78.769531 58.296875 77.726562 C 57.445312 75.898438 53.609375 75.695312 49.882812 75.496094 C 46.601562 75.320312 43.503906 75.152344 42.382812 73.882812 C 41.203125 72.542969 40.820312 68.636719 40.417969 64.503906 C 40.015625 60.371094 39.59375 56.054688 38.324219 54.875 C 36.636719 53.289062 31.199219 51.714844 27.453125 51.714844 Z M 53.027344 85 Z M 53.027344 85 "/>
<path style=" stroke:none;fill-rule:nonzero;fill:rgb(81.960784%,82.745098%,83.137255%);fill-opacity:1;" d="M 60.875 73.488281 L 60.851562 73.488281 L 50.773438 71.136719 C 50.6875 71.117188 50.628906 71.007812 50.644531 70.894531 C 50.660156 70.777344 50.742188 70.703125 50.828125 70.722656 L 60.902344 73.070312 C 60.988281 73.082031 61.054688 73.183594 61.046875 73.296875 C 61.039062 73.414062 60.960938 73.496094 60.875 73.488281 Z M 60.875 73.488281 "/>
<path style=" stroke:none;fill-rule:nonzero;fill:rgb(13.72549%,12.156863%,12.54902%);fill-opacity:1;" d="M 89.921875 100.832031 L 89.609375 100.789062 C 89.609375 100.667969 90.59375 88.605469 87.460938 83.246094 L 87.710938 82.992188 C 89.058594 85.300781 89.84375 89.007812 90.035156 94.011719 C 90.121094 96.285156 90.082031 98.566406 89.921875 100.832031 Z M 89.921875 100.832031 "/>
<path style=" stroke:none;fill-rule:nonzero;fill:rgb(13.72549%,12.156863%,12.54902%);fill-opacity:1;" d="M 88.84375 102.371094 C 88.839844 102.230469 88.847656 102.089844 88.875 101.953125 C 89.621094 95.640625 88.355469 92.699219 87.164062 91.339844 L 87.367188 91.023438 C 88.617188 92.449219 89.953125 95.515625 89.183594 102.019531 C 89.164062 102.179688 89.152344 102.285156 89.152344 102.324219 Z M 88.84375 102.371094 "/>
<path style=" stroke:none;fill-rule:nonzero;fill:rgb(13.72549%,12.156863%,12.54902%);fill-opacity:1;" d="M 87.222656 88.664062 C 86.96875 88.464844 86.683594 88.351562 86.390625 88.335938 C 85.867188 88.238281 85.332031 88.433594 84.917969 88.875 C 84.816406 89.007812 84.726562 89.234375 84.820312 89.378906 C 84.875 89.445312 84.945312 89.492188 85.019531 89.503906 C 85.433594 89.664062 85.757812 90.09375 85.878906 90.648438 C 85.664062 90.4375 85.476562 90.167969 85.253906 89.953125 C 85.046875 89.722656 84.777344 89.605469 84.507812 89.628906 C 84.210938 89.722656 83.953125 89.953125 83.777344 90.277344 C 83.578125 90.566406 83.410156 90.894531 83.28125 91.25 C 83.148438 91.605469 83.109375 92.011719 83.167969 92.402344 C 83.453125 92.292969 83.753906 92.269531 84.046875 92.324219 C 84.253906 92.351562 84.453125 92.460938 84.617188 92.636719 C 84.664062 92.6875 84.699219 92.757812 84.714844 92.835938 C 84.726562 93.003906 84.640625 93.15625 84.519531 93.191406 C 84.398438 93.230469 84.277344 93.230469 84.15625 93.191406 C 83.902344 93.121094 83.644531 93.074219 83.382812 93.046875 C 83.289062 93.027344 83.1875 93.039062 83.09375 93.070312 C 82.863281 93.242188 82.738281 93.585938 82.78125 93.929688 C 82.777344 94.070312 82.816406 94.207031 82.890625 94.308594 C 83.019531 94.441406 83.203125 94.347656 83.351562 94.261719 C 83.613281 94.117188 83.894531 94.039062 84.179688 94.027344 C 84.210938 94.027344 84.242188 94.03125 84.273438 94.050781 C 84.304688 94.078125 84.324219 94.125 84.328125 94.179688 C 84.335938 94.230469 84.324219 94.28125 84.296875 94.320312 C 84.246094 94.398438 84.175781 94.453125 84.097656 94.476562 C 83.882812 94.566406 83.664062 94.632812 83.441406 94.679688 C 83.3125 94.703125 83.164062 94.742188 83.101562 94.894531 C 83.074219 94.964844 83.0625 95.039062 83.066406 95.113281 C 83.054688 95.679688 83.175781 96.234375 83.414062 96.699219 C 83.453125 96.785156 83.503906 96.859375 83.566406 96.917969 C 83.652344 96.976562 83.746094 97.011719 83.84375 97.015625 C 84.585938 97.121094 85.339844 96.976562 86.03125 96.601562 C 86.066406 96.582031 86.097656 96.554688 86.121094 96.511719 C 86.164062 96.417969 86.09375 96.304688 86.039062 96.222656 C 85.808594 95.839844 85.863281 95.296875 85.929688 94.816406 C 85.933594 94.722656 85.960938 94.636719 86.007812 94.566406 C 86.101562 94.484375 86.222656 94.511719 86.289062 94.625 C 86.355469 94.738281 86.390625 94.875 86.394531 95.015625 C 86.441406 95.511719 86.410156 96.011719 86.304688 96.488281 C 86.667969 96.375 87.015625 96.214844 87.351562 96.011719 C 87.625 95.871094 87.882812 95.683594 88.117188 95.449219 C 88.351562 95.214844 88.515625 94.875 88.582031 94.492188 C 88.59375 94.421875 88.589844 94.34375 88.566406 94.277344 C 88.542969 94.234375 88.507812 94.195312 88.472656 94.171875 C 88.144531 93.890625 87.890625 93.488281 87.734375 93.011719 C 87.703125 92.914062 87.6875 92.773438 87.757812 92.726562 C 87.785156 92.710938 87.816406 92.710938 87.847656 92.726562 C 88.242188 92.8125 88.441406 93.398438 88.765625 93.710938 C 88.792969 93.742188 88.824219 93.757812 88.855469 93.761719 C 88.898438 93.761719 88.933594 93.738281 88.960938 93.699219 C 89.09375 93.539062 89.183594 93.324219 89.214844 93.089844 C 89.308594 92.632812 89.289062 92.144531 89.160156 91.703125 C 89.023438 91.261719 88.742188 90.925781 88.398438 90.792969 C 88.238281 90.742188 88.070312 90.734375 87.910156 90.761719 C 87.851562 90.761719 87.554688 90.902344 87.511719 90.855469 C 87.472656 90.804688 87.632812 90.503906 87.667969 90.402344 C 87.871094 89.789062 87.601562 88.996094 87.222656 88.664062 Z M 87.222656 88.664062 "/>
<path style=" stroke:none;fill-rule:nonzero;fill:rgb(13.72549%,12.156863%,12.54902%);fill-opacity:1;" d="M 91.945312 84.890625 C 91.445312 84.886719 90.976562 85.207031 90.695312 85.753906 C 90.503906 86.191406 90.425781 86.695312 90.476562 87.195312 C 90.523438 87.691406 90.613281 88.175781 90.742188 88.640625 C 90.988281 88.054688 91.4375 87.667969 91.9375 87.605469 C 92.445312 87.546875 91.851562 88.199219 91.765625 88.335938 C 91.476562 88.789062 91.203125 89.25 90.929688 89.714844 C 90.851562 89.832031 90.796875 89.976562 90.777344 90.132812 C 90.777344 90.300781 90.8125 90.464844 90.882812 90.605469 C 91.097656 91.230469 91.417969 91.777344 91.820312 92.199219 C 91.933594 92.332031 92.089844 92.363281 92.226562 92.289062 C 92.292969 92.21875 92.339844 92.125 92.367188 92.019531 C 92.515625 91.601562 92.710938 91.214844 92.945312 90.871094 C 93 90.785156 93.089844 90.695312 93.164062 90.757812 C 93.234375 90.820312 93.222656 90.917969 93.214844 91.007812 L 93.148438 91.9375 C 93.105469 92.273438 93.121094 92.617188 93.195312 92.941406 C 93.359375 93.535156 93.859375 93.828125 94.324219 93.945312 C 94.453125 93.992188 94.585938 93.992188 94.710938 93.945312 C 94.960938 93.828125 95.066406 93.433594 95.109375 93.082031 C 95.160156 92.625 95.300781 92.191406 95.519531 91.832031 C 95.574219 92.4375 95.722656 93.023438 95.945312 93.554688 C 96.058594 93.839844 96.214844 94.089844 96.40625 94.292969 C 96.609375 94.484375 96.839844 94.609375 97.085938 94.667969 C 97.496094 94.765625 97.917969 94.796875 98.335938 94.757812 C 98.625 94.761719 98.910156 94.714844 99.191406 94.613281 C 99.472656 94.507812 99.710938 94.265625 99.867188 93.933594 C 100.113281 93.339844 99.921875 92.578125 99.601562 92.054688 C 99.285156 91.527344 98.851562 91.136719 98.523438 90.625 C 98.933594 90.777344 99.320312 91.042969 99.648438 91.410156 C 99.730469 91.527344 99.84375 91.597656 99.960938 91.601562 C 100.015625 91.585938 100.066406 91.546875 100.105469 91.492188 C 100.601562 90.832031 100.03125 89.722656 99.769531 89.128906 C 99.628906 88.707031 99.378906 88.367188 99.070312 88.171875 C 98.882812 88.109375 98.691406 88.109375 98.507812 88.171875 C 98.226562 88.234375 96.832031 89.078125 97.425781 87.964844 C 97.75 87.46875 98.222656 87.191406 98.71875 87.210938 C 98.960938 87.242188 99.324219 87.5 99.320312 86.898438 C 99.300781 86.683594 99.238281 86.480469 99.136719 86.3125 C 98.945312 85.925781 98.734375 85.554688 98.511719 85.199219 C 98.457031 85.089844 98.375 85.011719 98.277344 84.980469 C 98.195312 84.976562 98.113281 85.003906 98.042969 85.066406 C 97.472656 85.527344 96.84375 85.839844 96.1875 85.992188 C 96.039062 85.992188 95.828125 85.929688 95.851562 85.734375 C 95.867188 85.660156 95.902344 85.601562 95.949219 85.5625 C 96.347656 85.144531 96.941406 85.324219 97.347656 84.941406 C 97.46875 84.835938 97.550781 84.667969 97.570312 84.476562 C 97.570312 84.195312 97.398438 83.976562 97.226562 83.804688 C 96.804688 83.316406 96.289062 82.996094 95.738281 82.882812 C 94.914062 82.796875 94.175781 83.515625 93.621094 84.335938 C 93.4375 84.617188 93.308594 85.339844 93.023438 85.296875 C 92.847656 85.210938 92.671875 85.113281 92.5 85 C 92.320312 84.925781 92.132812 84.886719 91.945312 84.890625 Z M 91.945312 84.890625 "/>
<path style=" stroke:none;fill-rule:nonzero;fill:rgb(13.72549%,12.156863%,12.54902%);fill-opacity:1;" d="M 87.960938 79.125 C 87.925781 78.703125 87.78125 78.3125 87.554688 78.015625 C 87.132812 77.507812 86.507812 77.484375 85.945312 77.601562 C 85.527344 77.71875 85.117188 77.882812 84.714844 78.085938 C 84.3125 78.242188 84.195312 78.363281 84.554688 78.800781 C 84.804688 79.105469 85.492188 80.191406 85.179688 80.710938 C 84.867188 81.234375 84.339844 79.902344 84.136719 79.683594 C 83.871094 79.339844 83.519531 79.136719 83.148438 79.121094 C 82.824219 79.195312 82.527344 79.40625 82.300781 79.722656 C 82.054688 80.007812 81.824219 80.3125 81.605469 80.632812 C 81.570312 80.679688 81.542969 80.734375 81.523438 80.796875 C 81.476562 81.039062 81.722656 81.179688 81.90625 81.210938 C 82.433594 81.339844 83.023438 81.707031 83.132812 82.410156 C 82.585938 82.585938 82.074219 81.855469 81.519531 81.933594 C 81.109375 82.066406 80.773438 82.460938 80.628906 82.988281 C 80.476562 83.457031 80.429688 83.972656 80.492188 84.476562 C 80.964844 84.257812 81.464844 84.199219 81.957031 84.308594 C 82.015625 84.3125 82.074219 84.347656 82.117188 84.402344 C 82.164062 84.519531 82.132812 84.664062 82.046875 84.730469 C 81.960938 84.785156 81.867188 84.808594 81.773438 84.792969 L 80.867188 84.792969 C 80.777344 84.777344 80.6875 84.808594 80.613281 84.871094 C 80.550781 84.953125 80.515625 85.066406 80.511719 85.183594 C 80.453125 85.734375 80.449219 86.296875 80.496094 86.851562 C 80.503906 87.195312 80.605469 87.523438 80.78125 87.773438 C 80.921875 87.917969 81.085938 88.011719 81.261719 88.050781 C 81.71875 88.195312 82.1875 88.273438 82.660156 88.285156 C 82.449219 87.890625 82.398438 87.390625 82.519531 86.9375 C 82.707031 86.355469 83.023438 86.691406 83.039062 87.222656 C 83.039062 87.472656 83.007812 87.714844 83 87.964844 C 82.996094 88.015625 83.003906 88.0625 83.019531 88.105469 C 83.039062 88.136719 83.0625 88.164062 83.089844 88.179688 C 83.339844 88.359375 83.628906 88.410156 83.902344 88.320312 C 83.980469 88.300781 84.054688 88.257812 84.117188 88.191406 C 84.265625 87.960938 84.3125 87.648438 84.25 87.359375 L 84.121094 85.855469 C 84.109375 85.785156 84.121094 85.707031 84.152344 85.648438 C 84.210938 85.574219 84.308594 85.648438 84.367188 85.707031 C 84.601562 85.984375 84.726562 86.390625 84.707031 86.804688 C 84.707031 87.042969 84.632812 87.269531 84.617188 87.503906 C 84.59375 87.742188 84.664062 87.984375 84.804688 88.132812 C 84.957031 88.230469 85.128906 88.242188 85.289062 88.167969 C 85.496094 88.125 85.6875 87.992188 85.835938 87.789062 C 85.957031 87.523438 85.996094 87.203125 85.9375 86.902344 C 85.875 86.609375 85.832031 86.304688 85.804688 86 C 85.804688 85.382812 86.28125 84.5 86.359375 85.582031 C 86.363281 85.9375 86.347656 86.289062 86.3125 86.640625 C 86.304688 86.6875 86.304688 86.734375 86.3125 86.777344 C 86.355469 86.851562 86.421875 86.894531 86.492188 86.890625 C 86.859375 86.933594 87.226562 86.839844 87.554688 86.617188 C 87.78125 86.46875 87.980469 86.257812 88.136719 85.992188 C 88.253906 85.773438 88.351562 85.542969 88.429688 85.296875 C 88.804688 84.226562 89.410156 83.386719 88.707031 82.242188 C 88.464844 81.851562 88.019531 81.746094 87.792969 81.347656 C 87.527344 80.871094 87.9375 80.117188 87.953125 79.519531 C 87.964844 79.390625 87.96875 79.257812 87.960938 79.125 Z M 87.960938 79.125 "/>
<path style=" stroke:none;fill-rule:nonzero;fill:rgb(100%,100%,100%);fill-opacity:1;" d="M 85.710938 99.582031 L 93.679688 99.582031 L 93.054688 107.558594 C 92.960938 108.773438 92.191406 109.695312 91.277344 109.691406 L 88.09375 109.691406 C 87.179688 109.691406 86.414062 108.769531 86.320312 107.558594 Z M 85.710938 99.582031 "/>
<path style=" stroke:none;fill-rule:nonzero;fill:rgb(13.72549%,12.156863%,12.54902%);fill-opacity:1;" d="M 91.289062 109.914062 L 88.09375 109.914062 C 87.09375 109.914062 86.257812 108.90625 86.160156 107.582031 L 85.535156 99.609375 C 85.53125 99.550781 85.546875 99.492188 85.574219 99.445312 C 85.605469 99.398438 85.652344 99.375 85.695312 99.375 L 93.664062 99.375 C 93.710938 99.375 93.753906 99.398438 93.785156 99.445312 C 93.816406 99.488281 93.832031 99.546875 93.824219 99.609375 L 93.199219 107.582031 C 93.101562 108.894531 92.28125 109.898438 91.289062 109.914062 Z M 85.886719 99.804688 L 86.480469 107.542969 C 86.566406 108.644531 87.261719 109.484375 88.09375 109.484375 L 91.289062 109.484375 C 92.121094 109.484375 92.820312 108.644531 92.902344 107.542969 L 93.5 99.804688 Z M 85.886719 99.804688 "/>
<path style=" stroke:none;fill-rule:nonzero;fill:rgb(13.72549%,12.156863%,12.54902%);fill-opacity:1;" d="M 90.800781 99.730469 C 90.800781 99.652344 90.175781 92.019531 92.988281 85.871094 L 93.257812 86.085938 C 90.503906 92.113281 91.117188 99.605469 91.121094 99.679688 Z M 90.800781 99.730469 "/>
<path style=" stroke:none;fill-rule:nonzero;fill:rgb(100%,100%,100%);fill-opacity:1;" d="M 83.5625 85.25 C 83.523438 85.25 83.484375 85.226562 83.457031 85.191406 C 83.425781 85.152344 83.410156 85.097656 83.410156 85.042969 C 83.410156 84.988281 83.425781 84.933594 83.457031 84.894531 C 85.085938 82.605469 87.65625 81.207031 87.765625 81.144531 C 87.847656 81.101562 87.9375 81.15625 87.96875 81.261719 C 88 81.371094 87.960938 81.492188 87.882812 81.535156 C 87.855469 81.535156 85.265625 82.949219 83.679688 85.179688 C 83.652344 85.226562 83.609375 85.25 83.5625 85.25 Z M 83.5625 85.25 "/>
<path style=" stroke:none;fill-rule:nonzero;fill:rgb(100%,100%,100%);fill-opacity:1;" d="M 84.664062 95.867188 C 84.609375 95.867188 84.558594 95.828125 84.53125 95.765625 C 84.5 95.703125 84.5 95.625 84.523438 95.5625 C 85.117188 94.078125 85.871094 92.714844 86.757812 91.519531 C 86.785156 91.480469 86.824219 91.460938 86.867188 91.460938 C 86.90625 91.460938 86.945312 91.480469 86.976562 91.519531 C 87.035156 91.601562 87.035156 91.730469 86.976562 91.8125 C 86.113281 92.980469 85.382812 94.304688 84.804688 95.75 C 84.777344 95.820312 84.722656 95.867188 84.664062 95.867188 Z M 84.664062 95.867188 "/>
<path style=" stroke:none;fill-rule:nonzero;fill:rgb(100%,100%,100%);fill-opacity:1;" d="M 97.949219 92.917969 C 97.898438 92.917969 97.847656 92.882812 97.820312 92.824219 C 97.742188 92.671875 95.945312 89.074219 93.808594 86.949219 C 93.742188 86.882812 93.726562 86.75 93.777344 86.660156 C 93.832031 86.570312 93.925781 86.550781 93.996094 86.617188 C 96.128906 88.761719 97.882812 92.207031 98.078125 92.589844 C 98.125 92.6875 98.105469 92.816406 98.035156 92.878906 C 98.011719 92.902344 97.980469 92.917969 97.949219 92.917969 Z M 97.949219 92.917969 "/>
<path style=" stroke:none;fill-rule:nonzero;fill:rgb(100%,100%,100%);fill-opacity:1;" d="M 78.148438 20.542969 L 97.121094 20.542969 L 97.121094 38.300781 L 78.148438 38.300781 Z M 78.148438 20.542969 "/>
<path style=" stroke:none;fill-rule:nonzero;fill:rgb(81.960784%,82.745098%,83.137255%);fill-opacity:1;" d="M 97.117188 38.507812 L 78.148438 38.507812 C 78.0625 38.507812 77.992188 38.414062 77.992188 38.300781 L 77.992188 20.542969 C 77.992188 20.425781 78.0625 20.332031 78.148438 20.332031 L 97.117188 20.332031 C 97.203125 20.332031 97.273438 20.425781 97.273438 20.542969 L 97.273438 38.300781 C 97.273438 38.414062 97.203125 38.507812 97.117188 38.507812 Z M 78.304688 38.089844 L 96.960938 38.089844 L 96.960938 20.75 L 78.304688 20.75 Z M 78.304688 38.089844 "/>
<path style=" stroke:none;fill-rule:nonzero;fill:rgb(13.72549%,12.156863%,12.54902%);fill-opacity:1;" d="M 90.394531 55.160156 C 90.316406 55.15625 90.25 55.085938 90.238281 54.984375 L 89.46875 48.332031 L 88.125 49.125 C 88.085938 49.148438 88.042969 49.148438 88.003906 49.128906 C 87.964844 49.109375 87.933594 49.066406 87.917969 49.015625 C 87.902344 48.964844 87.902344 48.910156 87.917969 48.859375 C 87.933594 48.808594 87.960938 48.765625 88 48.746094 L 89.535156 47.863281 C 89.578125 47.832031 89.628906 47.832031 89.671875 47.863281 C 89.714844 47.894531 89.746094 47.949219 89.753906 48.011719 L 90.554688 54.910156 C 90.558594 54.964844 90.550781 55.019531 90.527344 55.066406 C 90.5 55.109375 90.464844 55.140625 90.421875 55.144531 Z M 90.394531 55.160156 "/>
<path style=" stroke:none;fill-rule:nonzero;fill:rgb(100%,100%,100%);fill-opacity:1;" d="M 93.042969 62.296875 L 89.132812 62.296875 L 88.917969 51.066406 L 93.257812 51.066406 Z M 93.042969 62.296875 "/>
<path style=" stroke:none;fill-rule:nonzero;fill:rgb(13.72549%,12.156863%,12.54902%);fill-opacity:1;" d="M 93.042969 62.5 L 89.132812 62.5 C 89.046875 62.5 88.976562 62.410156 88.976562 62.300781 L 88.75 51.074219 C 88.75 51.019531 88.765625 50.964844 88.792969 50.925781 C 88.824219 50.882812 88.863281 50.859375 88.90625 50.859375 L 93.242188 50.859375 C 93.332031 50.863281 93.398438 50.960938 93.398438 51.074219 L 93.1875 62.324219 C 93.175781 62.421875 93.117188 62.492188 93.042969 62.5 Z M 89.292969 62.082031 L 92.898438 62.082031 L 93.101562 51.269531 L 89.078125 51.269531 Z M 89.292969 62.082031 "/>
<path style=" stroke:none;fill-rule:nonzero;fill:rgb(100%,100%,100%);fill-opacity:1;" d="M 88.523438 49.929688 L 93.652344 49.929688 L 93.652344 51.066406 L 88.523438 51.066406 Z M 88.523438 49.929688 "/>
<path style=" stroke:none;fill-rule:nonzero;fill:rgb(13.72549%,12.156863%,12.54902%);fill-opacity:1;" d="M 93.652344 51.273438 L 88.523438 51.273438 C 88.4375 51.273438 88.367188 51.183594 88.367188 51.066406 L 88.367188 49.929688 C 88.367188 49.8125 88.4375 49.722656 88.523438 49.722656 L 93.652344 49.722656 C 93.738281 49.722656 93.808594 49.8125 93.808594 49.929688 L 93.808594 51.066406 C 93.808594 51.183594 93.738281 51.273438 93.652344 51.273438 Z M 88.679688 50.859375 L 93.496094 50.859375 L 93.496094 50.136719 L 88.679688 50.136719 Z M 88.679688 50.859375 "/>
<path style=" stroke:none;fill-rule:nonzero;fill:rgb(81.960784%,82.745098%,83.137255%);fill-opacity:1;" d="M 91.171875 58.503906 C 90.402344 58.589844 89.671875 58.042969 89.332031 57.117188 C 88.988281 56.195312 89.109375 55.085938 89.628906 54.324219 C 90.152344 53.566406 90.96875 53.308594 91.6875 53.679688 C 92.410156 54.050781 92.882812 54.972656 92.886719 56.003906 C 92.929688 57.324219 92.164062 58.445312 91.171875 58.503906 Z M 91.171875 53.941406 C 90.53125 53.855469 89.914062 54.300781 89.621094 55.070312 C 89.328125 55.835938 89.417969 56.765625 89.851562 57.40625 C 90.28125 58.046875 90.964844 58.265625 91.566406 57.960938 C 92.171875 57.65625 92.570312 56.886719 92.574219 56.023438 C 92.617188 54.933594 91.988281 54.003906 91.171875 53.941406 Z M 91.171875 53.941406 "/>
<path style=" stroke:none;fill-rule:nonzero;fill:rgb(81.960784%,82.745098%,83.137255%);fill-opacity:1;" d="M 83.71875 34.785156 C 83.335938 34.78125 82.957031 34.691406 82.59375 34.523438 C 82.121094 34.328125 81.664062 34.066406 81.226562 33.75 C 81.121094 33.671875 81.019531 33.578125 80.914062 33.488281 C 80.386719 33.03125 80.023438 32.308594 79.914062 31.484375 C 79.871094 31.183594 79.910156 30.875 80.019531 30.609375 C 80.191406 30.292969 80.429688 30.050781 80.707031 29.914062 C 80.890625 29.8125 81.058594 29.671875 81.207031 29.496094 C 81.519531 29.050781 81.398438 28.398438 81.273438 27.710938 C 81.238281 27.539062 81.207031 27.367188 81.179688 27.199219 C 81.023438 26.121094 81.242188 25.003906 81.773438 24.167969 C 82.359375 23.292969 83.222656 22.847656 84.097656 22.960938 C 85.308594 23.144531 86.265625 23.925781 86.722656 25.097656 C 87.128906 26.207031 87.078125 27.519531 86.59375 28.570312 C 86.425781 28.886719 86.328125 29.265625 86.320312 29.652344 C 86.382812 29.996094 86.519531 30.308594 86.710938 30.554688 C 86.933594 30.855469 87.089844 31.230469 87.164062 31.640625 C 87.242188 32.324219 86.902344 32.980469 86.132812 33.640625 C 85.429688 34.332031 84.589844 34.730469 83.71875 34.785156 Z M 81.382812 33.382812 C 81.800781 33.6875 82.238281 33.9375 82.695312 34.128906 C 84.011719 34.730469 85.046875 34.074219 85.96875 33.296875 C 86.625 32.726562 86.90625 32.207031 86.859375 31.703125 C 86.789062 31.371094 86.65625 31.066406 86.472656 30.820312 C 86.242188 30.515625 86.082031 30.125 86.011719 29.699219 C 86.007812 29.234375 86.113281 28.78125 86.308594 28.398438 C 86.753906 27.460938 86.804688 26.289062 86.445312 25.289062 C 86.039062 24.242188 85.171875 23.546875 84.066406 23.375 C 83.292969 23.273438 82.53125 23.667969 82.011719 24.441406 C 81.542969 25.183594 81.351562 26.167969 81.492188 27.121094 C 81.515625 27.277344 81.546875 27.445312 81.578125 27.613281 C 81.710938 28.339844 81.867188 29.171875 81.4375 29.777344 C 81.265625 29.996094 81.066406 30.171875 80.847656 30.296875 C 80.628906 30.402344 80.433594 30.589844 80.289062 30.832031 C 80.21875 31.019531 80.195312 31.234375 80.226562 31.441406 C 80.332031 32.148438 80.648438 32.769531 81.101562 33.160156 C 81.195312 33.246094 81.289062 33.328125 81.382812 33.402344 Z M 81.382812 33.382812 "/>
<path style=" stroke:none;fill-rule:nonzero;fill:rgb(81.960784%,82.745098%,83.137255%);fill-opacity:1;" d="M 92.226562 34.664062 C 91.425781 34.648438 90.632812 34.429688 89.894531 34.015625 L 89.738281 33.933594 C 89.074219 33.425781 88.25 33.46875 87.617188 34.042969 C 87.273438 34.277344 86.90625 34.441406 86.527344 34.527344 C 85.667969 34.628906 84.828125 34.144531 84.292969 33.238281 C 83.839844 32.5625 83.542969 31.726562 83.4375 30.832031 C 83.308594 29.730469 83.730469 28.640625 84.484375 28.144531 C 85.210938 27.730469 85.980469 28.015625 86.730469 28.300781 C 87.269531 28.554688 87.839844 28.671875 88.410156 28.640625 C 88.847656 28.542969 89.269531 28.351562 89.660156 28.066406 C 89.914062 27.898438 90.179688 27.75 90.445312 27.621094 C 91.695312 27.066406 94.113281 27.621094 95.0625 29.011719 C 95.582031 29.742188 95.78125 30.78125 95.578125 31.75 C 95.289062 33.015625 94.550781 34.011719 93.605469 34.410156 C 93.160156 34.589844 92.695312 34.675781 92.226562 34.664062 Z M 88.769531 33.164062 L 88.84375 33.164062 C 89.195312 33.207031 89.539062 33.335938 89.859375 33.542969 L 90.007812 33.625 C 91.101562 34.28125 92.332031 34.410156 93.488281 33.988281 C 94.332031 33.636719 94.992188 32.753906 95.257812 31.625 C 95.425781 30.789062 95.257812 29.898438 94.808594 29.269531 C 93.953125 28.019531 91.667969 27.484375 90.523438 27.996094 C 90.269531 28.113281 90.015625 28.253906 89.773438 28.414062 C 89.355469 28.71875 88.90625 28.933594 88.4375 29.042969 C 87.824219 29.078125 87.214844 28.957031 86.636719 28.683594 C 85.914062 28.410156 85.226562 28.144531 84.601562 28.511719 C 83.984375 28.941406 83.640625 29.847656 83.75 30.765625 C 83.851562 31.585938 84.125 32.347656 84.542969 32.960938 C 84.875 33.457031 85.570312 34.273438 86.507812 34.117188 C 86.851562 34.03125 87.1875 33.878906 87.5 33.664062 C 87.890625 33.375 88.324219 33.207031 88.769531 33.164062 Z M 88.769531 33.164062 "/>
<path style=" stroke:none;fill-rule:nonzero;fill:rgb(81.960784%,82.745098%,83.137255%);fill-opacity:1;" d="M 91.785156 31.542969 C 91.363281 31.578125 90.953125 31.347656 90.675781 30.921875 C 90.523438 30.71875 90.347656 30.546875 90.15625 30.417969 C 89.925781 30.273438 89.679688 30.183594 89.429688 30.152344 C 88.972656 30.136719 88.546875 29.863281 88.25 29.402344 C 87.921875 28.835938 87.792969 28.101562 87.902344 27.394531 C 88.035156 26.472656 88.457031 25.667969 89.058594 25.179688 C 90.707031 23.886719 93.761719 25.234375 94.757812 27.140625 C 95.113281 27.816406 95.515625 29.152344 94.257812 30.507812 C 93.597656 31.160156 92.804688 31.523438 91.980469 31.550781 Z M 90.660156 25.066406 C 90.15625 25.042969 89.660156 25.199219 89.21875 25.515625 C 88.695312 25.945312 88.328125 26.644531 88.210938 27.449219 C 88.117188 28.035156 88.222656 28.644531 88.496094 29.117188 C 88.742188 29.492188 89.097656 29.710938 89.472656 29.714844 C 90.015625 29.761719 90.523438 30.082031 90.890625 30.617188 C 91.152344 31.03125 91.5625 31.21875 91.960938 31.113281 C 92.71875 31.082031 93.449219 30.753906 94.0625 30.167969 C 94.859375 29.304688 95 28.332031 94.503906 27.363281 C 93.835938 26.078125 92.117188 25.066406 90.660156 25.066406 Z M 90.660156 25.066406 "/>
<path style=" stroke:none;fill-rule:nonzero;fill:rgb(13.72549%,12.156863%,12.54902%);fill-opacity:1;" d="M 44.09375 30.023438 C 44.09375 30.023438 45.101562 28.933594 44.09375 27.523438 L 42.464844 27.523438 C 42.464844 27.523438 42.816406 29.347656 42.464844 30.023438 Z M 44.09375 30.023438 "/>
<path style=" stroke:none;fill-rule:nonzero;fill:rgb(13.72549%,12.156863%,12.54902%);fill-opacity:1;" d="M 44.09375 30.234375 L 42.464844 30.234375 C 42.40625 30.234375 42.351562 30.1875 42.324219 30.121094 C 42.296875 30.054688 42.296875 29.972656 42.324219 29.902344 C 42.578125 29.417969 42.394531 28.0625 42.300781 27.582031 C 42.289062 27.519531 42.300781 27.453125 42.328125 27.398438 C 42.359375 27.351562 42.40625 27.320312 42.453125 27.320312 L 44.082031 27.320312 C 44.125 27.324219 44.164062 27.34375 44.195312 27.382812 C 44.511719 27.769531 44.691406 28.320312 44.6875 28.894531 C 44.648438 29.398438 44.46875 29.859375 44.179688 30.1875 C 44.15625 30.214844 44.125 30.230469 44.09375 30.234375 Z M 42.710938 29.816406 L 44.03125 29.816406 C 44.226562 29.566406 44.347656 29.226562 44.375 28.867188 C 44.375 28.441406 44.246094 28.03125 44.015625 27.738281 L 42.652344 27.738281 C 42.785156 28.417969 42.804688 29.125 42.710938 29.816406 Z M 42.710938 29.816406 "/>
<path style=" stroke:none;fill-rule:nonzero;fill:rgb(100%,100%,100%);fill-opacity:1;" d="M 43.210938 29.199219 C 43.257812 28.707031 43.125 28.214844 42.855469 27.871094 C 42.738281 27.664062 42.597656 27.476562 42.445312 27.3125 C 42.152344 27.058594 41.824219 26.886719 41.480469 26.804688 C 40.722656 26.558594 39.835938 26.871094 39.058594 26.890625 C 38.226562 26.914062 37.398438 26.707031 36.628906 26.292969 C 36.363281 26.171875 36.125 25.964844 35.9375 25.6875 C 35.742188 27.199219 35.769531 28.867188 36.421875 30.136719 C 36.976562 31.097656 37.742188 31.800781 38.609375 32.148438 C 39.785156 32.78125 41.125 32.523438 42.117188 31.472656 C 42.5625 31.023438 42.910156 30.417969 43.113281 29.726562 C 43.15625 29.554688 43.191406 29.378906 43.210938 29.199219 Z M 43.210938 29.199219 "/>
<path style=" stroke:none;fill-rule:nonzero;fill:rgb(13.72549%,12.156863%,12.54902%);fill-opacity:1;" d="M 39.960938 32.691406 C 39.476562 32.683594 39 32.566406 38.542969 32.347656 C 37.644531 31.984375 36.855469 31.253906 36.285156 30.261719 C 35.699219 29.125 35.53125 27.578125 35.777344 25.679688 C 35.789062 25.597656 35.835938 25.535156 35.894531 25.511719 C 35.953125 25.492188 36.015625 25.523438 36.054688 25.585938 C 36.226562 25.835938 36.4375 26.019531 36.679688 26.128906 C 37.4375 26.515625 38.25 26.699219 39.0625 26.667969 C 39.320312 26.667969 39.585938 26.621094 39.867188 26.578125 C 40.414062 26.453125 40.976562 26.453125 41.523438 26.578125 C 41.890625 26.664062 42.238281 26.851562 42.550781 27.121094 C 42.710938 27.296875 42.855469 27.496094 42.984375 27.710938 C 43.285156 28.101562 43.425781 28.65625 43.367188 29.207031 C 43.34375 29.402344 43.304688 29.59375 43.253906 29.773438 C 43.039062 30.503906 42.675781 31.136719 42.210938 31.613281 C 41.574219 32.304688 40.78125 32.683594 39.960938 32.691406 Z M 36.039062 26.113281 C 35.878906 27.738281 36.039062 29.027344 36.542969 30.015625 C 37.074219 30.941406 37.8125 31.621094 38.648438 31.953125 C 39.777344 32.558594 41.058594 32.3125 42.011719 31.308594 C 42.433594 30.878906 42.757812 30.300781 42.949219 29.640625 C 42.996094 29.484375 43.03125 29.324219 43.054688 29.160156 C 43.09375 28.726562 42.976562 28.292969 42.742188 27.992188 C 42.625 27.808594 42.496094 27.644531 42.351562 27.5 C 42.074219 27.265625 41.765625 27.105469 41.445312 27.027344 C 40.925781 26.910156 40.398438 26.910156 39.882812 27.027344 C 39.605469 27.066406 39.320312 27.109375 39.050781 27.117188 C 38.195312 27.136719 37.34375 26.925781 36.550781 26.503906 C 36.367188 26.402344 36.199219 26.269531 36.039062 26.113281 Z M 43.210938 29.199219 Z M 43.210938 29.199219 "/>
<path style=" stroke:none;fill-rule:nonzero;fill:rgb(100%,100%,100%);fill-opacity:1;" d="M 62.5 18.335938 L 75.769531 18.335938 L 75.769531 30.019531 L 62.5 30.019531 Z M 62.5 18.335938 "/>
<path style=" stroke:none;fill-rule:nonzero;fill:rgb(81.960784%,82.745098%,83.137255%);fill-opacity:1;" d="M 75.769531 30.234375 L 62.5 30.234375 C 62.414062 30.234375 62.34375 30.140625 62.34375 30.023438 L 62.34375 18.332031 C 62.34375 18.21875 62.414062 18.125 62.5 18.125 L 75.769531 18.125 C 75.855469 18.128906 75.921875 18.21875 75.925781 18.332031 L 75.925781 30.023438 C 75.921875 30.140625 75.855469 30.230469 75.769531 30.234375 Z M 62.644531 29.816406 L 75.625 29.816406 L 75.625 18.546875 L 62.65625 18.546875 Z M 62.644531 29.816406 "/>
<path style=" stroke:none;fill-rule:nonzero;fill:rgb(100%,100%,100%);fill-opacity:1;" d="M 62.5 30.023438 L 75.769531 30.023438 L 75.769531 32.335938 L 62.5 32.335938 Z M 62.5 30.023438 "/>
<path style=" stroke:none;fill-rule:nonzero;fill:rgb(81.960784%,82.745098%,83.137255%);fill-opacity:1;" d="M 75.769531 32.546875 L 62.5 32.546875 C 62.414062 32.546875 62.34375 32.453125 62.34375 32.335938 L 62.34375 30.023438 C 62.34375 29.910156 62.414062 29.816406 62.5 29.816406 L 75.769531 29.816406 C 75.855469 29.816406 75.925781 29.910156 75.925781 30.023438 L 75.925781 32.335938 C 75.925781 32.453125 75.855469 32.546875 75.769531 32.546875 Z M 62.644531 32.128906 L 75.625 32.128906 L 75.625 30.234375 L 62.65625 30.234375 Z M 62.644531 32.128906 "/>
<path style=" stroke:none;fill-rule:nonzero;fill:rgb(81.960784%,82.745098%,83.137255%);fill-opacity:1;" d="M 64.019531 27.304688 C 63.957031 27.308594 63.902344 27.261719 63.875 27.1875 C 63.847656 27.117188 63.855469 27.027344 63.898438 26.964844 C 64.046875 26.714844 67.648438 20.828125 71.003906 21.183594 C 72.339844 21.324219 73.253906 22.257812 73.445312 23.683594 C 73.625 24.9375 73.152344 26.195312 72.289062 26.75 C 71.351562 27.328125 70.480469 27.320312 69.875 26.726562 C 69.339844 26.152344 69.089844 25.230469 69.230469 24.332031 C 69.257812 23.554688 69.648438 22.886719 70.210938 22.667969 C 70.785156 22.464844 71.398438 22.695312 71.808594 23.269531 C 72 23.550781 72.039062 23.957031 71.914062 24.292969 C 71.675781 24.902344 71.394531 25.226562 71.074219 25.242188 C 70.566406 25.242188 70.191406 24.472656 70.175781 24.4375 C 70.152344 24.390625 70.148438 24.332031 70.15625 24.277344 C 70.167969 24.226562 70.191406 24.179688 70.226562 24.148438 C 70.261719 24.121094 70.304688 24.113281 70.34375 24.125 C 70.386719 24.140625 70.417969 24.171875 70.441406 24.222656 C 70.523438 24.390625 70.78125 24.847656 71.066406 24.824219 C 71.351562 24.804688 71.507812 24.410156 71.632812 24.101562 C 71.707031 23.910156 71.675781 23.683594 71.566406 23.535156 C 71.234375 23.085938 70.75 22.90625 70.292969 23.066406 C 69.855469 23.246094 69.554688 23.777344 69.539062 24.386719 C 69.417969 25.128906 69.617188 25.902344 70.058594 26.382812 C 70.570312 26.886719 71.335938 26.882812 72.15625 26.382812 C 72.890625 25.902344 73.292969 24.820312 73.125 23.75 C 72.960938 22.527344 72.152344 21.726562 70.964844 21.601562 C 67.789062 21.25 64.175781 27.167969 64.140625 27.230469 C 64.109375 27.277344 64.066406 27.304688 64.019531 27.304688 Z M 64.019531 27.304688 "/>
<path style=" stroke:none;fill-rule:nonzero;fill:rgb(81.960784%,82.745098%,83.137255%);fill-opacity:1;" d="M 69.199219 40.886719 L 64.085938 40.886719 C 64 40.886719 63.929688 40.792969 63.929688 40.679688 L 63.929688 35.261719 C 63.929688 35.148438 64 35.054688 64.085938 35.054688 L 69.199219 35.054688 C 69.285156 35.054688 69.355469 35.148438 69.355469 35.261719 L 69.355469 40.679688 C 69.355469 40.792969 69.285156 40.886719 69.199219 40.886719 Z M 64.242188 40.472656 L 69.042969 40.472656 L 69.042969 35.472656 L 64.242188 35.472656 Z M 64.242188 40.472656 "/>
<path style=" stroke:none;fill-rule:nonzero;fill:rgb(81.960784%,82.745098%,83.137255%);fill-opacity:1;" d="M 66.644531 36.25 C 66.558594 36.25 66.488281 36.15625 66.488281 36.042969 L 66.488281 34.746094 C 66.488281 34.628906 66.558594 34.539062 66.644531 34.539062 C 66.730469 34.539062 66.800781 34.628906 66.800781 34.746094 L 66.800781 36.035156 C 66.800781 36.089844 66.785156 36.144531 66.757812 36.1875 C 66.726562 36.226562 66.6875 36.25 66.644531 36.25 Z M 66.644531 36.25 "/>
</g>
</svg>
