<?xml version="1.0" encoding="utf-8"?>
<!-- Generator: Adobe Illustrator 26.5.0, SVG Export Plug-In . SVG Version: 6.00 Build 0)  -->
<svg version="1.1" xmlns="http://www.w3.org/2000/svg" xmlns:xlink="http://www.w3.org/1999/xlink" x="0px" y="0px"
	 viewBox="0 0 118 118" style="enable-background:new 0 0 118 118;" xml:space="preserve">
<style type="text/css">
	.st0{fill:#98C0F9;}
	.st1{fill:#84B4FB;}
	.st2{fill:#267AF2;}
	.st3{fill:#629FF6;}
	.st4{fill:#466176;}
	.st5{fill:#607789;}
	.st6{fill:#204360;}
	.st7{fill:#8D9DAB;}
	.st8{fill:#E63817;}
	.st9{fill:#8395A4;}
	.st10{fill:#C3DAFB;}
	.st11{fill:#86B5F8;}
	.st12{fill:#4B91F5;}
	.st13{fill:#0E6CF3;}
	.st14{fill:#8495A3;}
	.st15{fill:#476175;}
	.st16{fill:#C2D9FF;}
	.st17{fill:#C3DAFD;}
	.st18{fill:#83B2F8;}
	.st19{opacity:0.41;fill:#267AF2;enable-background:new    ;}
	.st20{fill:#22445F;}
	.st21{fill:#E6E9EC;}
	.st22{fill:#5F7586;}
	.st23{fill:#E6F0FD;}
	.st24{opacity:0.23;fill:#86B5F8;enable-background:new    ;}
	.st25{fill:#C1CAD1;}
	.st26{opacity:0.28;}
	.st27{opacity:0.29;fill:#466176;enable-background:new    ;}
	.st28{fill:#1A6EE8;}
	.st29{fill:#1A5ADE;}
	.st30{fill:#478EF8;}
	.st31{fill:#C1D9FF;}
	.st32{fill:#82B2FD;}
	.st33{fill:#1D76F6;}
	.st34{fill:#7BAEFB;}
	.st35{fill:#71A9FA;}
	.st36{fill:#68A3FA;}
	.st37{fill:#5F9DF9;}
	.st38{fill:#5598F9;}
	.st39{fill:#4C92F8;}
	.st40{fill:#428DF8;}
	.st41{fill:#3987F7;}
	.st42{fill:#3081F7;}
	.st43{fill:#267CF6;}
	.st44{opacity:0.8;fill:#1255E2;enable-background:new    ;}
	.st45{fill:#072B48;}
	.st46{fill:#8193A2;}
	.st47{fill:#1255E2;}
	.st48{fill:#87B5F5;}
	.st49{fill:#4F92F1;}
	.st50{fill:#2D7DED;}
	.st51{fill:#C0C9D0;}
	.st52{fill:#657C8D;}
	.st53{opacity:0.81;fill:#24445E;enable-background:new    ;}
	.st54{fill:#8394A2;}
	.st55{opacity:0.86;fill:#8394A2;enable-background:new    ;}
	.st56{fill:#E5E8EB;}
	.st57{fill:#1F4361;}
	.st58{fill:#072F4F;}
	.st59{opacity:0.45;fill:#82B2FD;enable-background:new    ;}
	.st60{fill:#38546A;}
	.st61{fill:#3A566C;}
	.st62{opacity:0.24;fill:#38546A;enable-background:new    ;}
	.st63{opacity:0.24;fill:#3A566C;enable-background:new    ;}
	.st64{opacity:0.76;fill:#C3DAFD;enable-background:new    ;}
	.st65{fill:#697F90;}
	.st66{display:none;}
	.st67{display:inline;fill:#C1D9FF;}
	.st68{display:inline;fill:#82B2FD;}
	.st69{display:inline;fill:#E6F0FE;}
	.st70{display:inline;fill:#1F4361;}
	.st71{display:inline;fill:#8395A4;}
	.st72{display:inline;fill:#C1CAD1;}
	.st73{display:inline;fill:#466176;}
	.st74{display:inline;fill:#E6E9EC;}
	.st75{display:inline;fill:#1D76F6;}
	.st76{fill:#C1D9FC;}
	.st77{fill:#83B3F9;}
	.st78{fill:#267AF1;}
	.st79{fill:#214460;}
	.st80{fill:#0E6AEB;}
	.st81{opacity:0.3;fill:#1F4361;enable-background:new    ;}
	.st82{opacity:0.41;fill:#1255E2;enable-background:new    ;}
	.st83{fill:#2130C2;}
	.st84{fill:#092C47;}
	.st85{fill:none;stroke:#092C47;stroke-width:0.85;stroke-linecap:round;stroke-miterlimit:10;}
	.st86{fill:#AECDFA;}
	.st87{fill:#E6F0FE;}
	.st88{fill-rule:evenodd;clip-rule:evenodd;fill:#092C47;}
	.st89{opacity:0.59;fill:#466176;enable-background:new    ;}
	.st90{fill:#597084;}
	.st91{fill:#2F4F69;}
	.st92{fill:#C7CFD6;}
	.st93{fill:none;stroke:#8395A4;stroke-width:0.83;stroke-linecap:round;stroke-linejoin:round;}
	.st94{fill:none;stroke:#267AF2;stroke-width:0.74;stroke-miterlimit:10;stroke-dasharray:1.48,1.48;}
	.st95{fill:none;stroke:#7640EA;stroke-miterlimit:10;}
	.st96{opacity:0.66;fill:#267AF2;enable-background:new    ;}
	.st97{opacity:0.66;fill:#0E6CF3;enable-background:new    ;}
	.st98{opacity:0.56;fill:#466176;enable-background:new    ;}
	.st99{opacity:0.85;fill:#22445F;enable-background:new    ;}
	.st100{opacity:0.13;fill:#E6E9EC;enable-background:new    ;}
	.st101{opacity:0.15;fill:#072B48;enable-background:new    ;}
	.st102{opacity:0.55;fill:#8395A4;enable-background:new    ;}
	.st103{opacity:0.54;fill:#C1CAD1;enable-background:new    ;}
	.st104{opacity:0.72;fill:#466176;enable-background:new    ;}
	.st105{opacity:0.28;fill:#8395A4;enable-background:new    ;}
	.st106{opacity:0.42;fill:#8395A4;enable-background:new    ;}
	.st107{opacity:0.7;fill:#8395A4;enable-background:new    ;}
	.st108{opacity:0.45;fill:url(#SVGID_1_);enable-background:new    ;}
	.st109{opacity:0.21;fill:url(#SVGID_00000120531839026033063950000003387573903813003422_);enable-background:new    ;}
	.st110{opacity:0.23;}
	.st111{fill:url(#SVGID_00000096761413112076215450000004116123575430698894_);}
	.st112{fill:url(#SVGID_00000174586604957613063050000005929190700312318368_);}
	.st113{fill:#FFFFFF;}
	.st114{fill-rule:evenodd;clip-rule:evenodd;fill:#FFFFFF;}
	.st115{fill-rule:evenodd;clip-rule:evenodd;fill:#476175;}
	.st116{opacity:0.7;fill:#476175;enable-background:new    ;}
	.st117{opacity:0.8;fill:#22445F;enable-background:new    ;}
	.st118{fill:#738697;}
	.st119{opacity:0.4;fill:#5A7184;enable-background:new    ;}
	.st120{opacity:0.86;fill:#E6E9EC;enable-background:new    ;}
	.st121{fill:#D8DDE2;}
	.st122{opacity:0.94;fill:#C1CAD1;enable-background:new    ;}
	.st123{opacity:0.66;fill:#C1CAD1;enable-background:new    ;}
	.st124{opacity:0.9;fill:#C1CAD1;enable-background:new    ;}
	.st125{opacity:0.28;fill:#22445F;enable-background:new    ;}
</style>
<g id="Urethane_casting">
</g>
<g id="CNC_Turing">
</g>
<g id="Injection_Molding">
	<g>
		<path class="st23" d="M16.3,38.2L10,34.8l30.7-17.6l5.9,3.6L16.3,38.2z"/>
		<path class="st17" d="M48.2,67.2l-31.8,19V38.1l30.2-17.3L48.2,67.2z"/>
		<path class="st11" d="M16.4,86.3l-6.3-3.4L9.9,34.7l6.4,3.5L16.4,86.3z"/>
		<path class="st23" d="M47.9,65.3L16.3,47l30.1-17.5l31.5,18L47.9,65.3z"/>
		<path class="st17" d="M81.5,84.9l-33.6,19.5V65.3l33.6-19.5V84.9z"/>
		<path class="st11" d="M48,104.3L16.3,86V47L48,65.2V104.3z"/>
		<path class="st24" d="M47.8,65.2C35.5,58,28.6,54.1,16.3,47l30.1-17.5l32.2,18.3L47.8,65.2z"/>
		<path class="st23" d="M51.3,57.8l-6.4-3.5l31-17.3l5.8,3.6L51.3,57.8z"/>
		<path class="st17" d="M88.3,84.9l-37,21.1V57.6l36.4-21.5L88.3,84.9z"/>
		<path class="st11" d="M51.3,106.2l-6.4-3.5V54.3l6.4,3.5V106.2z"/>
		<path class="st11" d="M51.4,85.5l-0.1-0.8l36.4-20l0.3,0.5L51.4,85.5z"/>
		<path class="st4" d="M83.5,72.4H73.2l-0.7,1l3.1,9.5L83.5,72.4z"/>
		<path class="st9" d="M88.2,75l-3.5-2c-0.1,0,0,0-0.1,0c-1.7-1.3-4.9,0.2-7.2,3.3c-2.3,3.1-2.7,6.6-1,7.9c0,0,0,0,0,0l3.7,2
			L88.2,75z"/>
		<path class="st4" d="M73.6,73.4c0.2-0.4,0.1-0.8-0.2-0.9c-0.3-0.1-0.7,0.1-0.8,0.5c-0.2,0.4-0.1,0.8,0.2,0.9
			C73.1,74,73.4,73.8,73.6,73.4z"/>
		<path class="st25" d="M101.2,77.5c0,0-10-5.9-10.1-5.9c-2.8-1.6-7.8,1.3-10.9,6.5c-3.1,5.2-3.3,10.8-0.5,12.5c0,0,0,0,0.1,0
			l9.8,5.7L101.2,77.5L101.2,77.5z"/>
		<path class="st9" d="M90.3,96.6c-3.4-1.1-3.2-7.5-0.1-12.6c3-5.1,8.2-8,11.3-6.1c3.1,1.9,3,7.8,0,12.9
			C98.4,95.9,93.8,97.7,90.3,96.6L90.3,96.6z"/>
		<path class="st4" d="M93,45.7h-2.4c-0.6,0-1.1,0.5-1.1,1.1v28.6c0,0.6,0.5,1.1,1.1,1.1H93c0.6,0,1.1-0.5,1.1-1.1V46.8
			C94.1,46.2,93.6,45.7,93,45.7z"/>
		<path class="st4" d="M94.1,67.6l-4.5,0c-0.1,0-1.1-1.1-1.5-2c-1.2-3.3-4.6-11-4.6-11c-0.6-2.7,1.4-3.1,2.3-3.1h12.5
			c0.9,0,2.2,1,1.2,3.1c0,0-3.1,7.7-4.3,11C95,66.5,94.2,67.5,94.1,67.6z"/>
		<path class="st9" d="M110.4,40.2H72.3l8.7,12.5c0.6,1.9,5,3.4,10.5,3.4c4.5,0,8.3-1,9.8-2.4h0.1L110.4,40.2L110.4,40.2z"/>
		<path class="st25" d="M110.4,39.9c0-0.1,0-0.2,0-0.2s0-0.2,0-0.2v-14H72.3V40l0.1,0.2c0.7,3.6,8.9,6.4,19,6.4
			c10.1,0,18.2-2.8,19-6.3l0-0.1L110.4,39.9L110.4,39.9z"/>
		<path class="st21" d="M91.3,32.3c10.5,0,19.1-3.1,19.1-6.9s-8.5-6.9-19.1-6.9c-10.5,0-19.1,3.1-19.1,6.9S80.8,32.3,91.3,32.3z"/>
		<path class="st9" d="M91.4,31.4c9.4,0,17-2.5,17-5.5c0-3-7.6-5.5-17-5.5c-9.4,0-17,2.5-17,5.5C74.4,28.9,82.1,31.4,91.4,31.4z"/>
		<path class="st4" d="M91.8,76.9c1.2,0,2.1-0.5,2.1-1.1c0-0.6-0.9-1.1-2.1-1.1s-2.1,0.5-2.1,1.1C89.7,76.5,90.6,76.9,91.8,76.9z"/>
		<g class="st26">
			<path class="st9" d="M78.2,30.4l0.9,14.4c-3-0.6-5.4-2.4-6.7-3.8c0-0.1-0.2-0.7-0.2-0.7h0v0l0-14.1
				C72.6,27.5,74.9,29.5,78.2,30.4L78.2,30.4z"/>
		</g>
		<path class="st27" d="M84.3,53.5l-0.5-1l-0.5-1L79.3,45c-0.1,0-0.1-0.1-0.2-0.1c-0.7-0.2-2.2-0.7-3.5-1.3
			c-1.1-0.5-1.9-1.2-1.9-1.2l7.8,11.1h0c0,0,0,0.1,0,0.1c0.3,0.4,2,1.5,3.8,1.7l-0.5-0.8L84.3,53.5L84.3,53.5z"/>
		<path class="st28" d="M51.4,84.6l-13.4-7.4L35.2,74l0-2.9c0-0.2-0.1-0.3-0.2-0.5c-0.2-0.4-0.6-1.2-0.6-2.1c0-0.5,0.3-0.9,0.6-1
			c0.1-0.1,0.2-0.2,0.2-0.4l0-1.8c0-0.6-0.3-1.3-0.7-1.5l-9.3-5.5v-2.7l-3.6-2.1v5c0,0.9,0.5,1.8,1.1,2.2l8,4.7
			c0.4,0.2,0.7,0.9,0.7,1.5v1.3l-1.5,1.2V71l1.5,3v2l-1.5,1.2v1.7l1.5,3v1.3c0,0.6-0.3,0.9-0.7,0.6l-8.1-4.7
			c-0.6-0.3-1.3,0.7-1.3,1.6l0.3,4.3l3.6,2.1v-2.7l9.3,5.5c0.4,0.2,0.7,0,0.7-0.6l0-2.6c0-0.2-0.1-0.5-0.2-0.7
			c-0.2-0.4-0.5-0.9-0.5-1.3c0-0.5,0.3-0.7,0.5-0.7c0.2,0,0.3-0.2,0.3-0.4v-3l2.6,0.1l13.5,7.2L51.4,84.6L51.4,84.6z"/>
		<path class="st29" d="M21.4,89l-0.2-0.1v-3.7l0-2.1c0-0.1,0-2.5,0-3.1c0-0.4,0.4-0.8,0.7-1c0.3-0.1,0.5-0.2,0.7,0
			c2.2,1.3,4.9,2.8,4.9,2.8l2.9,1.7c0.1,0,0.3,0,0.4,0c0.1-0.1,0.2-0.2,0.2-0.4l0-1l-1.6-3l0.1-1.8l0.9-0.8c0.4-0.3,0.6-0.7,0.6-1.1
			v-0.6c0-0.3-0.1-0.7-0.3-1l-1.4-2.5l0.2-1.9l0.7-0.7c0.4-0.3,0.7-0.9,0.6-1.4c-0.1-0.6-0.3-1.1-0.6-1.6l-2.6-1.4
			c-0.2-0.1-4.6-2.2-5.9-3.4c-0.6-0.5-0.6-1-0.6-2.2c0-0.2,0-0.8,0-1c0-1.1,0-4,0-4.1v-0.5l0-3.1c0.4,0.2,0.2,0.1,0.6,0.4l0,1.2
			l0,2.3c0,0.9,0,3.1,0,3.8c0.1,0.9-0.3,1.9,0.4,2.7c1.1,1.2,5.5,3.1,5.8,3.3l2.8,1.6c0.4,0.6,0.7,1.2,0.8,2
			c0.1,0.7-0.2,1.5-0.8,1.9l-0.5,0.5L30.1,71l1.3,2.3c0.2,0.4,0.3,0.8,0.3,1.3v0.6c0,0.6-0.3,1.2-0.8,1.6l-0.7,0.6l-0.1,1.3l1.6,3
			l0,1.2c0,0.4-0.2,0.7-0.5,0.9c-0.3,0.2-0.7,0.2-1,0.1l-2.9-1.7c0,0-4.7-2.8-5-2.8c-0.2,0-0.2,0-0.4,0.1c-0.1,0.1-0.1,0.3-0.1,0.4
			c0,0.6,0,3,0,3l0,1.8l0,4.4L21.4,89z"/>
	</g>
</g>
<g id="Sheet_metal">
</g>
<g id="_x33_D_printing">
</g>
<g id="buy_material">
</g>
<g id="Laser_cutting">
</g>
<g id="Carbon_DSL_Printing">
</g>
<g id="CNC_Machining">
</g>
<g id="water_jet_Cuttin">
</g>
<g id="_x33_D_Printing">
</g>
<g id="Tube_Cutting">
</g>
<g id="Tube_bending">
</g>
<g id="Extrusion">
</g>
<g id="Die_casting">
</g>
<g id="Metal_Staming">
</g>
</svg>
