<?xml version="1.0" encoding="utf-8"?>
<!-- Generator: Adobe Illustrator 26.5.0, SVG Export Plug-In . SVG Version: 6.00 Build 0)  -->
<svg version="1.1" xmlns="http://www.w3.org/2000/svg" xmlns:xlink="http://www.w3.org/1999/xlink" x="0px" y="0px"
	 viewBox="0 0 118 118" style="enable-background:new 0 0 118 118;" xml:space="preserve">
<style type="text/css">
	.st0{fill:#98C0F9;}
	.st1{fill:#84B4FB;}
	.st2{fill:#267AF2;}
	.st3{fill:#629FF6;}
	.st4{fill:#466176;}
	.st5{fill:#607789;}
	.st6{fill:#204360;}
	.st7{fill:#8D9DAB;}
	.st8{fill:#E63817;}
	.st9{fill:#8395A4;}
	.st10{fill:#C3DAFB;}
	.st11{fill:#86B5F8;}
	.st12{fill:#4B91F5;}
	.st13{fill:#0E6CF3;}
	.st14{fill:#8495A3;}
	.st15{fill:#476175;}
	.st16{fill:#C2D9FF;}
	.st17{fill:#C3DAFD;}
	.st18{fill:#83B2F8;}
	.st19{opacity:0.41;fill:#267AF2;enable-background:new    ;}
	.st20{fill:#22445F;}
	.st21{fill:#E6E9EC;}
	.st22{fill:#5F7586;}
	.st23{fill:#E6F0FD;}
	.st24{opacity:0.23;fill:#86B5F8;enable-background:new    ;}
	.st25{fill:#C1CAD1;}
	.st26{opacity:0.28;}
	.st27{opacity:0.29;fill:#466176;enable-background:new    ;}
	.st28{fill:#1A6EE8;}
	.st29{fill:#1A5ADE;}
	.st30{fill:#478EF8;}
	.st31{fill:#C1D9FF;}
	.st32{fill:#82B2FD;}
	.st33{fill:#1D76F6;}
	.st34{fill:#7BAEFB;}
	.st35{fill:#71A9FA;}
	.st36{fill:#68A3FA;}
	.st37{fill:#5F9DF9;}
	.st38{fill:#5598F9;}
	.st39{fill:#4C92F8;}
	.st40{fill:#428DF8;}
	.st41{fill:#3987F7;}
	.st42{fill:#3081F7;}
	.st43{fill:#267CF6;}
	.st44{opacity:0.8;fill:#1255E2;enable-background:new    ;}
	.st45{fill:#072B48;}
	.st46{fill:#8193A2;}
	.st47{fill:#1255E2;}
	.st48{fill:#87B5F5;}
	.st49{fill:#4F92F1;}
	.st50{fill:#2D7DED;}
	.st51{fill:#C0C9D0;}
	.st52{fill:#657C8D;}
	.st53{opacity:0.81;fill:#24445E;enable-background:new    ;}
	.st54{fill:#8394A2;}
	.st55{opacity:0.86;fill:#8394A2;enable-background:new    ;}
	.st56{fill:#E5E8EB;}
	.st57{fill:#1F4361;}
	.st58{fill:#072F4F;}
	.st59{opacity:0.45;fill:#82B2FD;enable-background:new    ;}
	.st60{fill:#38546A;}
	.st61{fill:#3A566C;}
	.st62{opacity:0.24;fill:#38546A;enable-background:new    ;}
	.st63{opacity:0.24;fill:#3A566C;enable-background:new    ;}
	.st64{opacity:0.76;fill:#C3DAFD;enable-background:new    ;}
	.st65{fill:#697F90;}
	.st66{display:none;}
	.st67{display:inline;fill:#C1D9FF;}
	.st68{display:inline;fill:#82B2FD;}
	.st69{display:inline;fill:#E6F0FE;}
	.st70{display:inline;fill:#1F4361;}
	.st71{display:inline;fill:#8395A4;}
	.st72{display:inline;fill:#C1CAD1;}
	.st73{display:inline;fill:#466176;}
	.st74{display:inline;fill:#E6E9EC;}
	.st75{display:inline;fill:#1D76F6;}
	.st76{fill:#C1D9FC;}
	.st77{fill:#83B3F9;}
	.st78{fill:#267AF1;}
	.st79{fill:#214460;}
	.st80{fill:#0E6AEB;}
	.st81{opacity:0.3;fill:#1F4361;enable-background:new    ;}
	.st82{opacity:0.41;fill:#1255E2;enable-background:new    ;}
	.st83{fill:#2130C2;}
	.st84{fill:#092C47;}
	.st85{fill:none;stroke:#092C47;stroke-width:0.85;stroke-linecap:round;stroke-miterlimit:10;}
	.st86{fill:#AECDFA;}
	.st87{fill:#E6F0FE;}
	.st88{fill-rule:evenodd;clip-rule:evenodd;fill:#092C47;}
	.st89{opacity:0.59;fill:#466176;enable-background:new    ;}
	.st90{fill:#597084;}
	.st91{fill:#2F4F69;}
	.st92{fill:#C7CFD6;}
	.st93{fill:none;stroke:#8395A4;stroke-width:0.83;stroke-linecap:round;stroke-linejoin:round;}
	.st94{fill:none;stroke:#267AF2;stroke-width:0.74;stroke-miterlimit:10;stroke-dasharray:1.48,1.48;}
	.st95{fill:none;stroke:#7640EA;stroke-miterlimit:10;}
	.st96{opacity:0.66;fill:#267AF2;enable-background:new    ;}
	.st97{opacity:0.66;fill:#0E6CF3;enable-background:new    ;}
	.st98{opacity:0.56;fill:#466176;enable-background:new    ;}
	.st99{opacity:0.85;fill:#22445F;enable-background:new    ;}
	.st100{opacity:0.13;fill:#E6E9EC;enable-background:new    ;}
	.st101{opacity:0.15;fill:#072B48;enable-background:new    ;}
	.st102{opacity:0.55;fill:#8395A4;enable-background:new    ;}
	.st103{opacity:0.54;fill:#C1CAD1;enable-background:new    ;}
	.st104{opacity:0.72;fill:#466176;enable-background:new    ;}
	.st105{opacity:0.28;fill:#8395A4;enable-background:new    ;}
	.st106{opacity:0.42;fill:#8395A4;enable-background:new    ;}
	.st107{opacity:0.7;fill:#8395A4;enable-background:new    ;}
	.st108{opacity:0.45;fill:url(#SVGID_1_);enable-background:new    ;}
	.st109{opacity:0.21;fill:url(#SVGID_00000045582286534284579350000009896864720231538853_);enable-background:new    ;}
	.st110{opacity:0.23;}
	.st111{fill:url(#SVGID_00000011717666949932708450000001093488845644031884_);}
	.st112{fill:url(#SVGID_00000048495121606571645290000012649872347021042346_);}
	.st113{fill:#FFFFFF;}
	.st114{fill-rule:evenodd;clip-rule:evenodd;fill:#FFFFFF;}
	.st115{fill-rule:evenodd;clip-rule:evenodd;fill:#476175;}
	.st116{opacity:0.7;fill:#476175;enable-background:new    ;}
	.st117{opacity:0.8;fill:#22445F;enable-background:new    ;}
	.st118{fill:#738697;}
	.st119{opacity:0.4;fill:#5A7184;enable-background:new    ;}
	.st120{opacity:0.86;fill:#E6E9EC;enable-background:new    ;}
	.st121{fill:#D8DDE2;}
	.st122{opacity:0.94;fill:#C1CAD1;enable-background:new    ;}
	.st123{opacity:0.66;fill:#C1CAD1;enable-background:new    ;}
	.st124{opacity:0.9;fill:#C1CAD1;enable-background:new    ;}
	.st125{opacity:0.28;fill:#22445F;enable-background:new    ;}
</style>
<g id="Urethane_casting">
</g>
<g id="CNC_Turing">
</g>
<g id="Injection_Molding">
</g>
<g id="Sheet_metal">
</g>
<g id="_x33_D_printing">
</g>
<g id="buy_material">
</g>
<g id="Laser_cutting">
	<g>
		<path class="st31" d="M58.8,100.8L18.1,77.4l40.6-23.5l40.6,23.5L58.8,100.8z"/>
		<path class="st32" d="M99.4,85.5l-40.6,23.5v-8.1l40.6-23.5V85.5z"/>
		<path class="st33" d="M58.8,108.9L18.1,85.5v-8.1l40.6,23.5V108.9z"/>
		<path class="st33" d="M77.9,78.4l5.9-1.5l-2.4-5l-6.2,0.4c-0.4-0.5-1-0.9-1.5-1.3l2.8-3.3l-6.5-2.6L66,67.6
			c-1.2-0.3-2.5-0.5-3.9-0.6l-1.4-3.3L53.6,64l-0.4,3.4c-1.2,0.3-2.4,0.6-3.5,1L45,66.5l-5.8,3.4l3.7,2.9c-0.4,0.5,3.7-0.2,3.7-0.2
			l-3.1-2.4l1.6-0.9l4.4,1.8l0.5-0.2c1.4-0.5,2.9-0.9,4.4-1.2l0.9-0.2l0.4-3.1l3.4-0.2l1.3,3.1l0.7,0.1c1.6,0.1,3.2,0.3,4.7,0.7
			l0.5,0.1l3.9-2.4l2.2,0.9l-2.4,2.8l1.2,0.7c1,0.6,1.9,1.3,2.6,2.1l0.4,0.4l5.7-0.4l0.4,0.8l-5,1.3l0.1,1c0.1,0.7,0,1.5-0.3,2.2
			L74.7,81l4.6,1.8l-0.7,0.9L73,82.7l-0.4,0.3c-0.5,0.4-1,0.7-1.6,1.1c-0.4,0.3-0.9,0.5-1.5,0.8l-1.2,0.5l1.6,3.2l-2.7,0.7L64,86.5
			l-0.6,0.1c-0.8,0.1-1.7,0.2-2.5,0.2L60,89.3c1.1,0,2.2-0.1,3.2-0.2l3.4,2.9l6.9-1.9l-1.8-3.6c0.2-0.1,0.4-0.2,0.6-0.3
			c0.5-0.3,1-0.6,1.4-0.9l6,1l3.7-4.6l-5.6-2.1C77.9,79.2,77.9,78.8,77.9,78.4L77.9,78.4z"/>
		<path class="st57" d="M44.4,44.6h-0.1c-1,0-1.8,0.8-1.8,1.8v24.9c0,1,0.8,1.8,1.8,1.8h0.1c1,0,1.8-0.8,1.8-1.8V46.4
			C46.2,45.4,45.4,44.6,44.4,44.6z"/>
		<path class="st9" d="M44.3,44.6C44.3,44.6,44.3,44.6,44.3,44.6c1.1,0,1.9,0.9,1.9,1.9v24.7c0,1.1-0.8,1.9-1.9,1.9c0,0,0,0,0,0
			V44.6z"/>
		<path class="st4" d="M48,48.5l-6.8,0.1c-0.5,0-0.9-0.3-1.1-0.7l-3.5-6.4c-0.5-0.8,0.2-1.9,1.1-1.9h13.5c1,0,1.6,1,1.1,1.9
			l-3.2,6.3C48.9,48.2,48.4,48.5,48,48.5L48,48.5z"/>
		<path class="st4" d="M48.7,48c0,0.7-2,1.6-4.2,1.6s-4.3-1-4.3-1.7c0-0.7,2.1-1,4.3-1S48.7,47.3,48.7,48L48.7,48z"/>
		<path class="st9" d="M62.2,29.2H26.8l8.1,11.5c0.5,1.8,4.7,3.1,9.7,3.1c4.1,0,7.7-0.9,9.1-2.2h0.1L62.2,29.2L62.2,29.2z"/>
		<path class="st25" d="M62.2,28.9c0-0.1,0-0.1,0-0.2c0-0.1,0-0.1,0-0.2v-13H26.8V29l0.1,0.1c0.7,3.3,8.3,5.9,17.7,5.9
			s16.9-2.6,17.7-5.8l0-0.1V28.9L62.2,28.9z"/>
		<path class="st21" d="M44.5,21.8c9.8,0,17.7-2.8,17.7-6.4c0-3.5-7.9-6.4-17.7-6.4S26.7,12,26.7,15.5C26.7,19,34.7,21.8,44.5,21.8z
			"/>
		<g class="st26">
			<path class="st9" d="M32.2,20.1l0.9,13.3c-2.8-0.5-5-2.2-6.2-3.5c0-0.1-0.2-0.6-0.2-0.7V16.1C27.1,17.4,29.2,19.3,32.2,20.1
				L32.2,20.1z"/>
		</g>
		<path class="st27" d="M38,41.4l-0.5-0.9L37,39.6l-3.6-6c-0.1,0-0.1-0.1-0.2-0.1c-0.6-0.2-2.1-0.6-3.2-1.2c-1-0.5-1.8-1.1-1.8-1.1
			l7.2,10.3h0c0,0,0,0.1,0.1,0.1c0.2,0.4,1.8,1.3,3.5,1.6l-0.4-0.8L38,41.4L38,41.4z"/>
		<path class="st57" d="M37.2,42.6l1.7,0.5l2.6,5.7c0,0-0.9-0.4-1.2-0.6c-0.3-0.2-0.8-1.1-0.8-1.1L37.2,42.6L37.2,42.6z"/>
		<path class="st58" d="M47.4,71.1c-0.1,0-0.3,0-0.4-0.1c-0.3-0.2-0.3-0.6-0.1-0.9l6.6-8.7c0.2-0.3,0.6-0.3,0.9-0.1
			c0.3,0.2,0.3,0.6,0.1,0.9l-6.6,8.7C47.8,71,47.6,71.1,47.4,71.1L47.4,71.1z"/>
		<path class="st58" d="M47.9,72.7c-0.3,0-0.5-0.2-0.6-0.5c-0.1-0.3,0.1-0.7,0.5-0.8l10.5-2.6c0.3-0.1,0.7,0.1,0.8,0.5
			c0.1,0.3-0.1,0.7-0.5,0.8l-10.5,2.6C48.1,72.7,48,72.7,47.9,72.7z"/>
		<path class="st58" d="M58.3,76.8c0,0-0.1,0-0.1,0l-10.7-2.2c-0.3-0.1-0.6-0.4-0.5-0.8c0.1-0.3,0.4-0.6,0.8-0.5l10.7,2.2
			c0.3,0.1,0.6,0.4,0.5,0.8C58.9,76.6,58.6,76.8,58.3,76.8L58.3,76.8z"/>
		<path class="st58" d="M41.3,70.8c-0.2,0-0.4-0.1-0.5-0.3l-6.6-8.7c-0.2-0.3-0.2-0.7,0.1-0.9c0.3-0.2,0.7-0.2,0.9,0.1l6.6,8.7
			c0.2,0.3,0.2,0.7-0.1,0.9C41.6,70.8,41.4,70.8,41.3,70.8L41.3,70.8z"/>
		<path class="st58" d="M40.3,73c-0.1,0-0.2,0-0.2-0.1L30,68.8c-0.3-0.1-0.5-0.5-0.3-0.8c0.1-0.3,0.5-0.5,0.8-0.3l10.1,4.2
			c0.3,0.1,0.5,0.5,0.3,0.8C40.8,72.8,40.5,73,40.3,73L40.3,73z"/>
		<path class="st58" d="M29.9,76.3c-0.3,0-0.6-0.2-0.6-0.6c0-0.3,0.2-0.7,0.5-0.7l10.8-1.4c0.3,0,0.7,0.2,0.7,0.5
			c0,0.3-0.2,0.7-0.5,0.7L29.9,76.3C30,76.3,30,76.3,29.9,76.3L29.9,76.3z"/>
		<path class="st58" d="M40.7,79.5c-0.1,0-0.2,0-0.3-0.1c-0.3-0.2-0.4-0.6-0.2-0.9l2.5-4.2c0.2-0.3,0.6-0.4,0.9-0.2
			c0.3,0.2,0.4,0.6,0.2,0.9l-2.5,4.2C41.1,79.4,40.9,79.5,40.7,79.5L40.7,79.5z"/>
		<path class="st58" d="M47.6,80c-0.2,0-0.5-0.1-0.6-0.3l-2.4-4.7c-0.2-0.3,0-0.7,0.3-0.8s0.7,0,0.8,0.3l2.4,4.7
			c0.2,0.3,0,0.7-0.3,0.8C47.8,80,47.7,80,47.6,80L47.6,80z"/>
	</g>
</g>
<g id="Carbon_DSL_Printing">
</g>
<g id="CNC_Machining">
</g>
<g id="water_jet_Cuttin">
</g>
<g id="_x33_D_Printing">
</g>
<g id="Tube_Cutting">
</g>
<g id="Tube_bending">
</g>
<g id="Extrusion">
</g>
<g id="Die_casting">
</g>
<g id="Metal_Staming">
</g>
</svg>
